<?xml version="1.0" encoding="utf-8"?>
<!-- Generator: Adobe Illustrator 19.2.1, SVG Export Plug-In . SVG Version: 6.00 Build 0)  -->
<svg version="1.1" id="Layer_1" xmlns="http://www.w3.org/2000/svg" xmlns:xlink="http://www.w3.org/1999/xlink" x="0px" y="0px"
	 viewBox="0 0 600 400" style="enable-background:new 0 0 600 400;" xml:space="preserve">
<style type="text/css">
	.st0{opacity:0.2;}
	.st1{fill:#205081;}
	.st2{fill:none;stroke:#205081;stroke-width:4;stroke-linejoin:round;stroke-miterlimit:10;}
	.st3{fill:#3572B0;}
	.st4{fill:#FF4E4A;}
	.st5{fill:#FFBD17;}
	.st6{fill:#50C2C3;}
	.st7{fill:#895ECC;}
	.st8{fill:none;stroke:#3572B0;stroke-width:1.9778;stroke-linecap:round;stroke-linejoin:round;stroke-miterlimit:10;}
</style>
<g>
	<g>
		<g class="st0">
			<path class="st1" d="M452.2,149.7l16.5-8l-67.5-3.7l-32.8,52.5l16.9-8.2c3.2,6.7,5.4,14,6.5,21.7c3.4,24.5-5.5,47.8-22.1,63.8
				l51.5,53.5c33.1-31.9,50.9-78.6,44.1-127.5C463.3,178,458.7,163.2,452.2,149.7z"/>
			<path class="st2" d="M452.2,149.7l16.5-8l-67.5-3.7l-32.8,52.5l16.9-8.2c3.2,6.7,5.4,14,6.5,21.7c3.4,24.5-5.5,47.8-22.1,63.8
				l51.5,53.5c33.1-31.9,50.9-78.6,44.1-127.5C463.3,178,458.7,163.2,452.2,149.7z"/>
		</g>
		<g>
			<path class="st3" d="M451,148.5l16.5-8l-67.5-3.7l-32.8,52.5l16.9-8.2c3.2,6.7,5.4,14,6.5,21.7c3.4,24.5-5.5,47.8-22.1,63.8
				l51.5,53.5c33.1-31.9,50.9-78.6,44.1-127.5C462.1,176.8,457.5,162,451,148.5z"/>
			<path class="st2" d="M451,148.5l16.5-8l-67.5-3.7l-32.8,52.5l16.9-8.2c3.2,6.7,5.4,14,6.5,21.7c3.4,24.5-5.5,47.8-22.1,63.8
				l51.5,53.5c33.1-31.9,50.9-78.6,44.1-127.5C462.1,176.8,457.5,162,451,148.5z"/>
		</g>
	</g>
	<g>
		<g class="st0">
			<path class="st1" d="M434.2,334.6L417,269.3l-60-15l12.9,13.4c-10.9,10.5-25.1,17.8-41.3,20.1c-16.2,2.2-31.8-0.9-45.2-8
				l-35,65.6c26.7,14.3,58.1,20.6,90.4,16.1s60.8-19.1,82.6-40.1L434.2,334.6z"/>
			<path class="st2" d="M434.2,334.6L417,269.3l-60-15l12.9,13.4c-10.9,10.5-25.1,17.8-41.3,20.1c-16.2,2.2-31.8-0.9-45.2-8
				l-35,65.6c26.7,14.3,58.1,20.6,90.4,16.1s60.8-19.1,82.6-40.1L434.2,334.6z"/>
		</g>
		<g>
			<path class="st4" d="M433,333.4l-17.3-65.3l-60-15l12.9,13.4c-10.9,10.5-25.1,17.8-41.3,20.1c-16.2,2.2-31.8-0.9-45.2-8l-35,65.6
				c26.7,14.3,58.1,20.6,90.4,16.1s60.8-19.1,82.6-40.1L433,333.4z"/>
			<path class="st2" d="M433,333.4l-17.3-65.3l-60-15l12.9,13.4c-10.9,10.5-25.1,17.8-41.3,20.1c-16.2,2.2-31.8-0.9-45.2-8l-35,65.6
				c26.7,14.3,58.1,20.6,90.4,16.1s60.8-19.1,82.6-40.1L433,333.4z"/>
		</g>
	</g>
	<g>
		<path class="st5" d="M294.4,323.9l-4.3-61.8l-8.6,16.1c-20-10.9-34.7-30.8-38.1-55c-1.1-7.9-0.9-15.8,0.4-23.2l-73.2-13
			c-2.7,15-3.1,30.6-0.9,46.5c6.8,48.7,36.5,88.6,76.7,110.4l-8.9,16.7L294.4,323.9z"/>
		<g>
			<g class="st0">
				<path class="st2" d="M295.6,325l-4.3-61.8l-8.6,16.1c-20-10.9-34.7-30.8-38.1-55c-1.1-7.9-0.9-15.8,0.4-23.2l-73.2-13
					c-2.7,15-3.1,30.6-0.9,46.5c6.8,48.7,36.5,88.6,76.7,110.4l-8.9,16.7L295.6,325z"/>
			</g>
			<path class="st2" d="M294.4,323.9l-4.3-61.8l-8.6,16.1c-20-10.9-34.7-30.8-38.1-55c-1.1-7.9-0.9-15.8,0.4-23.2l-73.2-13
				c-2.7,15-3.1,30.6-0.9,46.5c6.8,48.7,36.5,88.6,76.7,110.4l-8.9,16.7L294.4,323.9z"/>
		</g>
	</g>
	<g>
		<path class="st6" d="M306.8,139.3l-10.2-73.6c-64.1,8.9-112.9,57.5-125.2,117.4l-19-3.4l52.4,42.7l57.4-23.1l-17.5-3.1
			C251.4,167.1,275.5,143.7,306.8,139.3z"/>
		<g>
			<g class="st0">
				<path class="st2" d="M308,140.5l-10.2-73.6c-64.1,8.9-112.9,57.5-125.2,117.4l-19-3.4l52.4,42.7l57.4-23.1l-17.5-3.1
					C252.6,168.3,276.7,144.9,308,140.5z"/>
			</g>
			<path class="st2" d="M306.8,139.3l-10.2-73.6c-64.1,8.9-112.9,57.5-125.2,117.4l-19-3.4l52.4,42.7l57.4-23.1l-17.5-3.1
				C251.4,167.1,275.5,143.7,306.8,139.3z"/>
		</g>
	</g>
	<g>
		<g class="st0">
			<path class="st1" d="M379.7,172.3l21.5-34.4l46.1,2.5c-28.6-50.1-85.1-80.8-145.6-74.1l-2.5-17.9l-24.4,62.9l39.7,47.5l-2.6-18.8
				C339.5,137.8,365,150.8,379.7,172.3z"/>
			<path class="st2" d="M379.7,172.3l21.5-34.4l46.1,2.5c-28.6-50.1-85.1-80.8-145.6-74.1l-2.5-17.9l-24.4,62.9l39.7,47.5l-2.6-18.8
				C339.5,137.8,365,150.8,379.7,172.3z"/>
		</g>
		<g>
			<path class="st7" d="M378.5,171.1l21.5-34.4l46.1,2.5C417.5,89.1,361,58.4,300.5,65.1L298,47.2l-24.4,62.9l39.7,47.5l-2.6-18.8
				C338.3,136.6,363.8,149.6,378.5,171.1z"/>
			<path class="st2" d="M378.5,171.1l21.5-34.4l46.1,2.5C417.5,89.1,361,58.4,300.5,65.1L298,47.2l-24.4,62.9l39.7,47.5l-2.6-18.8
				C338.3,136.6,363.8,149.6,378.5,171.1z"/>
		</g>
	</g>
	<g>
		<path class="st3" d="M464.3,192.5c-2.2-15.7-6.7-30.4-13.3-44l16.5-8l-67.5-3.7l-32.8,52.5l16.9-8.2c3.2,6.7,5.4,14,6.5,21.7"/>
		<path class="st2" d="M464.3,192.5c-2.2-15.7-6.7-30.4-13.3-44l16.5-8l-67.5-3.7l-32.8,52.5l16.9-8.2c3.2,6.7,5.4,14,6.5,21.7"/>
	</g>
</g>
<g>
	<circle class="st1" cx="137.2" cy="348" r="24"/>
	<g>
		<circle class="st8" cx="135.5" cy="346.3" r="9.3"/>
		<line class="st8" x1="142" y1="352.8" x2="148.1" y2="358.9"/>
	</g>
</g>
<g>
	<circle class="st1" cx="520.2" cy="86.8" r="24"/>
	<g>
		<path class="st8" d="M518.5,84.5c0,0-1.7-4.1-5.2-4.1s-6.4,2.9-6.4,6.4s2.9,6.4,6.4,6.4c5.8,0,8.1-12.8,13.9-12.8
			c3.5,0,6.4,2.9,6.4,6.4s-2.9,6.4-6.4,6.4s-5.2-2.9-5.2-2.9"/>
		<polyline class="st8" points="514.4,83.7 518.5,84.5 519.2,80.4 		"/>
	</g>
</g>
<g>
	<circle class="st1" cx="542.4" cy="272.7" r="24"/>
	<g>
		<polygon class="st8" points="537.1,286 540.6,273.3 536,273.3 539.5,259.4 548.7,259.4 542.9,268.6 548.7,268.6 		"/>
	</g>
</g>
<g>
	<circle class="st1" cx="111.1" cy="92" r="24"/>
	<g>
		<path class="st8" d="M109.4,89.7c0,0-1.7-4.1-5.2-4.1h-6.4"/>
		<path class="st8" d="M124.4,85.6H118c-5.8,0-8.1,12.8-13.9,12.8h-6.4"/>
		<path class="st8" d="M112.3,94.9c0,0,2.3,3.5,5.8,3.5h6.4"/>
		<polyline class="st8" points="122.1,82.1 124.4,85.6 122.1,89.1 		"/>
		<polyline class="st8" points="122.1,94.9 124.4,98.3 122.1,101.8 		"/>
	</g>
</g>
<g>
	<circle class="st1" cx="51.5" cy="227.5" r="24"/>
	<g>
		<circle class="st8" cx="51.5" cy="227.5" r="13.3"/>
		<polyline class="st8" points="50.9,221.1 50.9,227.5 57.9,233.9 		"/>
	</g>
</g>
</svg>
