<?xml version="1.0" encoding="utf-8"?>
<!-- Generator: Adobe Illustrator 19.2.1, SVG Export Plug-In . SVG Version: 6.00 Build 0)  -->
<svg version="1.1" id="Layer_1" xmlns="http://www.w3.org/2000/svg" xmlns:xlink="http://www.w3.org/1999/xlink" x="0px" y="0px"
	 viewBox="0 0 1000 256" style="enable-background:new 0 0 1000 256;" xml:space="preserve">
<style type="text/css">
	.st0{fill:#FF6565;}
	.st1{fill:#282A90;}
	.st2{fill:#FFFFFF;}
	.st3{fill:#CACAC8;}
	.st4{fill:#50BCE3;}
	.st5{fill:#FCF5FD;}
	.st6{clip-path:url(#SVGID_2_);}
	.st7{fill:none;stroke:#282A90;stroke-width:2.5;stroke-miterlimit:10;}
	.st8{clip-path:url(#SVGID_4_);}
	.st9{fill:none;stroke:#282A90;stroke-width:0.9591;stroke-miterlimit:10;}
	.st10{fill:none;}
	.st11{fill:#96E6BE;}
	.st12{fill:#64D6A1;}
	.st13{fill:#3BAD7C;}
	.st14{fill:#89D2EC;}
	.st15{fill:#3F8BA7;}
	.st16{fill:#926F97;}
	.st17{fill:#6E4775;}
	.st18{fill:#523352;}
	.st19{fill:#FFDE59;}
	.st20{fill:#FFC700;}
	.st21{fill:#C09400;}
	.st22{fill:#FF63BE;}
	.st23{fill:#FF0091;}
	.st24{fill:#B00065;}
	.st25{fill:#F7F7F5;}
	.st26{fill:#E1E1DF;}
	.st27{fill:#6E6E6C;}
	.st28{fill:#464644;}
	.st29{fill:#2B2B29;}
</style>
<g>
	<g>
		<rect x="127.5" y="118.3" class="st0" width="8.9" height="8.9"/>
	</g>
</g>
<g>
	<g>
		<g>
			<path class="st1" d="M125.1,137.8h1.6h4.2c0.5,0,0.9-0.4,0.9-0.9c0-0.5-0.4-0.9-0.9-0.9h-4.2c0,0,0,0,0,0c-0.1,0-0.2-0.1-0.2-0.2
				c0-0.1,0.1-0.2,0.2-0.2l0,0l0,0h6.6c0.5,0,0.9-0.4,0.9-0.9c0-0.5-0.4-0.9-0.9-0.9h-6.6v0l0,0c-0.1,0-0.2-0.1-0.2-0.2
				s0.1-0.2,0.2-0.2l0,0l0,0h8.8c0.5,0,0.9-0.4,0.9-0.9c0-0.5-0.4-0.9-0.9-0.9h-8.8v0l0,0c-0.1,0-0.2-0.1-0.2-0.2
				c0-0.1,0.1-0.2,0.2-0.2l0,0l0,0h5.5c1.5,0,2.6-1.2,2.6-2.6c0-1.5-1.2-2.6-2.6-2.6c-0.5,0-0.9,0.4-0.9,0.9c0,0.5,0.4,0.9,0.9,0.9
				c0.5,0,0.9,0.4,0.9,0.9c0,0.5-0.4,0.9-0.9,0.9h-5.5v0h-2.9c0,0,0,0-0.1,0c-0.1,0-0.2-0.1-0.2-0.2c0-0.1,0.1-0.2,0.2-0.2v0h5.4
				c0.5,0,0.9-0.4,0.9-0.9c0-0.5-0.4-0.9-0.9-0.9h-5.4H122h-2.6v2.2v8.2H125.1z"/>
		</g>
	</g>
</g>
<rect x="126.4" y="127.4" class="st2" width="3.9" height="1.3"/>
<g>
	<g>
		<rect x="748.7" y="36" class="st0" width="50.8" height="1.2"/>
	</g>
	<g>
		<rect x="802.1" y="39.7" class="st0" width="1.2" height="31"/>
	</g>
	<g>
		<path class="st0" d="M803.2,39.7h-1.2c0-1.4-1.1-2.5-2.5-2.5V36C801.6,36,803.2,37.6,803.2,39.7z"/>
	</g>
</g>
<g>
	<rect x="926.2" y="125.8" class="st1" width="8.4" height="1"/>
</g>
<g>
	<circle class="st0" cx="927.1" cy="126.3" r="1.7"/>
</g>
<path class="st3" d="M925.7,131.4h2.1v-2.6v-1.8v-5.3c0-0.5-0.4-0.9-0.9-0.9s-0.9,0.4-0.9,0.9v5.3h0c0,0.1-0.1,0.2-0.2,0.2
	c-0.1,0-0.2-0.1-0.2-0.2c0,0,0,0,0-0.1v-2.8h0v-3.1v-2.3v-1.1c0-0.5-0.4-0.9-0.9-0.9s-0.9,0.4-0.9,0.9v1.1v2.3v3.1l0,0l0,0
	c0,0.1-0.1,0.2-0.2,0.2c-0.1,0-0.2-0.1-0.2-0.2l0,0h0v-8.7c0-0.5-0.4-0.9-0.9-0.9c-0.5,0-0.9,0.4-0.9,0.9v8.7l0,0l0,0
	c0,0.1-0.1,0.2-0.2,0.2c-0.1,0-0.2-0.1-0.2-0.2l0,0h0v-6.6c0-0.5-0.4-0.9-0.9-0.9c-0.5,0-0.9,0.4-0.9,0.9v6.6l0,0l0,0
	c0,0.1-0.1,0.2-0.2,0.2c-0.1,0-0.2-0.1-0.2-0.2c0,0,0,0,0,0v-4.1c0-0.5-0.4-0.9-0.9-0.9c-0.5,0-0.9,0.4-0.9,0.9v4.2v1.6v5.7H925.7z"
	/>
<g>
	<rect x="821.6" y="156.7" class="st0" width="3.5" height="74.6"/>
</g>
<g>
	<path class="st4" d="M106.3,226c3.4,0,6.2,2.2,7.2,5.3h-7.2h-11h-2.7V226H106.3z"/>
</g>
<g>
	<g>
		<path class="st4" d="M82.1,226c3.4,0,6.2,2.2,7.2,5.3h-7.2h-11h-2.7V226H82.1z"/>
	</g>
</g>
<g>
	<g>
		<rect x="28.2" y="94" transform="matrix(0.8487 -0.5289 0.5289 0.8487 -49.428 34.8447)" class="st4" width="16" height="19.7"/>
	</g>
	<g>
		<rect x="28.2" y="94" transform="matrix(0.8487 -0.5289 0.5289 0.8487 -49.428 34.8447)" class="st4" width="16" height="19.7"/>
	</g>
	<g>
		
			<rect x="29.2" y="96.2" transform="matrix(0.8487 -0.5288 0.5288 0.8487 -48.7705 34.1168)" class="st2" width="12.1" height="12.1"/>
	</g>
</g>
<g>
	<g>
		
			<rect x="12.6" y="139.9" transform="matrix(0.945 -0.327 0.327 0.945 -47.5834 16.2981)" class="st1" width="24.1" height="19.6"/>
	</g>
	<g>
		
			<rect x="12.6" y="139.9" transform="matrix(0.945 -0.327 0.327 0.945 -47.5834 16.2981)" class="st3" width="24.1" height="19.6"/>
	</g>
	<g>
		<rect x="15.2" y="143" transform="matrix(0.945 -0.327 0.327 0.945 -47.9263 15.6665)" class="st0" width="14.8" height="14.8"/>
	</g>
</g>
<g>
	<g>
		
			<rect x="148.2" y="93.3" transform="matrix(0.731 -0.6824 0.6824 0.731 -26.6297 135.225)" class="st2" width="19.9" height="16.2"/>
	</g>
	<g>
		
			<rect x="148.2" y="93.3" transform="matrix(0.731 -0.6824 0.6824 0.731 -26.6297 135.225)" class="st1" width="19.9" height="16.2"/>
	</g>
	<g>
		
			<rect x="153.4" y="94.1" transform="matrix(0.731 -0.6824 0.6824 0.731 -25.4902 135.8172)" class="st4" width="12.3" height="12.3"/>
	</g>
</g>
<g>
	<g>
		<polygon class="st2" points="160.4,243.1 145.9,234.3 156.7,218.6 171.2,227.5 		"/>
	</g>
	<g>
		<polygon class="st0" points="160.4,243.1 145.9,234.3 156.7,218.6 171.2,227.5 		"/>
	</g>
	<g>
		<polygon class="st2" points="161.7,237.7 150.7,231 157.4,221.4 168.4,228.1 		"/>
	</g>
</g>
<g>
	<g>
		<polygon class="st4" points="184.4,242.7 185.4,227.3 206.2,229.5 205.2,244.9 		"/>
	</g>
	<g>
		<polygon class="st4" points="184.4,242.7 185.4,227.3 206.2,229.5 205.2,244.9 		"/>
	</g>
	<g>
		<polygon class="st1" points="190.4,241.5 191.1,229.8 203.9,231.2 203.2,242.9 		"/>
	</g>
</g>
<g>
	<g>
		<polygon class="st2" points="146.8,247.7 132.3,238.9 143.2,223.2 157.7,232.1 		"/>
	</g>
	<g>
		<polygon class="st4" points="146.8,247.7 132.3,238.9 143.2,223.2 157.7,232.1 		"/>
	</g>
	<g>
		<polygon class="st1" points="148.1,242.3 137.2,235.6 143.9,226 154.8,232.7 		"/>
	</g>
</g>
<g>
	<rect x="917.5" y="131.4" class="st1" width="10.3" height="3.4"/>
</g>
<g>
	<g>
		<path class="st3" d="M927.6,166.9h1.2v-32.1h-12.3v21.1C916.6,161.9,921.5,166.9,927.6,166.9z"/>
	</g>
</g>
<g>
	<g>
		<rect x="916.6" y="141.5" class="st1" width="12.3" height="1"/>
	</g>
	<g>
		<rect x="916.6" y="146.7" class="st1" width="12.3" height="1"/>
	</g>
</g>
<g>
	<rect x="916.6" y="144.1" class="st1" width="12.3" height="1"/>
</g>
<g>
	<path class="st1" d="M931,126.3c0-2.1,1.7-3.9,3.9-3.9h4c2.1,0,3.9,1.7,3.9,3.9l0,0c0,2.1-1.7,3.9-3.9,3.9h-4
		C932.7,130.2,931,128.4,931,126.3L931,126.3z"/>
</g>
<g>
	<rect x="118.4" y="210" class="st3" width="4.1" height="20.6"/>
	<path class="st3" d="M123,231.1h-5.1v-21.6h5.1V231.1z M118.9,230.1h3.1v-19.6h-3.1V230.1z"/>
</g>
<g>
	<rect x="135" y="210" class="st3" width="4.1" height="20.6"/>
	<path class="st3" d="M139.6,231.1h-5.1v-21.6h5.1V231.1z M135.5,230.1h3.1v-19.6h-3.1V230.1z"/>
</g>
<g>
	<g>
		<path class="st0" d="M319.1,103.2h-19.9v0c-4.8-0.4-8.5-4.4-8.5-9.2c0-5.1,4.2-9.3,9.3-9.3c0.5,0,1,0,1.5,0.1
			c1.2-3.8,4.8-6.5,8.8-6.5c2.9,0,5.5,1.3,7.3,3.5c0.6-0.1,1.1-0.1,1.6-0.1c5.9,0,10.8,4.8,10.8,10.8
			C329.8,98.3,325,103.2,319.1,103.2z M300.1,102.2h19c5.4,0,9.8-4.4,9.8-9.8c0-5.4-4.4-9.8-9.8-9.8c-0.5,0-1.1,0-1.7,0.2l-0.3,0
			l-0.2-0.2c-1.6-2.1-4-3.4-6.7-3.4c-3.8,0-7.1,2.6-8.1,6.2l-0.1,0.4l-0.4-0.1c-0.6-0.1-1.2-0.2-1.7-0.2c-4.6,0-8.4,3.7-8.4,8.4
			c0,4.5,3.5,8.2,8,8.3L300.1,102.2z"/>
	</g>
</g>
<g>
	<rect x="928.8" y="155.6" class="st1" width="13" height="10.3"/>
</g>
<g>
	<rect x="973.2" y="148.2" class="st1" width="2.8" height="10.3"/>
</g>
<g>
	<path class="st1" d="M981.6,126.3c0,2.1-1.7,3.9-3.9,3.9h-4c-2.1,0-3.9-1.7-3.9-3.9l0,0c0-2.1,1.7-3.9,3.9-3.9h4
		C979.8,122.4,981.6,124.2,981.6,126.3L981.6,126.3z"/>
</g>
<g>
	<rect x="946.1" y="139" class="st1" width="23.2" height="8.7"/>
</g>
<g>
	<g>
		<path class="st3" d="M973.2,179.3h-30.5c-6.1,0-11.1-5-11.1-11.1v-21.1h41.5V179.3z"/>
	</g>
	<g>
		<path class="st3" d="M977.1,147.2h-1.2v32.1h12.3v-21.1C988.2,152.2,983.3,147.2,977.1,147.2z"/>
	</g>
</g>
<g>
	<g>
		<path class="st3" d="M934.1,114.6v19.5c0,4.7,3.8,8.5,8.5,8.5h26.6c4.7,0,8.5-3.8,8.5-8.5v-19.5H934.1z"/>
	</g>
</g>
<g>
	<circle class="st2" cx="964.7" cy="155.1" r="4.6"/>
</g>
<g>
	<g>
		<rect x="964.2" y="152.6" class="st0" width="0.9" height="2.5"/>
	</g>
</g>
<g>
	<g>
		<rect x="964.3" y="154.6" class="st0" width="2.5" height="0.9"/>
	</g>
</g>
<g>
	<rect x="977.9" y="125.8" class="st1" width="8.4" height="1"/>
</g>
<g>
	<circle class="st0" cx="985.4" cy="126.3" r="1.7"/>
</g>
<g>
	<g>
		<rect x="975.9" y="171.7" class="st1" width="12.3" height="1"/>
	</g>
	<g>
		<rect x="975.9" y="166.4" class="st1" width="12.3" height="1"/>
	</g>
</g>
<g>
	<rect x="975.9" y="169" class="st1" width="12.3" height="1"/>
</g>
<g>
	<g>
		<rect x="937.8" y="109.5" class="st1" width="36.3" height="5.1"/>
	</g>
	<g>
		<g>
			<path class="st1" d="M962.6,104.7c-2.3,0-6.6-3.7-7.1-4.2l-0.4-0.4l0.4-0.4c0.5-0.4,4.7-4.2,7.1-4.2c2.5,0,4.5,2,4.5,4.5
				S965.1,104.7,962.6,104.7z M956.6,100.2c1.5,1.2,4.5,3.6,6,3.6c2,0,3.6-1.6,3.6-3.6c0-2-1.6-3.6-3.6-3.6
				C961.1,96.6,958,99,956.6,100.2z"/>
		</g>
		<g>
			<path class="st1" d="M949.3,104.7c-2.5,0-4.5-2-4.5-4.5s2-4.5,4.5-4.5c2.3,0,6.6,3.7,7.1,4.2l0.4,0.4l-0.4,0.4
				C955.9,101,951.6,104.7,949.3,104.7z M949.3,96.6c-2,0-3.6,1.6-3.6,3.6c0,2,1.6,3.6,3.6,3.6c1.5,0,4.5-2.3,6-3.6
				C953.8,99,950.8,96.6,949.3,96.6z"/>
		</g>
	</g>
	<g>
		<rect x="955.4" y="100.2" class="st1" width="1" height="10.5"/>
	</g>
	<g>
		<rect x="955.4" y="104.2" class="st1" width="1" height="6.5"/>
	</g>
</g>
<g>
	<path class="st2" d="M950.6,126.3c0.2,2.8,2.5,5,5.3,5c2.8,0,5.2-2.2,5.3-5H950.6z"/>
</g>
<g>
	<g>
		<path class="st1" d="M959.4,176.9c-1.6,0-2.9-1.3-2.9-2.9c0-1.6,1.3-2.9,2.9-2.9c1.6,0,2.9,1.3,2.9,2.9
			C962.3,175.6,961,176.9,959.4,176.9z M959.4,172.1c-1,0-1.9,0.9-1.9,1.9c0,1,0.9,1.9,1.9,1.9c1.1,0,1.9-0.9,1.9-1.9
			C961.3,173,960.4,172.1,959.4,172.1z"/>
	</g>
	<g>
		<path class="st1" d="M966.7,176.9c-1.6,0-2.9-1.3-2.9-2.9c0-1.6,1.3-2.9,2.9-2.9c1.6,0,2.9,1.3,2.9,2.9
			C969.5,175.6,968.3,176.9,966.7,176.9z M966.7,172.1c-1,0-1.9,0.9-1.9,1.9c0,1,0.9,1.9,1.9,1.9c1.1,0,1.9-0.9,1.9-1.9
			C968.6,173,967.7,172.1,966.7,172.1z"/>
	</g>
</g>
<g>
	<rect x="941.8" y="179.3" class="st1" width="28.2" height="5.2"/>
</g>
<g>
	<rect x="976.9" y="179.3" class="st1" width="10.3" height="3.4"/>
</g>
<g>
	<circle class="st3" cx="941.8" cy="192.1" r="7.6"/>
</g>
<g>
	<rect x="934.2" y="192.1" class="st3" width="15.2" height="33.9"/>
</g>
<g>
	<g>
		<rect x="934.2" y="215.4" class="st1" width="15.2" height="1"/>
	</g>
	<g>
		<rect x="934.2" y="220.7" class="st1" width="15.2" height="1"/>
	</g>
</g>
<g>
	<rect x="934.2" y="218.1" class="st1" width="15.2" height="1"/>
</g>
<g>
	<path class="st1" d="M935.8,226c-3.4,0-6.2,2.2-7.2,5.3h7.2h11h2.7V226H935.8z"/>
</g>
<g>
	<g>
		<circle class="st3" cx="965.6" cy="192.1" r="7.6"/>
	</g>
	<g>
		<rect x="958" y="192.1" class="st3" width="15.2" height="33.9"/>
	</g>
	<g>
		<g>
			<rect x="958" y="215.4" class="st1" width="15.2" height="1"/>
		</g>
		<g>
			<rect x="958" y="220.7" class="st1" width="15.2" height="1"/>
		</g>
	</g>
	<g>
		<rect x="958" y="218.1" class="st1" width="15.2" height="1"/>
	</g>
	<g>
		<path class="st1" d="M959.6,226c-3.4,0-6.2,2.2-7.2,5.3h7.2h11h2.7V226H959.6z"/>
	</g>
</g>
<g>
	<rect x="931.6" y="147.2" class="st3" width="15" height="15.5"/>
</g>
<g>
	<path class="st4" d="M470.3,50h-13.2c-4.1,0-7.5-3.4-7.5-7.6c0-4.2,3.3-7.6,7.5-7.6c0.3,0,0.6,0,1,0.1c1.2-1.5,3-2.4,5-2.4
		c2.8,0,5.2,1.8,6.1,4.5c0.3,0,0.6-0.1,0.9-0.1c3.6,0,6.5,3,6.5,6.6c0,3.4-2.5,6.2-5.7,6.6v0L470.3,50z M457.1,35.7
		c-3.6,0-6.5,3-6.5,6.7c0,3.7,2.9,6.7,6.5,6.7l13.2,0c3-0.1,5.3-2.6,5.3-5.6c0-3.1-2.5-5.6-5.5-5.6c-0.4,0-0.8,0-1.1,0.1l-0.4,0.1
		l-0.1-0.4c-0.6-2.5-2.8-4.2-5.3-4.2c-1.7,0-3.3,0.8-4.4,2.3l-0.2,0.2l-0.3-0.1C457.9,35.7,457.5,35.7,457.1,35.7z"/>
</g>
<g>
	<rect x="343.9" y="52.8" class="st4" width="2.9" height="105.1"/>
</g>
<g>
	<path class="st0" d="M398.3,49.7l6.2-6.2l0.7,0.7c0.5,0.5,1.4,0.5,1.9,0c0.5-0.5,0.5-1.4,0-1.9l-0.7-0.7l-7.7-7.7l-0.7-0.7
		c-0.5-0.5-1.4-0.5-1.9,0c-0.5,0.5-0.5,1.4,0,1.9l0.7,0.7l-6.2,6.2c-6.8-3.6-15.5-2.5-21.2,3.3c-7.1,7.1-7.1,18.5,0,25.6
		c7.1,7.1,18.5,7.1,25.6,0C400.8,65.1,401.9,56.5,398.3,49.7z"/>
</g>
<g>
	
		<rect x="402.2" y="31.9" transform="matrix(0.7071 -0.7071 0.7071 0.7071 92.281 296.1424)" class="st1" width="2.9" height="9.5"/>
</g>
<g>
	
		<rect x="397.8" y="35.8" transform="matrix(0.7071 -0.7071 0.7071 0.7071 89.2926 294.9118)" class="st2" width="5.6" height="7.8"/>
</g>
<g>
	<rect x="396.4" y="29.7" transform="matrix(0.7071 -0.7071 0.7071 0.7071 90.892 291.1689)" class="st2" width="1" height="12.2"/>
</g>
<g>
	<path class="st2" d="M393.9,50.1l-3.7-3.7l7.7-7.7l3.7,3.7L393.9,50.1z M391.5,46.4l2.4,2.4l6.4-6.4l-2.4-2.4L391.5,46.4z"/>
</g>
<g>
	<ellipse transform="matrix(0.707 -0.7072 0.7072 0.707 78.3209 284.239)" class="st0" cx="382.2" cy="47.6" rx="1.1" ry="1.1"/>
</g>
<g>
	<ellipse transform="matrix(0.7073 -0.7069 0.7069 0.7073 76.7571 286.6307)" class="st0" cx="384.5" cy="50.6" rx="0.5" ry="0.5"/>
</g>
<g>
	<ellipse transform="matrix(0.7071 -0.7071 0.7071 0.7071 75.0716 284.061)" class="st0" cx="380.4" cy="51.4" rx="1" ry="1"/>
</g>
<g>
	<g>
		<ellipse class="st2" cx="374.7" cy="60.8" rx="6.7" ry="1.4"/>
	</g>
	<g>
		<path class="st1" d="M396.3,61c0.1-0.4,0.1-0.8,0.1-1.2c-1.8-0.9-3.7-1.8-7.2-1.8c-3.4,0-5.3,0.8-7,1.7c-2.2,1.1-4.1,2.4-8.4,2.4
			c-2.6,0-4.3-0.5-5.7-1.1c0,0-0.1,0-0.1-0.1c0.9,7,6.9,12.3,14.1,12.3c0,0,0,0,0.1,0c0,0,0,0,0.1,0c7.2,0,13.2-5.4,14.1-12.3
			C396.4,61,396.3,61,396.3,61z"/>
	</g>
</g>
<g>
	<rect x="332.6" y="69.2" class="st4" width="66.3" height="2.9"/>
</g>
<g>
	<rect x="341" y="66.8" class="st1" width="7.6" height="7.6"/>
</g>
<g>
	<circle class="st2" cx="344.8" cy="70.6" r="1.5"/>
</g>
<g>
	<path class="st1" d="M372.3,151.5c-10,0-18.2-8.2-18.2-18.2c0-7.9,5-14.8,12.4-17.2v-7.8H366c-1,0-1.8-0.8-1.8-1.8
		c0-1,0.8-1.8,1.8-1.8h12.6c1,0,1.8,0.8,1.8,1.8c0,1-0.8,1.8-1.8,1.8h-0.5v7.8c7.4,2.5,12.4,9.4,12.4,17.2
		C390.5,143.3,382.4,151.5,372.3,151.5z M366,105.6c-0.5,0-0.8,0.4-0.8,0.8c0,0.5,0.4,0.8,0.8,0.8h1.5v9.4l-0.3,0.1
		c-7.2,2.3-12.1,8.9-12.1,16.4c0,9.5,7.7,17.2,17.2,17.2c9.5,0,17.2-7.7,17.2-17.2c0-7.6-4.8-14.2-12.1-16.4l-0.3-0.1v-9.4h1.5
		c0.5,0,0.8-0.4,0.8-0.8c0-0.5-0.4-0.8-0.8-0.8H366z"/>
</g>
<g>
	<rect x="367.7" y="102.3" class="st1" width="9.3" height="2.8"/>
</g>
<g>
	<rect x="368.5" y="105.1" class="st0" width="7.6" height="5.5"/>
</g>
<g>
	<rect x="367" y="107.3" class="st1" width="6.1" height="1"/>
</g>
<g>
	<path class="st0" d="M374.9,119.8h-5.2v-10.7h5.2V119.8z M370.7,118.8h3.2V110h-3.2V118.8z"/>
</g>
<g>
	<circle class="st0" cx="371.3" cy="123.1" r="1"/>
</g>
<g>
	<circle class="st0" cx="374.9" cy="123.6" r="0.5"/>
</g>
<g>
	<circle class="st0" cx="372.7" cy="127" r="0.9"/>
</g>
<g>
	<g>
		<ellipse class="st4" cx="364.3" cy="135.4" rx="7.1" ry="1.5"/>
	</g>
	<g>
		<path class="st1" d="M387.3,135.6c0.1-0.4,0.1-0.9,0.1-1.3c-1.9-1-3.9-1.9-7.7-1.9c-3.6,0-5.6,0.8-7.4,1.8
			c-2.3,1.2-4.3,2.6-8.9,2.6c-2.7,0-4.6-0.5-6.1-1.1c0,0-0.1,0-0.1-0.1c1,7.4,7.4,13.2,15.1,13.2c0,0,0,0,0.1,0c0,0,0,0,0.1,0
			c7.7,0,14.1-5.7,15.1-13.2C387.4,135.6,387.4,135.6,387.3,135.6z"/>
	</g>
</g>
<g>
	<rect x="332.6" y="110.7" class="st4" width="47.3" height="2.9"/>
</g>
<g>
	<rect x="341" y="109.1" class="st1" width="7.6" height="7.6"/>
</g>
<g>
	<circle class="st2" cx="344.8" cy="112.9" r="1.5"/>
</g>
<g>
	<path class="st1" d="M461.1,62.1h-23.8c-2.7,0-4.9-2.2-4.9-4.9c0-2.7,2.2-4.9,4.9-4.9h23.8V55h-23.8c-1.2,0-2.2,1-2.2,2.2
		c0,1.2,1,2.2,2.2,2.2h23.8V62.1z"/>
</g>
<g>
	<path class="st1" d="M461.1,69.2h-23.8v-2.7h23.8c1.2,0,2.2-1,2.2-2.2c0-1.2-1-2.2-2.2-2.2h-23.8v-2.7h23.8c2.7,0,4.9,2.2,4.9,4.9
		C466,67,463.8,69.2,461.1,69.2z"/>
</g>
<g>
	<path class="st1" d="M461.1,76.3h-23.8c-2.7,0-4.9-2.2-4.9-4.9c0-2.7,2.2-4.9,4.9-4.9h23.8v2.7h-23.8c-1.2,0-2.2,1-2.2,2.2
		c0,1.2,1,2.2,2.2,2.2h23.8V76.3z"/>
</g>
<g>
	
		<rect x="401.2" y="114.8" transform="matrix(0.7071 -0.7071 0.7071 0.7071 36.6283 325.8002)" class="st1" width="20.7" height="7.7"/>
</g>
<g>
	<rect x="409.7" y="86.6" class="st1" width="2.9" height="90.8"/>
</g>
<g>
	<path class="st1" d="M461.1,83.4h-23.8v-2.7h23.8c1.2,0,2.2-1,2.2-2.2c0-1.2-1-2.2-2.2-2.2h-23.8v-2.7h23.8c2.7,0,4.9,2.2,4.9,4.9
		C466,81.2,463.8,83.4,461.1,83.4z"/>
</g>
<g>
	<path class="st1" d="M461.1,90.5h-23.8c-2.7,0-4.9-2.2-4.9-4.9c0-2.7,2.2-4.9,4.9-4.9h23.8v2.7h-23.8c-1.2,0-2.2,1-2.2,2.2
		s1,2.2,2.2,2.2h23.8V90.5z"/>
</g>
<g>
	<path class="st1" d="M461.1,97.6h-23.8v-2.7h23.8c1.2,0,2.2-1,2.2-2.2c0-1.2-1-2.2-2.2-2.2h-23.8c-0.2,0-0.3,0-0.5,0.1l-0.6-2.6
		c0.4-0.1,0.7-0.1,1.1-0.1h23.8c2.7,0,4.9,2.2,4.9,4.9C466,95.4,463.8,97.6,461.1,97.6z"/>
</g>
<g>
	<path class="st1" d="M461.1,55v-2.7c1.2,0,2.2-1,2.2-2.2c0-1.2-1-2.2-2.2-2.2h-28.4v-2.7h28.4c2.7,0,4.9,2.2,4.9,4.9
		C466,52.8,463.8,55,461.1,55z"/>
</g>
<g>
	<path class="st1" d="M461.1,104.7h-23.8c-2.7,0-4.9-2.2-4.9-4.9c0-2.7,2.2-4.9,4.9-4.9h23.8v2.7h-23.8c-1.2,0-2.2,1-2.2,2.2
		c0,1.2,1,2.2,2.2,2.2h23.8V104.7z"/>
</g>
<g>
	<path class="st1" d="M465.6,110.5h-2.7v-3.6c0-1.2-1-2.2-2.2-2.2V102c2.7,0,4.9,2.2,4.9,4.9V110.5z"/>
</g>
<g>
	
		<rect x="383.9" y="38.3" transform="matrix(0.7071 -0.7071 0.7071 0.7071 89.2151 294.7661)" class="st1" width="33.1" height="2.7"/>
</g>
<g>
	<path class="st1" d="M432.7,47.9c-1.8,0-3-1.2-3.7-2.1l-0.7-0.9l0.1-0.1l-10.8-15.9c-1.3-1.2-3.2-1.1-4.5,0.1l-1.9-1.9
		c2.3-2.3,6-2.3,8.3,0l0.1,0.1l11.6,17c0.6,0.8,1.1,1.1,1.6,1.1V47.9z"/>
</g>
<g>
	
		<rect x="419.7" y="30.1" transform="matrix(0.8267 -0.5627 0.5627 0.8267 53.815 244.0836)" class="st1" width="6.9" height="9.2"/>
</g>
<g>
	<path class="st4" d="M430.5,129.3l-30-30.1c-2.2-2.2-5.8-2.2-8,0c-2.2,2.2-2.2,5.8,0,8l30.1,30c2.2,1.5,5.2,1.3,7.2-0.7
		C431.8,134.5,432,131.5,430.5,129.3z"/>
</g>
<g>
	<path class="st1" d="M340.1,169.4h-7.6v-5.4h7.6c1.2,0,2.2-1,2.2-2.2v-7.6h5.4v7.6C347.8,166,344.3,169.4,340.1,169.4z"/>
</g>
<g>
	<path class="st0" d="M469.8,131.9l0.1-16.1c0-3.1-2.5-5.7-5.7-5.7c-3.1,0-5.7,2.5-5.7,5.7l0.1,16.1c0.5,2.6,2.8,4.6,5.6,4.6
		C467,136.5,469.3,134.5,469.8,131.9z"/>
</g>
<g>
	<rect x="462.9" y="126.2" class="st0" width="2.7" height="13.9"/>
</g>
<g>
	<circle class="st5" cx="463.1" cy="124.6" r="0.7"/>
</g>
<g>
	<circle class="st5" cx="465.6" cy="119.4" r="1.3"/>
</g>
<g>
	<path class="st4" d="M431.3,159.8l-2.4-3h3.8h12.4c0.7,0,1.3,0.6,1.3,1.3v21.4c0,0.7-0.6,1.3-1.3,1.3h-12.4c-0.7,0-1.3-0.6-1.3-1.3
		V159.8"/>
</g>
<g>
	<rect x="433.3" y="166.7" class="st2" width="11.4" height="12"/>
</g>
<g>
	<g>
		<path class="st1" d="M438.5,162.8h-0.4v1.7h-0.7v-4.1h1.3c0.8,0,1.3,0.5,1.3,1.2c0,0.5-0.3,0.9-0.8,1.1l1.3,1.8h-0.8L438.5,162.8z
			 M438.7,162.2c0.5,0,0.7-0.2,0.7-0.6c0-0.3-0.2-0.6-0.7-0.6h-0.6v1.1H438.7z"/>
	</g>
</g>
<g>
	<path class="st4" d="M456.4,159.8l-2.4-3h3.8h12.4c0.7,0,1.3,0.6,1.3,1.3v21.4c0,0.7-0.6,1.3-1.3,1.3h-12.4c-0.7,0-1.3-0.6-1.3-1.3
		V159.8"/>
</g>
<g>
	<rect x="458.4" y="166.7" class="st2" width="11.4" height="12"/>
</g>
<g>
	<path class="st4" d="M481.1,159.8l-2.4-3h3.8h12.4c0.7,0,1.3,0.6,1.3,1.3v21.4c0,0.7-0.6,1.3-1.3,1.3h-12.4c-0.7,0-1.3-0.6-1.3-1.3
		V159.8"/>
</g>
<g>
	<rect x="483.1" y="166.7" class="st2" width="11.4" height="12"/>
</g>
<g>
	<path class="st0" d="M435.4,150.3c0-1.4,2.6-6,2.6-6s2.6,4.5,2.6,6c0,1.4-1.2,2.6-2.6,2.6C436.6,152.8,435.4,151.7,435.4,150.3z"/>
</g>
<g>
	<path class="st4" d="M486.4,150.3c0-1.4,2.6-6,2.6-6s2.6,4.5,2.6,6c0,1.4-1.2,2.6-2.6,2.6C487.6,152.8,486.4,151.7,486.4,150.3z"/>
</g>
<g>
	<path class="st4" d="M368.8,163.3c0-1.9,3.5-8,3.5-8s3.5,6.1,3.5,8c0,1.9-1.6,3.5-3.5,3.5C370.4,166.7,368.8,165.2,368.8,163.3z"/>
</g>
<g>
	<circle class="st2" cx="372.3" cy="163.3" r="2.3"/>
</g>
<g>
	<rect x="362.6" y="176.8" class="st0" width="19.6" height="4.5"/>
</g>
<g>
	<rect x="368.9" y="172.3" class="st0" width="7" height="5.4"/>
</g>
<g>
	<rect x="370.2" y="166.7" class="st1" width="4.3" height="5.6"/>
</g>
<g>
	<rect x="375.9" y="173" class="st1" width="2.3" height="2.3"/>
</g>
<g>
	<path class="st4" d="M479.7,113c1.1,3.9,3.9,9.6,6.1,13.8l0,0c0.7,1,1.8,1.6,3.1,1.6c1.4,0,2.6-0.7,3.2-1.8l0,0
		c2.2-4.2,4.9-9.8,6-13.6H479.7z"/>
</g>
<g>
	<rect x="487.7" y="77.2" class="st0" width="3.1" height="26.1"/>
</g>
<g>
	<rect x="486" y="84.2" class="st4" width="6.1" height="8"/>
</g>
<g>
	<rect x="484" y="89.2" class="st1" width="5" height="1"/>
</g>
<g>
	<path class="st1" d="M489,132.9c-1.6,0-3.1-0.7-4.1-1.9l-0.1,0.1l-0.3-0.5c-4-7.6-8.7-17.6-8.7-22c0-5.2,3-9.8,7.7-12v-6.4h-0.8
		c-1,0-1.8-0.8-1.8-1.8c0-1,0.8-1.8,1.8-1.8h12.5c1,0,1.8,0.8,1.8,1.8c0,1-0.8,1.8-1.8,1.8h-0.8v6.4c4.7,2.1,7.7,6.8,7.7,12
		c0,4.3-4.6,14.2-8.5,21.8l-0.2,0.4l-0.1,0C492.3,132.1,490.7,132.9,489,132.9z M485.1,129.8l0.2,0.3c0.8,1.2,2.2,1.9,3.6,1.9
		c1.5,0,3-0.8,3.8-2.1l0.1-0.2c5.4-10.4,8.3-17.8,8.3-21c0-4.9-2.9-9.3-7.4-11.2l-0.3-0.1v-8h1.7c0.4,0,0.8-0.4,0.8-0.8
		s-0.4-0.8-0.8-0.8h-12.5c-0.4,0-0.8,0.4-0.8,0.8s0.4,0.8,0.8,0.8h1.7v8l-0.3,0.1c-4.5,1.9-7.4,6.3-7.4,11.2
		C476.8,111.8,479.7,119.3,485.1,129.8z"/>
</g>
<g>
	<path class="st0" d="M493.5,54.9c0-0.7-0.6-1.3-1.3-1.3c0.7,0,1.3-0.6,1.3-1.3c0-0.7-0.6-1.3-1.3-1.3h-6c-0.7,0-1.3,0.6-1.3,1.3
		c0,0.7,0.6,1.3,1.3,1.3l0,0c-0.7,0-1.3,0.6-1.3,1.3c0,0.7,0.6,1.3,1.3,1.3l0,0c-0.7,0-1.3,0.6-1.3,1.3c0,0.7,0.6,1.3,1.3,1.3
		c-0.7,0-1.3,0.6-1.3,1.3c0,0.7,0.6,1.3,1.3,1.3c-0.7,0-1.3,0.6-1.3,1.3c0,0.7,0.6,1.3,1.3,1.3l0,0c-0.7,0-1.3,0.6-1.3,1.3
		c0,0.7,0.6,1.3,1.3,1.3l0,0c-0.7,0-1.3,0.6-1.3,1.3c0,0.7,0.6,1.3,1.3,1.3c-0.7,0-1.3,0.6-1.3,1.3c0,0.7,0.6,1.3,1.3,1.3
		c-0.7,0-1.3,0.6-1.3,1.3c0,0.7,0.6,1.3,1.3,1.3l0,0c-0.7,0-1.3,0.6-1.3,1.3c0,0.7,0.6,1.3,1.3,1.3h6c0.7,0,1.3-0.6,1.3-1.3
		c0-0.7-0.6-1.3-1.3-1.3c0.7,0,1.3-0.6,1.3-1.3c0-0.7-0.6-1.3-1.3-1.3c0.7,0,1.3-0.6,1.3-1.3c0-0.7-0.6-1.3-1.3-1.3h0
		c0.7,0,1.3-0.6,1.3-1.3c0-0.7-0.6-1.3-1.3-1.3h0c0.7,0,1.3-0.6,1.3-1.3c0-0.7-0.6-1.3-1.3-1.3c0.7,0,1.3-0.6,1.3-1.3
		c0-0.7-0.6-1.3-1.3-1.3c0.7,0,1.3-0.6,1.3-1.3c0-0.7-0.6-1.3-1.3-1.3c0.7,0,1.3-0.6,1.3-1.3c0-0.7-0.6-1.3-1.3-1.3
		C492.9,56.2,493.5,55.7,493.5,54.9z"/>
</g>
<g>
	<rect x="487.7" y="41.9" class="st0" width="3.1" height="9.1"/>
</g>
<g>
	<g>
		<path class="st0" d="M521.9,77.9h-2.4V15.8c0-1.7-1.3-3-3-3c-0.8,0-2.2,1-2.9,1.7l-21.7,21.7l-1.7-1.7L512,12.9
			c0.4-0.4,2.5-2.4,4.5-2.4c3,0,5.4,2.4,5.4,5.4V77.9z"/>
	</g>
</g>
<g>
	<rect x="517.7" y="72.6" class="st4" width="5.5" height="7.3"/>
</g>
<g>
	<path class="st1" d="M492.4,42.5h-6.9V41c0-4.7,2.6-7.5,3.1-8l7.1-7.1l4.9,4.9l-7.1,7.1c-0.1,0.1-1.1,1.2-1.1,3.1V42.5z"/>
</g>
<g>
	<path class="st4" d="M525.7,117.4V78h1c0.7,0,1.3-0.6,1.3-1.3c0-0.7-0.6-1.3-1.3-1.3h-1h-10.6h-1c-0.7,0-1.3,0.6-1.3,1.3
		c0,0.7,0.6,1.3,1.3,1.3h1v39.5c-7.2,2.3-12.4,9-12.4,16.9c0,9.8,7.9,17.7,17.7,17.7c9.8,0,17.7-7.9,17.7-17.7
		C538.1,126.4,532.9,119.7,525.7,117.4z"/>
</g>
<g>
	<g>
		<ellipse class="st1" cx="512.4" cy="136.5" rx="7.1" ry="1.5"/>
	</g>
	<g>
		<path class="st2" d="M535.4,136.7c0.1-0.4,0.1-0.9,0.1-1.3c-1.9-1-3.9-1.9-7.7-1.9c-3.6,0-5.6,0.8-7.4,1.8
			c-2.3,1.2-4.3,2.6-8.9,2.6c-2.7,0-4.6-0.5-6.1-1.1c0,0-0.1,0-0.1-0.1c1,7.4,7.4,13.2,15.1,13.2c0,0,0,0,0.1,0c0,0,0,0,0.1,0
			c7.7,0,14.1-5.7,15.1-13.2C535.5,136.6,535.5,136.7,535.4,136.7z"/>
	</g>
</g>
<g>
	<rect x="518.6" y="115" class="st2" width="3.6" height="4.4"/>
</g>
<g>
	<rect x="517.7" y="72.6" class="st1" width="5.5" height="2.7"/>
</g>
<g>
	<path class="st1" d="M524.5,63.3h-8.1v-2.8c-1.3-1.2-2-2.8-2-4.5V27c0-1.7,0.7-3.4,2-4.5v-2.8h8.1v2.8c1.3,1.2,2,2.8,2,4.5v29
		c0,1.7-0.7,3.4-2,4.5V63.3z M517.4,62.3h6.2V60l0.2-0.1c1.2-1,1.9-2.4,1.9-3.9V27c0-1.5-0.7-3-1.9-3.9l-0.2-0.1v-2.3h-6.2v2.3
		l-0.2,0.1c-1.2,1-1.9,2.4-1.9,3.9v29c0,1.5,0.7,3,1.9,3.9l0.2,0.1V62.3z"/>
</g>
<g>
	<rect x="512.8" y="33.9" class="st1" width="48.5" height="2.9"/>
</g>
<g>
	<rect x="528.4" y="33.9" class="st1" width="1" height="2.9"/>
</g>
<g>
	<rect x="546.7" y="25.4" class="st4" width="2.9" height="152"/>
</g>
<g>
	<rect x="544.3" y="31.6" class="st1" width="7.6" height="7.6"/>
</g>
<g>
	<circle class="st2" cx="548.1" cy="35.4" r="1.5"/>
</g>
<g>
	<g>
		<path class="st1" d="M402.2,179.2v1.7h17.8v-1.7l-0.1,0c-2.7-1.1-5.7-1.8-8.9-1.8C408,177.4,405,178,402.2,179.2L402.2,179.2z"/>
	</g>
</g>
<g>
	<rect x="544.3" y="80.4" class="st1" width="7.6" height="7.6"/>
</g>
<g>
	<rect x="516.9" y="22.2" class="st1" width="7.1" height="1"/>
</g>
<g>
	<path class="st4" d="M516.3,41.2v13c0,2.2,1.8,4.1,4.1,4.1h0.1c2.2,0,4.1-1.8,4.1-4.1v-13H516.3z"/>
</g>
<g>
	<rect x="519.1" y="53.6" class="st4" width="2.6" height="6.5"/>
</g>
<g>
	<rect x="516.9" y="59.8" class="st1" width="7.1" height="1"/>
</g>
<g>
	<path class="st4" d="M517.8,161.3c0-1.4,2.6-6,2.6-6s2.6,4.6,2.6,6s-1.2,2.6-2.6,2.6C518.9,163.9,517.8,162.7,517.8,161.3z"/>
</g>
<g>
	<circle class="st2" cx="520.4" cy="161.3" r="1.7"/>
</g>
<g>
	<rect x="510.6" y="176.8" class="st0" width="19.6" height="4.5"/>
</g>
<g>
	<rect x="517" y="172.7" class="st0" width="7" height="5"/>
</g>
<g>
	<rect x="518.3" y="167.1" class="st1" width="4.3" height="5.6"/>
</g>
<g>
	<rect x="523.9" y="173.4" class="st1" width="2.3" height="2.3"/>
</g>
<g>
	<path class="st1" d="M528.2,130.7c-1,0-1.8-0.8-1.8-1.8c0-1,0.8-1.8,1.8-1.8c1,0,1.8,0.8,1.8,1.8
		C530,129.9,529.2,130.7,528.2,130.7z M528.2,128c-0.5,0-0.9,0.4-0.9,0.9c0,0.5,0.4,0.9,0.9,0.9c0.5,0,0.9-0.4,0.9-0.9
		C529.1,128.4,528.7,128,528.2,128z"/>
</g>
<g>
	<circle class="st1" cx="523.1" cy="127.4" r="1.6"/>
</g>
<g>
	<circle class="st1" cx="527.2" cy="123" r="1"/>
</g>
<g>
	<path class="st4" d="M695.4,57.4h-21.6v0c-5.2-0.4-9.2-4.7-9.2-10c0-5.5,4.5-10.1,10.1-10.1c0.5,0,1.1,0,1.6,0.1
		c1.3-4.2,5.2-7,9.6-7c3.1,0,6,1.4,7.9,3.8c0.6-0.1,1.2-0.1,1.7-0.1c6.4,0,11.7,5.2,11.7,11.7C707.1,52.2,701.8,57.4,695.4,57.4z
		 M674.8,56.4h20.7c5.9,0,10.7-4.8,10.7-10.7c0-5.9-4.8-10.7-10.7-10.7c-0.6,0-1.2,0.1-1.8,0.2l-0.3,0l-0.2-0.2
		c-1.7-2.3-4.4-3.7-7.3-3.7c-4.1,0-7.7,2.8-8.8,6.8l-0.1,0.4l-0.4-0.1c-0.6-0.1-1.3-0.2-1.9-0.2c-5,0-9.1,4.1-9.1,9.1
		c0,4.9,3.8,8.9,8.7,9.1L674.8,56.4z"/>
</g>
<g>
	<g>
		<g>
			<g>
				<path class="st2" d="M95.6,166.5c-1.6,0-2.9-1.3-2.9-2.9s1.3-2.9,2.9-2.9c1.6,0,2.9,1.3,2.9,2.9S97.2,166.5,95.6,166.5z
					 M95.6,162.6c-0.6,0-1,0.5-1,1s0.5,1,1,1c0.6,0,1-0.5,1-1S96.2,162.6,95.6,162.6z"/>
			</g>
		</g>
		<g>
			<g>
				<rect x="95.6" y="160.7" class="st2" width="5.8" height="1.9"/>
			</g>
		</g>
		<g>
			<g>
				<rect x="95.6" y="164.7" class="st2" width="6.8" height="1.9"/>
			</g>
		</g>
	</g>
	<g>
		<g>
			<path class="st1" d="M93.1,110.6c-8.1,0-14.7-6.6-14.7-14.7c0-8.1,6.6-14.7,14.7-14.7c8.1,0,14.7,6.6,14.7,14.7
				c0-13.1-10.7-23.8-23.8-23.8S60.2,82.8,60.2,95.9c0,13.1,10.7,23.8,23.8,23.8s23.8-10.7,23.8-23.8v0
				C107.8,104,101.2,110.6,93.1,110.6z"/>
		</g>
	</g>
	<g>
		<path class="st2" d="M109.6,123.1l-2-29.1l-0.1-0.1c-0.7-5.9-6-20-19.6-20c-9,0-16.3,7.3-16.3,16.3c0,5.2,2.5,9.9,6.3,12.9h-6.6
			c-2.6,0-4.7,2.1-4.7,4.7c0,2.5,2,4.6,4.5,4.7v26.2h20.5v-11.4c0,0,14.1,0,14.2,0C108,127,109.6,125.2,109.6,123.1L109.6,123.1
			L109.6,123.1z"/>
		<path class="st1" d="M92.2,139.1H70.7v-26.3c-2.6-0.3-4.5-2.5-4.5-5.1c0-2.9,2.3-5.2,5.2-5.2h5.3c-3.5-3.2-5.5-7.6-5.5-12.4
			c0-9.2,7.5-16.8,16.8-16.8c14.3,0,19.4,14.9,20.1,20.3l0.1,0.1l2,29.3c0,2.4-1.8,4.3-4.1,4.6c0,0-0.1,0-3.8,0c-3.5,0-8.4,0-10,0
			V139.1z M71.7,138.1h19.6v-11.4l0.5,0c0,0,6.3,0,10.5,0c3.1,0,3.7,0,3.7,0c1.8-0.2,3.3-1.7,3.3-3.6l-2-28.9l-0.1-0.1l0-0.1
			c-0.6-5.1-5.4-19.6-19.2-19.6c-8.7,0-15.8,7.1-15.8,15.8c0,4.9,2.2,9.5,6.1,12.5l1.1,0.9h-8c-2.3,0-4.2,1.9-4.2,4.2
			c0,2.3,1.8,4.1,4.1,4.2l0.5,0V138.1z"/>
	</g>
	<g>
		<path class="st1" d="M94.8,107.7c0.2,2.8,2.5,5,5.3,5c2.8,0,5.2-2.2,5.3-5H94.8z"/>
	</g>
	<g>
		<path class="st1" d="M101.5,80.5c-0.6-0.9-1.2-1.7-1.9-2.4c-3.4-2.6-7.7-4.2-12.5-4.2C76.5,73.8,68,81.6,68,91.2
			c0,2.7,0.7,5.2,1.9,7.4c8.9-1.2,16.3-7.3,19.3-15.5c4.2,1.7,9.1,1.8,13.6-0.1c0.2-0.1,0.5-0.2,0.7-0.3
			C103.2,81.6,102.1,81.3,101.5,80.5z"/>
	</g>
	<g>
		<rect x="77.8" y="171" transform="matrix(0.7068 -0.7074 0.7074 0.7068 -99.2711 106.0083)" class="st1" width="1" height="3.5"/>
	</g>
	<g>
		<g>
			<g>
				<rect x="96.9" y="147.4" class="st1" width="1" height="10.9"/>
			</g>
			<g>
				<path class="st2" d="M57,143.9c0.1-5.3,4.3-9.5,9.6-9.6l0-0.1H97c7,0,12.6,5.7,12.6,12.6v-9.6c0-5.4,4.4-9.8,9.8-9.8v9.8v21
					h-9.5v52.4H57v-52.4V144L57,143.9L57,143.9z"/>
				<path class="st1" d="M110.4,211.1H56.6v-67.9l0,0c0.4-5.1,4.4-9.2,9.6-9.5l0-0.1H97c5.5,0,10.2,3.4,12.2,8.2v-4.7
					c0-5.7,4.6-10.3,10.3-10.3h0.5v31.8h-9.5V211.1z M57.5,210.2h51.9v-52.4h9.5V128c-4.9,0.3-8.8,4.3-8.8,9.3v9.6h-1
					c0-6.7-5.5-12.2-12.2-12.2H67.1l0,0l-0.4,0c-5,0.1-9,4.1-9.1,9.1l0,0.2V210.2z"/>
			</g>
			<g>
				<rect x="102.5" y="157.8" class="st1" width="7.4" height="1"/>
			</g>
			<g>
				<polygon class="st1" points="68.1,180.8 57,180.8 57,179.9 67.2,179.9 67.2,158.3 68.1,158.3 				"/>
			</g>
			<g>
				<rect x="105.4" y="158.3" class="st1" width="1" height="52.4"/>
			</g>
			<g>
				<g>
					<g>
						<path class="st1" d="M98.2,198.3c1.8,0,3.3,1.5,3.3,3.3c0,1.8-1.5,3.2-3.3,3.2c-1.8,0-3.2-1.5-3.2-3.2
							C94.9,199.7,96.4,198.3,98.2,198.3z M98.2,199.3c-1.2,0-2.2,1-2.2,2.2c0,1.2,1,2.2,2.2,2.2c1.2,0,2.2-1,2.2-2.2
							C100.4,200.3,99.4,199.3,98.2,199.3z"/>
					</g>
				</g>
				<g>
					<g>
						<path class="st1" d="M98.2,189.9c1.8,0,3.3,1.5,3.3,3.3c0,1.8-1.5,3.2-3.3,3.2c-1.8,0-3.2-1.5-3.2-3.2
							C94.9,191.4,96.4,189.9,98.2,189.9z M98.2,191c-1.2,0-2.2,1-2.2,2.2c0,1.2,1,2.2,2.2,2.2c1.2,0,2.2-1,2.2-2.2
							C100.4,192,99.4,191,98.2,191z"/>
					</g>
				</g>
			</g>
			<g>
				<rect x="89.1" y="210.7" class="st1" width="17.4" height="20.6"/>
			</g>
			<g>
				<rect x="64.4" y="210.7" class="st1" width="17.4" height="20.6"/>
			</g>
		</g>
	</g>
	<g>
		<g>
			<rect x="76" y="174" class="st0" width="3.7" height="3.3"/>
		</g>
		<g>
			<rect x="70.2" y="176.9" class="st1" width="12.4" height="1"/>
		</g>
		<g>
			<rect x="70.2" y="179.4" class="st1" width="12.4" height="1"/>
		</g>
		<g>
			<circle class="st0" cx="77.8" cy="174" r="1.9"/>
		</g>
		<g>
			<path class="st0" d="M76.9,174c0,0.5,0.4,1,1,1l0,0c0.5,0,1-0.4,1-1v-3.5c0-0.5-0.4-1-1-1l0,0c-0.5,0-1,0.4-1,1V174z"/>
		</g>
		<g>
			<polygon class="st4" points="77.1,178.5 77.1,173.4 78.5,173.4 78.5,178.5 79.2,178.5 79.2,183.9 76.4,183.9 76.4,178.5 			"/>
		</g>
	</g>
	<g>
		<g>
			<rect x="85.4" y="155.6" class="st4" width="13.8" height="9.2"/>
		</g>
		<g>
			<rect x="89.8" y="154.2" class="st1" width="5.1" height="2.7"/>
		</g>
	</g>
	<g>
		<rect x="92.3" y="158" class="st2" width="5.2" height="4.5"/>
	</g>
	<g>
		<g>
			<g>
				<path class="st1" d="M65.4,194.2l0-6.5h0v-2.9c0,0,0,0,0-0.1c0-0.1,0.1-0.2,0.2-0.2c0.1,0,0.2,0.1,0.2,0.2h0v5.4
					c0,0.5,0.4,0.9,0.9,0.9c0.5,0,0.9-0.4,0.9-0.9v-5.4l0-1.9v-2.6l-2.2,0l-8.2,0v5.8v1.6v4.2c0,0.5,0.4,0.9,0.9,0.9
					c0.5,0,0.9-0.4,0.9-0.9v-4.2c0,0,0,0,0,0c0-0.1,0.1-0.2,0.2-0.2c0.1,0,0.2,0.1,0.2,0.2l0,0h0l0,6.6c0,0.5,0.4,0.9,0.9,0.9
					c0.5,0,0.9-0.4,0.9-0.9v-6.6h0l0,0c0-0.1,0.1-0.2,0.2-0.2s0.2,0.1,0.2,0.2l0,0h0l0,8.8c0,0.5,0.4,0.9,0.9,0.9
					c0.5,0,0.9-0.4,0.9-0.9v-8.8h0l0,0c0-0.1,0.1-0.2,0.2-0.2s0.2,0.1,0.2,0.2l0,0h0l0,6.5"/>
			</g>
		</g>
	</g>
	<g>
		<circle class="st1" cx="64.5" cy="194.2" r="0.9"/>
	</g>
</g>
<g>
	<g>
		<path class="st2" d="M427.3,137.8c-0.5,0-0.9-0.1-1.3-0.5c-0.9-0.9-0.5-2.1,0-3.1c-1,0.5-2.2,0.9-3.1,0c-0.9-0.9-0.5-2.1,0-3.1
			c-1,0.5-2.2,0.9-3.1,0c-0.9-0.9-0.5-2.1,0-3.1c-1,0.5-2.2,0.9-3.1,0c-0.9-0.9-0.5-2.1,0-3.1c-1,0.5-2.2,0.9-3.1,0
			c-0.9-0.9-0.5-2.1,0-3.1c-1,0.5-2.2,0.9-3.1,0c-0.9-0.9-0.5-2.1,0-3.1c-1,0.5-2.2,0.9-3.1,0c-0.9-0.9-0.5-2.1,0-3.1
			c-1,0.5-2.2,0.9-3.1,0c-0.9-0.9-0.5-2.1,0-3.1c-1,0.5-2.2,0.9-3.1,0c-0.9-0.9-0.5-2.1,0-3.1c-1,0.5-2.2,0.9-3.1,0
			c-0.9-0.9-0.5-2.1,0-3.1c-1,0.5-2.2,0.9-3.1,0c-0.9-0.9-0.5-2.1,0-3.1c-1,0.5-2.2,0.9-3.1,0c-1.1-1.1-0.3-2.6,0.3-3.7
			c0.2-0.4,0.5-0.9,0.6-1.1c0,0.1,0,0.4,0.3,0.6l1.9-1.9c0.9,0.9,0.5,2.1,0,3.1c1-0.5,2.2-0.9,3.1,0c0.9,0.9,0.5,2.1,0,3.1
			c1-0.5,2.2-0.9,3.1,0c0.9,0.9,0.5,2.1,0,3.1c1-0.5,2.2-0.9,3.1,0c0.9,0.9,0.5,2.1,0,3.1c1-0.5,2.2-0.9,3.1,0
			c0.9,0.9,0.5,2.1,0,3.1c1-0.5,2.2-0.9,3.1,0c0.9,0.9,0.5,2.1,0,3.1c1-0.5,2.2-0.9,3.1,0c0.9,0.9,0.5,2.1,0,3.1
			c1-0.5,2.2-0.9,3.1,0c0.9,0.9,0.5,2.1,0,3.1c1-0.5,2.2-0.9,3.1,0c0.9,0.9,0.5,2.1,0,3.1c1-0.5,2.2-0.9,3.1,0
			c0.9,0.9,0.5,2.1,0,3.1c1-0.5,2.2-0.9,3.1,0c0.9,0.9,0.5,2.1,0,3.1c1-0.5,2.2-0.9,3.1,0c0.9,0.9,0.5,2.1,0,3.1c1-0.5,2.2-1,3.1,0
			l-1.9,1.9c0.2,0.2,0.5,0.3,0.6,0.2c-0.2,0-0.8,0.4-1.1,0.6C429,137.3,428.1,137.8,427.3,137.8z"/>
	</g>
</g>
<g>
	<path class="st2" d="M523.7,92.3c0-0.5-0.4-1-1-1c0.5,0,1-0.4,1-1c0-0.5-0.4-1-1-1h-1.1v-7.9v-2.9h-2.3v10.8h-1.1c-0.5,0-1,0.4-1,1
		c0,0.5,0.4,1,1,1h0c-0.5,0-1,0.4-1,1s0.4,1,1,1h0c-0.5,0-1,0.4-1,1c0,0.5,0.4,1,1,1c-0.5,0-1,0.4-1,1c0,0.5,0.4,1,1,1
		c-0.5,0-1,0.4-1,1c0,0.5,0.4,1,1,1c-0.5,0-1,0.4-1,1c0,0.5,0.4,1,1,1c-0.5,0-1,0.4-1,1c0,0.5,0.4,1,1,1c-0.5,0-1,0.4-1,1
		c0,0.5,0.4,1,1,1c-0.5,0-1,0.4-1,1c0,0.5,0.4,1,1,1h0c-0.5,0-1,0.4-1,1c0,0.5,0.4,1,1,1h0c-0.5,0-1,0.4-1,1c0,0.5,0.4,1,1,1
		c-0.5,0-1,0.4-1,1c0,0.5,0.4,1,1,1h0c-0.5,0-1,0.4-1,1c0,0.5,0.4,1,1,1h4.5c0.5,0,1-0.4,1-1c0-0.5-0.4-1-1-1c0.5,0,1-0.4,1-1
		c0-0.5-0.4-1-1-1c0.5,0,1-0.4,1-1c0-0.5-0.4-1-1-1c0.5,0,1-0.4,1-1c0-0.5-0.4-1-1-1c0.5,0,1-0.4,1-1c0-0.5-0.4-1-1-1
		c0.5,0,1-0.4,1-1c0-0.5-0.4-1-1-1c0.5,0,1-0.4,1-1c0-0.5-0.4-1-1-1c0.5,0,1-0.4,1-1c0-0.5-0.4-1-1-1c0.5,0,1-0.4,1-1
		c0-0.5-0.4-1-1-1c0.5,0,1-0.4,1-1c0-0.5-0.4-1-1-1c0.5,0,1-0.4,1-1c0-0.5-0.4-1-1-1C523.2,93.3,523.7,92.9,523.7,92.3z"/>
</g>
<g>
	<rect x="512.8" y="82.7" class="st1" width="48.5" height="2.9"/>
</g>
<g>
	<rect x="528.4" y="82.7" class="st1" width="1" height="2.9"/>
</g>
<g>
	<rect x="515.1" y="77.8" class="st1" width="7.3" height="1"/>
</g>
<g>
	
		<rect x="430.3" y="135.7" transform="matrix(0.7071 -0.7071 0.7071 0.7071 28.6251 345.6857)" class="st1" width="2.7" height="5.1"/>
</g>
<g>
	<path class="st1" d="M373.7,103.7H371V90.3c0-3.3,2.7-5.9,5.9-5.9c1.8,0,3.5,0.8,4.6,2.2l12.1,12.1l-1.9,1.9l-12.8-12.8
		c-0.6-0.4-1.2-0.6-1.9-0.6c-1.8,0-3.2,1.4-3.2,3.2L373.7,103.7z"/>
</g>
<g>
	<rect x="434.7" y="168.1" class="st0" width="8.6" height="7.6"/>
</g>
<g>
	<rect x="459.8" y="168.1" class="st1" width="8.6" height="7.6"/>
</g>
<g>
	<rect x="484.5" y="168.1" class="st4" width="8.6" height="7.6"/>
</g>
<g>
	<circle class="st2" cx="548.1" cy="84.2" r="1.5"/>
</g>
<g>
	<rect x="546.7" y="111.4" class="st1" width="36.2" height="72.6"/>
</g>
<g>
	<rect x="564.8" y="111.4" class="st4" width="18.1" height="69.4"/>
</g>
<g>
	<g>
		<g>
			<path class="st4" d="M561.6,121.9c0,0.6-0.5,1.2-1.2,1.2h-9.7c-0.6,0-1.2-0.5-1.2-1.2l0,0c0-0.6,0.5-1.2,1.2-1.2h9.7
				C561.1,120.8,561.6,121.3,561.6,121.9L561.6,121.9z"/>
		</g>
	</g>
	<g>
		<g>
			<path class="st4" d="M561.6,126.8c0,0.6-0.5,1.2-1.2,1.2h-9.7c-0.6,0-1.2-0.5-1.2-1.2l0,0c0-0.6,0.5-1.2,1.2-1.2h9.7
				C561.1,125.6,561.6,126.2,561.6,126.8L561.6,126.8z"/>
		</g>
	</g>
	<g>
		<g>
			<path class="st4" d="M561.6,131.7c0,0.6-0.5,1.2-1.2,1.2h-9.7c-0.6,0-1.2-0.5-1.2-1.2l0,0c0-0.6,0.5-1.2,1.2-1.2h9.7
				C561.1,130.5,561.6,131.1,561.6,131.7L561.6,131.7z"/>
		</g>
	</g>
</g>
<g>
	<circle class="st2" cx="573.8" cy="123.4" r="4.6"/>
</g>
<g>
	<g>
		<rect x="573.4" y="120.9" class="st0" width="0.9" height="2.5"/>
	</g>
</g>
<g>
	<g>
		<rect x="573.5" y="122.9" class="st0" width="2.5" height="0.9"/>
	</g>
</g>
<g>
	<g>
		<path class="st1" d="M568.8,134.4c-1,0-1.8-0.8-1.8-1.8c0-1,0.8-1.8,1.8-1.8c1,0,1.8,0.8,1.8,1.8
			C570.7,133.6,569.8,134.4,568.8,134.4z M568.8,131.7c-0.5,0-0.9,0.4-0.9,0.9c0,0.5,0.4,0.9,0.9,0.9c0.5,0,0.9-0.4,0.9-0.9
			C569.7,132.1,569.3,131.7,568.8,131.7z"/>
	</g>
	<g>
		<path class="st1" d="M573.8,134.4c-1,0-1.8-0.8-1.8-1.8c0-1,0.8-1.8,1.8-1.8c1,0,1.8,0.8,1.8,1.8
			C575.7,133.6,574.8,134.4,573.8,134.4z M573.8,131.7c-0.5,0-0.9,0.4-0.9,0.9c0,0.5,0.4,0.9,0.9,0.9c0.5,0,0.9-0.4,0.9-0.9
			C574.7,132.1,574.3,131.7,573.8,131.7z"/>
	</g>
	<g>
		<circle class="st2" cx="578.8" cy="132.6" r="1.4"/>
	</g>
</g>
<g>
	<g>
		<path class="st1" d="M568.8,141c-1,0-1.8-0.8-1.8-1.8c0-1,0.8-1.8,1.8-1.8c1,0,1.8,0.8,1.8,1.8C570.7,140.1,569.8,141,568.8,141z
			 M568.8,138.2c-0.5,0-0.9,0.4-0.9,0.9c0,0.5,0.4,0.9,0.9,0.9c0.5,0,0.9-0.4,0.9-0.9C569.7,138.6,569.3,138.2,568.8,138.2z"/>
	</g>
	<g>
		<path class="st1" d="M573.8,141c-1,0-1.8-0.8-1.8-1.8c0-1,0.8-1.8,1.8-1.8c1,0,1.8,0.8,1.8,1.8C575.7,140.1,574.8,141,573.8,141z
			 M573.8,138.2c-0.5,0-0.9,0.4-0.9,0.9c0,0.5,0.4,0.9,0.9,0.9c0.5,0,0.9-0.4,0.9-0.9C574.7,138.6,574.3,138.2,573.8,138.2z"/>
	</g>
	<g>
		<circle class="st2" cx="578.8" cy="139.1" r="1.4"/>
	</g>
</g>
<g>
	<g>
		<path class="st1" d="M568.8,147c-1,0-1.8-0.8-1.8-1.8s0.8-1.8,1.8-1.8c1,0,1.8,0.8,1.8,1.8S569.8,147,568.8,147z M568.8,144.2
			c-0.5,0-0.9,0.4-0.9,0.9c0,0.5,0.4,0.9,0.9,0.9c0.5,0,0.9-0.4,0.9-0.9C569.7,144.6,569.3,144.2,568.8,144.2z"/>
	</g>
	<g>
		<path class="st1" d="M573.8,147c-1,0-1.8-0.8-1.8-1.8s0.8-1.8,1.8-1.8c1,0,1.8,0.8,1.8,1.8S574.8,147,573.8,147z M573.8,144.2
			c-0.5,0-0.9,0.4-0.9,0.9c0,0.5,0.4,0.9,0.9,0.9c0.5,0,0.9-0.4,0.9-0.9C574.7,144.6,574.3,144.2,573.8,144.2z"/>
	</g>
	<g>
		<circle class="st2" cx="578.8" cy="145.1" r="1.4"/>
	</g>
</g>
<g>
	<rect x="567.2" y="154.3" class="st0" width="13.3" height="20.3"/>
</g>
<g>
	<g>
		<g>
			<polygon class="st5" points="571.5,172.6 568.7,165.4 569.5,165.1 571.2,169.7 573.7,154.9 575.8,169.1 578.9,160.3 579.6,160.5 
				575.4,172.3 573.7,159.9 			"/>
		</g>
	</g>
	<g>
		<g>
			<g>
				
					<ellipse transform="matrix(0.9331 -0.3596 0.3596 0.9331 -21.3561 215.727)" class="st5" cx="569.1" cy="165.3" rx="0.9" ry="0.9"/>
			</g>
		</g>
	</g>
	<g>
		<g>
			<g>
				
					<ellipse transform="matrix(0.3351 -0.9422 0.9422 0.3351 233.9797 652.4481)" class="st5" cx="579.3" cy="160.4" rx="0.9" ry="0.9"/>
			</g>
		</g>
	</g>
</g>
<g>
	<g>
		<g>
			<g>
				<circle class="st0" cx="621.7" cy="102.7" r="23.8"/>
			</g>
			<g>
				<g>
					<path class="st0" d="M598,145.9v-42.6l31.1,19.7v28h-36.2C595.7,151,598,148.7,598,145.9z"/>
				</g>
				<g>
					<path class="st1" d="M599.7,109.7c0.6-1.1,1.5-2.1,2.5-2.9c0.2-0.1,0.4-0.3,0.5-0.4c-0.3-1.5-0.5-3-0.5-4.6
						c0-11.1,9-20.2,20.2-20.2c11.1,0,15.6,9,15.6,20.2V114h2c2.7,0,4.8,2.2,4.8,4.8c0,2.7-1.4,4.8-4.1,4.8H638v7.1v1.2v28.8h-21.2
						v-25.5c0-2.5-2-4.4-4.4-4.4h-9.9l-3.7-17.3C598.8,112.1,599.1,110.8,599.7,109.7z"/>
				</g>
				<g>
					<path class="st2" d="M614.8,115c-0.2,2.8-2.5,5-5.3,5c-2.8,0-5.2-2.2-5.3-5H614.8z"/>
				</g>
				<g>
					<path class="st0" d="M598.9,95.9c2.9-9.8,12-17,22.8-17c13.1,0,23.8,10.7,23.8,23.8c0,1.7-0.2,3.4-0.5,5c-3.3,1.7-7,2.7-11,2.7
						c-10.5,0-19.5-6.9-22.6-16.4c-3,1.3-6.2,2.1-9.7,2.1C600.8,96.1,599.8,96,598.9,95.9z"/>
				</g>
				<g>
					<g>
						<path class="st1" d="M586.7,142.4h0.8v0l0,0c0.1,0,0.3,0.1,0.3,0.2c0,0.1-0.1,0.2-0.2,0.2h0l0,0h-1.1c-0.5,0-1,0.4-1,1
							c0,0.5,0.4,1,1,1h1.1v0l0,0c0.1,0,0.3,0.1,0.3,0.2c0,0.1-0.1,0.2-0.2,0.2c0,0,0,0,0,0h-1.1c-0.5,0-1,0.4-1,1c0,0.5,0.4,1,1,1
							h1.1h1.9h6.6v-9.4v-2.5h-3h-2.1h-3.4c-0.5,0-1,0.4-1,1c0,0.5,0.4,1,1,1h3.4v0c0.1,0,0.2,0.1,0.2,0.2c0,0.1-0.1,0.2-0.2,0.2
							c0,0,0,0-0.1,0h-3.3v0h-5.2v0h-3.1c-0.5,0-1,0.4-1,1c0,0.5,0.4,1,1,1h3.1h1.6h3.6v0l0,0c0.1,0,0.3,0.1,0.3,0.2
							c0,0.1-0.1,0.2-0.2,0.2l0,0v0h-0.8c-0.5,0-1,0.4-1,1C585.7,142,586.1,142.4,586.7,142.4z"/>
					</g>
				</g>
				<g>
					<rect x="615" y="153.4" class="st1" width="1" height="9.6"/>
				</g>
				<g>
					<path class="st2" d="M618.1,109.3h-0.9c0-1.1-0.9-2-2-2c-1.1,0-2,0.9-2,2h-0.9c0-1.6,1.3-2.9,2.9-2.9
						C616.7,106.4,618.1,107.7,618.1,109.3z"/>
				</g>
				<g>
					<path class="st2" d="M650.8,150.3c-0.1-4.6-3.8-8.3-8.4-8.4l0,0h-26.5c-6.1,0-11.1,5-11.1,11.1v-8.4c0-4.7-3.8-8.6-8.6-8.6v8.6
						v18.4h8.3v45.8h46.3v-45.8v-12.5L650.8,150.3L650.8,150.3z"/>
					<path class="st1" d="M651.2,209.2H604v-45.8h-8.3v-27.9h0.5c5,0,9,4.1,9,9v3.8c1.8-4.1,5.9-6.9,10.6-6.9h27l0,0.1
						c4.5,0.3,8.1,3.8,8.4,8.3l0,0l0,0.7V209.2z M605,208.2h45.3v-57.8l0-0.2c-0.1-4.4-3.5-7.9-7.9-7.9l-0.4,0l0,0h-26.1
						c-5.8,0-10.6,4.7-10.6,10.6h-1v-8.4c0-4.3-3.4-7.8-7.6-8.1v26h8.3V208.2z"/>
				</g>
				<g>
					<path class="st0" d="M621.6,145.9v-44.1h23.9v44.6c0,2.5-2,4.6-4.6,4.6h-24.4C619.3,151,621.6,148.7,621.6,145.9z"/>
				</g>
				<g>
					<rect x="604.5" y="162.4" class="st1" width="6.5" height="1"/>
				</g>
			</g>
		</g>
	</g>
</g>
<g>
	<g>
		<g>
			<path class="st1" d="M579.8,111.4h-1v-7.9c0-1-2.8-7.6-4.6-11.5l0.9-0.4c0.5,1.1,4.6,10.3,4.6,11.9V111.4z"/>
		</g>
		<g>
			<path class="st1" d="M569.7,111.4h-1v-7.9c0-1.6,4.2-10.8,4.6-11.9l0.9,0.4c-1.8,3.9-4.6,10.5-4.6,11.5V111.4z"/>
		</g>
		<g>
			<rect x="573.8" y="91.7" class="st1" width="1" height="19.6"/>
		</g>
	</g>
	<g>
		<rect x="577.7" y="109.4" class="st0" width="3.3" height="1.9"/>
	</g>
	<g>
		<rect x="572.6" y="109.4" class="st0" width="3.3" height="1.9"/>
	</g>
	<g>
		<rect x="567.6" y="109.4" class="st0" width="3.3" height="1.9"/>
	</g>
</g>
<g>
	<rect x="572.8" y="60.8" class="st0" width="3.1" height="31.5"/>
</g>
<g>
	<path class="st1" d="M462.6,162.5c0-1.2,0.9-2.1,2.1-2.1c0.6,0,1.1,0.2,1.5,0.6l-0.4,0.5c-0.3-0.3-0.7-0.4-1.1-0.4
		c-0.8,0-1.4,0.6-1.4,1.4c0,0.8,0.6,1.5,1.4,1.5c0.3,0,0.6-0.1,0.8-0.2v-0.9h-1.1l0.3-0.6h1.5v1.9c-0.4,0.3-0.9,0.5-1.5,0.5
		C463.6,164.5,462.6,163.6,462.6,162.5z"/>
</g>
<g>
	<path class="st1" d="M487.7,160.4h1.4c0.7,0,1.2,0.5,1.2,1.1c0,0.4-0.1,0.6-0.4,0.8c0.4,0.2,0.7,0.5,0.7,1c0,0.7-0.6,1.2-1.4,1.2
		h-1.6V160.4z M489.1,162.1c0.4,0,0.6-0.2,0.6-0.6c0-0.3-0.2-0.5-0.6-0.5h-0.7v1.1H489.1z M489.3,163.9c0.5,0,0.7-0.2,0.7-0.6
		s-0.2-0.6-0.7-0.6h-0.9v1.2H489.3z"/>
</g>
<g>
	<path class="st1" d="M461.6,150.3c0-1.4,2.6-6,2.6-6s2.6,4.5,2.6,6c0,1.4-1.2,2.6-2.6,2.6C462.8,152.8,461.6,151.7,461.6,150.3z"/>
</g>
<g>
	<g>
		<path class="st5" d="M460,123.3l0,8.1c0.4,2,2.1,3.4,4.1,3.4c2.1,0,3.8-1.5,4.1-3.4l0-8.1H460z"/>
	</g>
</g>
<g>
	<circle class="st0" cx="462.7" cy="125.9" r="0.9"/>
</g>
<g>
	<circle class="st0" cx="465.6" cy="129.7" r="1.4"/>
</g>
<g>
	<rect x="319.8" y="162.9" class="st1" width="12.8" height="7.7"/>
</g>
<g>
	<rect x="324.8" y="157.5" class="st1" width="2.7" height="5.8"/>
</g>
<g>
	<circle class="st1" cx="326.2" cy="153.6" r="5.2"/>
</g>
<g>
	<g>
		<circle class="st2" cx="326.2" cy="153.6" r="3.5"/>
	</g>
	<g>
		<g>
			<rect x="325.8" y="151.7" class="st0" width="0.7" height="1.9"/>
		</g>
	</g>
	<g>
		<g>
			<rect x="325.9" y="153.3" class="st0" width="1.9" height="0.7"/>
		</g>
	</g>
</g>
<g>
	<path class="st1" d="M319.8,169.4H308c-4,0-7.3-3.3-7.3-7.3v-20.5h5.4v20.5c0,1.1,0.9,1.9,1.9,1.9h11.8V169.4z"/>
</g>
<g>
	<rect x="319.8" y="180.8" class="st1" width="354.1" height="6.4"/>
</g>
<g>
	<g>
		<rect x="242.1" y="87.6" class="st1" width="3.1" height="10"/>
	</g>
	<g>
		<g>
			<circle class="st1" cx="243.6" cy="83.7" r="6.2"/>
		</g>
		<g>
			<polygon class="st3" points="237.4,52.2 237.4,63.6 245.2,63.6 237.4,71.4 237.4,83.1 249.8,83.1 249.8,52.2 			"/>
		</g>
		<g>
			<rect x="237.4" y="78.3" class="st1" width="12.3" height="1"/>
		</g>
		<g>
			<polygon class="st1" points="257.8,56.6 229.4,56.6 243.6,39.7 			"/>
		</g>
	</g>
</g>
<g>
	<rect x="221.8" y="93.5" class="st3" width="43.6" height="16.2"/>
</g>
<g>
	<rect x="206.4" y="120.6" class="st3" width="11" height="58.6"/>
</g>
<g>
	<rect x="216.4" y="124.9" class="st1" width="19.1" height="49.1"/>
</g>
<g>
	<rect x="231.4" y="115.7" class="st3" width="47.2" height="107.9"/>
</g>
<g>
	<rect x="206.4" y="108.4" class="st3" width="72.2" height="16.6"/>
</g>
<g>
	<rect x="252.2" y="108.4" class="st1" width="26.5" height="115.3"/>
</g>
<g>
	<g>
		<g>
			<path class="st2" d="M235.9,118.6c-1.6,0-2.8-1.3-2.8-2.8c0-1.6,1.3-2.8,2.8-2.8c1.6,0,2.8,1.3,2.8,2.8
				C238.7,117.4,237.4,118.6,235.9,118.6z M235.9,113.9c-1.1,0-1.9,0.9-1.9,1.9c0,1.1,0.9,1.9,1.9,1.9c1.1,0,1.9-0.9,1.9-1.9
				C237.8,114.7,236.9,113.9,235.9,113.9z"/>
		</g>
	</g>
	<g>
		<g>
			<path class="st2" d="M243.1,118.6c-1.6,0-2.8-1.3-2.8-2.8c0-1.6,1.3-2.8,2.8-2.8c1.6,0,2.8,1.3,2.8,2.8
				C246,117.4,244.7,118.6,243.1,118.6z M243.1,113.9c-1.1,0-1.9,0.9-1.9,1.9c0,1.1,0.9,1.9,1.9,1.9c1.1,0,1.9-0.9,1.9-1.9
				C245.1,114.7,244.2,113.9,243.1,113.9z"/>
		</g>
	</g>
</g>
<g>
	<g>
		<g>
			<path class="st2" d="M273.5,141.7c0,0.6-0.5,1.2-1.2,1.2h-9.7c-0.6,0-1.2-0.5-1.2-1.2l0,0c0-0.6,0.5-1.2,1.2-1.2h9.7
				C272.9,140.6,273.5,141.1,273.5,141.7L273.5,141.7z"/>
		</g>
	</g>
	<g>
		<g>
			<path class="st2" d="M273.5,146.6c0,0.6-0.5,1.2-1.2,1.2h-9.7c-0.6,0-1.2-0.5-1.2-1.2l0,0c0-0.6,0.5-1.2,1.2-1.2h9.7
				C272.9,145.5,273.5,146,273.5,146.6L273.5,146.6z"/>
		</g>
	</g>
	<g>
		<g>
			<path class="st2" d="M273.5,151.5c0,0.6-0.5,1.2-1.2,1.2h-9.7c-0.6,0-1.2-0.5-1.2-1.2l0,0c0-0.6,0.5-1.2,1.2-1.2h9.7
				C272.9,150.4,273.5,150.9,273.5,151.5L273.5,151.5z"/>
		</g>
	</g>
</g>
<g>
	<path class="st0" d="M111.4,170c-5.3,0-9.6,4.3-9.6,9.6v25h129.6V170H111.4z"/>
</g>
<g>
	<path class="st1" d="M110.6,195.2c-4.8,0-8.8,3.9-8.8,8.8c0,4.8,3.9,8.8,8.8,8.8h120.9v-17.5H110.6z"/>
</g>
<g>
	<g>
		<rect x="216.7" y="170" class="st1" width="1" height="25.2"/>
	</g>
	<g>
		<rect x="200.7" y="170" class="st1" width="1" height="25.2"/>
	</g>
	<g>
		<rect x="184.6" y="170" class="st1" width="1" height="25.2"/>
	</g>
	<g>
		<rect x="168.6" y="170" class="st1" width="1" height="25.2"/>
	</g>
	<g>
		<rect x="152.5" y="170" class="st1" width="1" height="25.2"/>
	</g>
	<g>
		<rect x="136.5" y="170" class="st1" width="1" height="25.2"/>
	</g>
	<g>
		<rect x="120.5" y="170" class="st1" width="1" height="25.2"/>
	</g>
</g>
<g>
	<g>
		<g>
			<path class="st3" d="M116.9,211.2c-4,0-7.3-3.3-7.3-7.3c0-4,3.3-7.3,7.3-7.3c4,0,7.3,3.3,7.3,7.3
				C124.2,208,120.9,211.2,116.9,211.2z M116.9,199.3c-2.5,0-4.6,2.1-4.6,4.6c0,2.5,2.1,4.6,4.6,4.6c2.5,0,4.6-2.1,4.6-4.6
				C121.5,201.4,119.4,199.3,116.9,199.3z"/>
		</g>
	</g>
	<g>
		<g>
			<path class="st3" d="M134.3,211.2c-4,0-7.3-3.3-7.3-7.3c0-4,3.3-7.3,7.3-7.3c4,0,7.3,3.3,7.3,7.3
				C141.6,208,138.4,211.2,134.3,211.2z M134.3,199.3c-2.5,0-4.6,2.1-4.6,4.6c0,2.5,2.1,4.6,4.6,4.6c2.5,0,4.6-2.1,4.6-4.6
				C139,201.4,136.9,199.3,134.3,199.3z"/>
		</g>
	</g>
	<g>
		<g>
			<path class="st3" d="M151.8,211.2c-4,0-7.3-3.3-7.3-7.3c0-4,3.3-7.3,7.3-7.3c4,0,7.3,3.3,7.3,7.3
				C159.1,208,155.8,211.2,151.8,211.2z M151.8,199.3c-2.5,0-4.6,2.1-4.6,4.6c0,2.5,2.1,4.6,4.6,4.6c2.5,0,4.6-2.1,4.6-4.6
				C156.4,201.4,154.3,199.3,151.8,199.3z"/>
		</g>
	</g>
	<g>
		<g>
			<path class="st3" d="M169.2,211.2c-4,0-7.3-3.3-7.3-7.3c0-4,3.3-7.3,7.3-7.3c4,0,7.3,3.3,7.3,7.3
				C176.5,208,173.2,211.2,169.2,211.2z M169.2,199.3c-2.5,0-4.6,2.1-4.6,4.6c0,2.5,2.1,4.6,4.6,4.6c2.5,0,4.6-2.1,4.6-4.6
				C173.8,201.4,171.8,199.3,169.2,199.3z"/>
		</g>
	</g>
	<g>
		<g>
			<path class="st3" d="M186.7,211.2c-4,0-7.3-3.3-7.3-7.3c0-4,3.3-7.3,7.3-7.3c4,0,7.3,3.3,7.3,7.3
				C194,208,190.7,211.2,186.7,211.2z M186.7,199.3c-2.5,0-4.6,2.1-4.6,4.6c0,2.5,2.1,4.6,4.6,4.6c2.5,0,4.6-2.1,4.6-4.6
				C191.3,201.4,189.2,199.3,186.7,199.3z"/>
		</g>
	</g>
	<g>
		<g>
			<path class="st3" d="M204.1,211.2c-4,0-7.3-3.3-7.3-7.3c0-4,3.3-7.3,7.3-7.3s7.3,3.3,7.3,7.3C211.4,208,208.1,211.2,204.1,211.2z
				 M204.1,199.3c-2.5,0-4.6,2.1-4.6,4.6c0,2.5,2.1,4.6,4.6,4.6c2.5,0,4.6-2.1,4.6-4.6C208.7,201.4,206.6,199.3,204.1,199.3z"/>
		</g>
	</g>
	<g>
		<g>
			<path class="st3" d="M221.5,211.2c-4,0-7.3-3.3-7.3-7.3c0-4,3.3-7.3,7.3-7.3c4,0,7.3,3.3,7.3,7.3
				C228.8,208,225.6,211.2,221.5,211.2z M221.5,199.3c-2.5,0-4.6,2.1-4.6,4.6c0,2.5,2.1,4.6,4.6,4.6c2.5,0,4.6-2.1,4.6-4.6
				C226.2,201.4,224.1,199.3,221.5,199.3z"/>
		</g>
	</g>
</g>
<g>
	<g>
		<g>
			
				<rect x="154.6" y="133.8" transform="matrix(0.4766 -0.8791 0.8791 0.4766 -39.0126 221.6391)" class="st2" width="24.1" height="19.6"/>
		</g>
		<g>
			
				<rect x="154.6" y="133.8" transform="matrix(0.4766 -0.8791 0.8791 0.4766 -39.0126 221.6391)" class="st1" width="24.1" height="19.6"/>
		</g>
		<g>
			
				<rect x="160.3" y="134.3" transform="matrix(0.4766 -0.8791 0.8791 0.4766 -36.7956 221.5544)" class="st4" width="14.8" height="14.8"/>
		</g>
	</g>
	<g>
		<g>
			
				<rect x="144.3" y="129.4" transform="matrix(0.9216 -0.3881 0.3881 0.9216 -42.8023 70.8726)" class="st0" width="19.6" height="24.1"/>
		</g>
		<g>
			<polygon class="st2" points="162.9,143.3 149.5,149.8 143.5,135.5 157.2,129.7 			"/>
		</g>
	</g>
	<g>
		<g>
			
				<rect x="142" y="140.7" transform="matrix(0.9917 -0.1287 0.1287 0.9917 -18.4055 20.8105)" class="st2" width="19.6" height="24.1"/>
		</g>
		<g>
			
				<rect x="142" y="140.7" transform="matrix(0.9917 -0.1287 0.1287 0.9917 -18.4055 20.8105)" class="st1" width="19.6" height="24.1"/>
		</g>
		<g>
			
				<rect x="144.1" y="143.2" transform="matrix(0.9917 -0.1287 0.1287 0.9917 -18.1295 20.7545)" class="st4" width="14.8" height="14.8"/>
		</g>
	</g>
	<g>
		<g>
			
				<rect x="133.3" y="150.2" transform="matrix(0.7904 -0.6126 0.6126 0.7904 -69.4202 121.6748)" class="st1" width="19.6" height="24.1"/>
		</g>
		<g>
			
				<rect x="134.4" y="153.2" transform="matrix(0.7904 -0.6126 0.6126 0.7904 -68.6504 120.5082)" class="st2" width="14.8" height="14.8"/>
		</g>
	</g>
	<g>
		<g>
			
				<rect x="150.4" y="149" transform="matrix(0.3699 -0.9291 0.9291 0.3699 -45.3489 253.2393)" class="st3" width="27.2" height="22.2"/>
		</g>
		<g>
			
				<rect x="156.6" y="149.4" transform="matrix(0.3698 -0.9291 0.9291 0.3698 -42.6582 252.6518)" class="st1" width="16.7" height="16.7"/>
		</g>
	</g>
	<g>
		<rect x="126.2" y="166" class="st4" width="51.1" height="19.5"/>
	</g>
	<g>
		<rect x="126.2" y="166" class="st1" width="8.1" height="19.5"/>
	</g>
	<g>
		<g>
			<path class="st1" d="M174.1,171.6c0,0.9-0.7,1.6-1.6,1.6h-9.2c-0.9,0-1.6-0.7-1.6-1.6l0,0c0-0.9,0.7-1.6,1.6-1.6h9.2
				C173.4,170,174.1,170.7,174.1,171.6L174.1,171.6z"/>
		</g>
	</g>
</g>
<g>
	<defs>
		<rect id="SVGID_3_" x="181.4" y="124.9" width="50.1" height="65.1"/>
	</defs>
	<clipPath id="SVGID_2_">
		<use xlink:href="#SVGID_3_"  style="overflow:visible;"/>
	</clipPath>
	<g class="st6">
		<g>
			<g>
				
					<rect x="213.4" y="133.5" transform="matrix(0.4767 -0.8791 0.8791 0.4767 -7.9769 273.2031)" class="st2" width="24.1" height="19.6"/>
			</g>
			<g>
				
					<rect x="219.1" y="134" transform="matrix(0.4767 -0.8791 0.8791 0.4767 -5.7603 273.1165)" class="st4" width="14.8" height="14.8"/>
			</g>
		</g>
		<g>
			<g>
				
					<rect x="193.2" y="134.7" transform="matrix(0.9917 -0.1287 0.1287 0.9917 -17.2058 27.3495)" class="st2" width="19.6" height="24.1"/>
			</g>
			<g>
				
					<rect x="193.2" y="134.7" transform="matrix(0.9917 -0.1287 0.1287 0.9917 -17.2058 27.3495)" class="st1" width="19.6" height="24.1"/>
			</g>
			<g>
				<polygon class="st4" points="211,151 196.3,154.1 194.4,138.2 209.1,136.3 				"/>
			</g>
		</g>
		<g>
			<g>
				
					<rect x="204.4" y="140.7" transform="matrix(0.9917 -0.1287 0.1287 0.9917 -17.8859 28.8493)" class="st2" width="19.6" height="24.1"/>
			</g>
			<g>
				<polygon class="st4" points="222.2,158.2 207.6,159.3 205.6,144.2 220.3,142.3 				"/>
			</g>
		</g>
		<g>
			<g>
				
					<rect x="195.7" y="150.2" transform="matrix(0.7904 -0.6126 0.6126 0.7904 -56.3313 159.928)" class="st1" width="19.6" height="24.1"/>
			</g>
			<g>
				
					<rect x="196.8" y="153.2" transform="matrix(0.7904 -0.6126 0.6126 0.7904 -55.5605 158.7624)" class="st0" width="14.8" height="14.8"/>
			</g>
		</g>
		<g>
			<g>
				
					<rect x="212.8" y="149" transform="matrix(0.3699 -0.9291 0.9291 0.3699 -6.0011 311.2545)" class="st2" width="27.2" height="22.2"/>
			</g>
			<g>
				
					<rect x="219" y="149.4" transform="matrix(0.3698 -0.9291 0.9291 0.3698 -3.309 310.6673)" class="st0" width="16.7" height="16.7"/>
			</g>
		</g>
		<g>
			<rect x="188.6" y="166" class="st4" width="51.1" height="19.5"/>
		</g>
		<g>
			<rect x="188.6" y="166" class="st1" width="8.1" height="19.5"/>
		</g>
		<g>
			<g>
				<path class="st1" d="M236.5,171.6c0,0.9-0.7,1.6-1.6,1.6h-9.2c-0.9,0-1.6-0.7-1.6-1.6l0,0c0-0.9,0.7-1.6,1.6-1.6h9.2
					C235.8,170,236.5,170.7,236.5,171.6L236.5,171.6z"/>
			</g>
		</g>
	</g>
</g>
<g>
	<path class="st1" d="M306.1,151.6h-5.4v-15.1c0-3.8-3.1-6.9-6.9-6.9h-16v-5.4h16c6.8,0,12.3,5.5,12.3,12.3V151.6z"/>
</g>
<g>
	<rect x="278.6" y="118.2" class="st3" width="7.8" height="17.5"/>
</g>
<g>
	<rect x="231.4" y="218.9" class="st3" width="4.1" height="11.7"/>
</g>
<g>
	<rect x="274.5" y="223.7" class="st1" width="4.1" height="6.9"/>
</g>
<g>
	<rect x="248.1" y="218.9" class="st3" width="4.1" height="11.7"/>
</g>
<g>
	<g>
		<path class="st1" d="M138.1,129.2h-12.3v-14.6h12.3V129.2z M126.8,128.2h10.3v-12.6h-10.3V128.2z"/>
	</g>
</g>
<g>
	<path class="st1" d="M577,65.6h-5.4v-7.6c0-4.2,3.4-7.6,7.6-7.6h7.6v5.4h-7.6c-1.2,0-2.2,1-2.2,2.2V65.6z"/>
</g>
<g>
	<rect x="586.5" y="50.5" class="st1" width="23.7" height="5.4"/>
</g>
<g>
	<rect x="629.9" y="166.6" class="st1" width="17.8" height="1"/>
</g>
<g>
	<g>
		<rect x="640.2" y="163.8" class="st0" width="3.3" height="2.8"/>
	</g>
	<g>
		<circle class="st0" cx="641.8" cy="163.8" r="1.6"/>
	</g>
	<g>
		<path class="st0" d="M642.6,163.8c0,0.5-0.4,0.8-0.8,0.8l0,0c-0.5,0-0.8-0.4-0.8-0.8v-3.1c0-0.5,0.4-0.8,0.8-0.8l0,0
			c0.5,0,0.8,0.4,0.8,0.8V163.8z"/>
	</g>
	<g>
		<polygon class="st4" points="642.4,167.8 642.4,163.3 641.2,163.3 641.2,167.8 640.6,167.8 640.6,172.4 643,172.4 643,167.8 		"/>
	</g>
</g>
<g>
	<g>
		<g>
			<rect x="625.7" y="163.4" class="st4" width="10.7" height="7.2"/>
		</g>
		<g>
			<rect x="629.1" y="162.3" class="st1" width="3.9" height="2.1"/>
		</g>
	</g>
	<g>
		<rect x="627.1" y="165.2" class="st2" width="4" height="3.5"/>
	</g>
</g>
<g>
	<path class="st1" d="M635.8,72.4v-8.3h5.4v8.3c0,1.2,1,2.2,2.2,2.2h7.6v5.4h-7.6C639.3,80.1,635.8,76.7,635.8,72.4z"/>
</g>
<g>
	<path class="st1" d="M633.6,50.5h-8.3v5.4h8.3c1.2,0,2.2,1,2.2,2.2v7.6h5.4v-7.6C641.2,53.9,637.8,50.5,633.6,50.5z"/>
</g>
<g>
	<rect x="601.1" y="49.3" class="st1" width="12.8" height="7.7"/>
</g>
<g>
	<rect x="606.2" y="43.9" class="st1" width="2.7" height="5.8"/>
</g>
<g>
	<circle class="st1" cx="607.5" cy="40" r="5.2"/>
</g>
<g>
	<g>
		<circle class="st2" cx="607.5" cy="40" r="3.5"/>
	</g>
	<g>
		<g>
			<rect x="607.2" y="38.1" class="st0" width="0.7" height="2.2"/>
		</g>
	</g>
	<g>
		<g>
			<rect x="607.3" y="39.7" class="st0" width="1.9" height="0.7"/>
		</g>
	</g>
</g>
<g>
	<g>
		
			<rect x="905.8" y="104.8" transform="matrix(0.8804 -0.4743 0.4743 0.8804 54.307 447.9811)" class="st2" width="18.8" height="23.1"/>
	</g>
	<g>
		<path class="st1" d="M929.6,122.2l-17.4,9.3l-11.4-21.1l17.4-9.3L929.6,122.2z M912.6,130.3l15.7-8.4l-10.5-19.5l-15.7,8.4
			L912.6,130.3z"/>
	</g>
	<g>
		
			<rect x="907.2" y="107.4" transform="matrix(0.8804 -0.4743 0.4743 0.8804 55.064 447.3602)" class="st0" width="14.2" height="14.2"/>
	</g>
</g>
<polygon class="st3" points="331.9,187.1 331.9,231.3 354,231.3 354,226 639.7,226 639.7,231.3 661.8,231.3 661.8,187.1 "/>
<g>
	<rect x="867.3" y="132.8" class="st4" width="8.3" height="13.9"/>
</g>
<g>
	<rect x="749.3" y="102.6" class="st1" width="119.8" height="52.8"/>
</g>
<g>
	<rect x="749.3" y="102.6" class="st4" width="49.8" height="52.8"/>
</g>
<g>
	<line class="st9" x1="760.4" y1="111.3" x2="787.9" y2="111.3"/>
	<line class="st9" x1="760.4" y1="113.8" x2="787.9" y2="113.8"/>
	<line class="st9" x1="760.4" y1="116.3" x2="787.9" y2="116.3"/>
	<line class="st9" x1="760.4" y1="118.8" x2="787.9" y2="118.8"/>
	<line class="st9" x1="760.4" y1="121.3" x2="787.9" y2="121.3"/>
	<line class="st9" x1="760.4" y1="123.9" x2="787.9" y2="123.9"/>
</g>
<g>
	<g>
		<circle class="st2" cx="815.8" cy="118.7" r="8"/>
	</g>
	<g>
		<polygon class="st0" points="820.6,120.8 814.8,120.8 814.8,115 816.7,115 816.7,118.9 820.6,118.9 		"/>
	</g>
	<g>
		<rect x="833.1" y="127.7" class="st2" width="27.2" height="19"/>
	</g>
	<g>
		<path class="st1" d="M859.6,145.7h-25.8v-17h25.8V145.7z M834.8,144.7h23.9v-15.1h-23.9V144.7z"/>
	</g>
	<g>
		<g>
			<polygon class="st0" points="842,142.1 837.7,134.8 838.4,134.4 842,140.5 846.1,133.3 850.7,140.6 853.7,136.5 854.3,136.9 
				850.6,142 846.2,134.8 			"/>
		</g>
		<g>
			<g>
				
					<ellipse transform="matrix(0.5933 -0.805 0.805 0.5933 237.2405 743.0847)" class="st0" cx="854" cy="136.8" rx="1.2" ry="1.2"/>
			</g>
		</g>
		<g>
			<g>
				
					<ellipse transform="matrix(0.8625 -0.5061 0.5061 0.8625 47.1428 442.7047)" class="st0" cx="838.1" cy="134.6" rx="1.2" ry="1.2"/>
			</g>
		</g>
	</g>
	<g>
		<g>
			<g>
				<path class="st4" d="M822.7,134c0,0.7-0.6,1.4-1.4,1.4h-11.2c-0.7,0-1.4-0.6-1.4-1.4l0,0c0-0.7,0.6-1.3,1.4-1.3h11.2
					C822.1,132.6,822.7,133.2,822.7,134L822.7,134z"/>
			</g>
		</g>
		<g>
			<g>
				<path class="st4" d="M822.7,139.6c0,0.7-0.6,1.4-1.4,1.4h-11.2c-0.7,0-1.4-0.6-1.4-1.4l0,0c0-0.7,0.6-1.4,1.4-1.4h11.2
					C822.1,138.3,822.7,138.9,822.7,139.6L822.7,139.6z"/>
			</g>
		</g>
		<g>
			<g>
				<path class="st4" d="M822.7,145.3c0,0.7-0.6,1.4-1.4,1.4h-11.2c-0.7,0-1.4-0.6-1.4-1.4l0,0c0-0.7,0.6-1.4,1.4-1.4h11.2
					C822.1,144,822.7,144.6,822.7,145.3L822.7,145.3z"/>
			</g>
		</g>
	</g>
	<g>
		<g>
			<g>
				<path class="st2" d="M850.2,116.3c-1.6,0-2.8-1.3-2.8-2.8c0-1.6,1.3-2.8,2.8-2.8c1.6,0,2.8,1.3,2.8,2.8
					C853,115.1,851.8,116.3,850.2,116.3z M850.2,111.6c-1.1,0-1.9,0.9-1.9,1.9c0,1.1,0.9,1.9,1.9,1.9c1.1,0,1.9-0.9,1.9-1.9
					C852.1,112.4,851.3,111.6,850.2,111.6z"/>
			</g>
		</g>
		<g>
			<g>
				<path class="st2" d="M857.5,116.3c-1.6,0-2.8-1.3-2.8-2.8c0-1.6,1.3-2.8,2.8-2.8c1.6,0,2.8,1.3,2.8,2.8
					C860.3,115.1,859.1,116.3,857.5,116.3z M857.5,111.6c-1.1,0-1.9,0.9-1.9,1.9c0,1.1,0.9,1.9,1.9,1.9c1.1,0,1.9-0.9,1.9-1.9
					C859.4,112.4,858.6,111.6,857.5,111.6z"/>
			</g>
		</g>
	</g>
</g>
<g>
	<rect x="799.1" y="152.1" class="st1" width="70" height="11.1"/>
</g>
<g>
	<rect x="749.3" y="150.8" class="st4" width="49.8" height="12.5"/>
</g>
<g>
	<rect x="755.1" y="136.6" class="st1" width="38.1" height="14.6"/>
</g>
<g>
	<g>
		<polygon class="st0" points="766.9,150.7 764.6,142 760.2,148.5 757.2,141.2 758.3,140.8 760.5,146.1 765.1,139.2 766.8,145.5 
			768,139.4 770.4,147 775.9,140.9 781.5,146.2 786.6,142 789.7,141.6 789.8,142.8 787.1,143.1 781.5,147.7 776,142.5 770,149.2 
			768.2,143.9 		"/>
	</g>
	<g>
		<g>
			<ellipse transform="matrix(0.9282 -0.372 0.372 0.9282 1.917 292.0193)" class="st0" cx="757.8" cy="141" rx="1.3" ry="1.3"/>
		</g>
	</g>
	<g>
		<g>
			
				<ellipse transform="matrix(0.9941 -0.1087 0.1087 0.9941 -10.7777 86.6688)" class="st0" cx="789.7" cy="142.2" rx="1.3" ry="1.3"/>
		</g>
	</g>
</g>
<g>
	<rect x="889.3" y="114.9" transform="matrix(0.9592 -0.2827 0.2827 0.9592 3.853 257.4879)" class="st1" width="9.4" height="1"/>
	
		<rect x="893.4" y="101.9" transform="matrix(0.4783 -0.8782 0.8782 0.4783 372.5952 840.6999)" class="st1" width="1" height="9.6"/>
	<rect x="901.1" y="96.5" transform="matrix(0.9592 -0.2827 0.2827 0.9592 8.2537 259.038)" class="st1" width="1" height="8.8"/>
</g>
<g>
	<rect x="651" y="74.7" class="st1" width="12.3" height="5.4"/>
</g>
<g>
	<path class="st1" d="M662.2,80.1v-5.4h7.6c4.2,0,7.6,3.4,7.6,7.6v31.2H672V82.3c0-1.2-1-2.2-2.2-2.2H662.2z"/>
</g>
<g>
	<rect x="670.9" y="89.9" class="st1" width="7.7" height="12.8"/>
</g>
<g>
	<rect x="665.1" y="94.9" class="st1" width="5.8" height="2.7"/>
</g>
<g>
	<circle class="st1" cx="661.2" cy="96.3" r="5.2"/>
</g>
<g>
	<g>
		<circle class="st2" cx="661.2" cy="96.3" r="3.5"/>
	</g>
	<g>
		<g>
			<rect x="659.3" y="95.9" class="st0" width="1.9" height="0.7"/>
		</g>
	</g>
	<g>
		<g>
			<rect x="660.8" y="94.6" class="st0" width="0.7" height="1.9"/>
		</g>
	</g>
</g>
<g>
	<rect x="722.9" y="66.9" class="st1" width="22.3" height="5.4"/>
</g>
<g>
	<path class="st1" d="M759.2,101.9h-5.4V74.5c0-1.2-1-2.2-2.2-2.2h-7.6v-5.4h7.6c4.2,0,7.6,3.4,7.6,7.6V101.9z"/>
</g>
<g>
	<rect x="751.9" y="99" class="st0" width="9.4" height="3.6"/>
</g>
<g>
	<g>
		<g>
			<path class="st1" d="M749.3,142.3h-44.9c-0.9,0-1.7-0.8-1.7-1.7v-7.8h1v7.8c0,0.4,0.3,0.7,0.7,0.7h44.9V142.3z"/>
		</g>
	</g>
</g>
<g>
	<g>
		<path class="st1" d="M746.4,146.6h-44.9c-0.9,0-1.7-0.8-1.7-1.7v-7.8h1v7.8c0,0.4,0.3,0.7,0.7,0.7h44.9V146.6z"/>
	</g>
</g>
<g>
	<rect x="775.5" y="92.9" class="st4" width="3.1" height="17.2"/>
</g>
<g>
	<rect x="691" y="105.9" class="st3" width="23.4" height="46.2"/>
</g>
<g>
	<rect x="691" y="152.1" class="st1" width="23.4" height="11.1"/>
</g>
<g>
	<g>
		<rect x="714.3" y="140.7" class="st4" width="3" height="2.3"/>
	</g>
</g>
<g>
	<g>
		<rect x="714.3" y="145" class="st4" width="3" height="2.3"/>
	</g>
</g>
<g>
	<g>
		<circle class="st2" cx="702.7" cy="120.8" r="6.3"/>
	</g>
	<g>
		<g>
			<rect x="702" y="117.4" class="st4" width="1.2" height="4"/>
		</g>
	</g>
	<g>
		<g>
			<rect x="702.2" y="120.2" class="st4" width="3.4" height="1.2"/>
		</g>
	</g>
</g>
<g>
	<g>
		<g>
			<path class="st1" d="M709.6,134c0,0.7-0.6,1.4-1.4,1.4h-11.2c-0.7,0-1.4-0.6-1.4-1.4l0,0c0-0.7,0.6-1.4,1.4-1.4h11.2
				C709,132.6,709.6,133.2,709.6,134L709.6,134z"/>
		</g>
	</g>
	<g>
		<g>
			<path class="st1" d="M709.6,139.6c0,0.7-0.6,1.4-1.4,1.4h-11.2c-0.7,0-1.4-0.6-1.4-1.4l0,0c0-0.7,0.6-1.4,1.4-1.4h11.2
				C709,138.3,709.6,138.9,709.6,139.6L709.6,139.6z"/>
		</g>
	</g>
	<g>
		<g>
			<path class="st1" d="M709.6,145.3c0,0.7-0.6,1.4-1.4,1.4h-11.2c-0.7,0-1.4-0.6-1.4-1.4l0,0c0-0.7,0.6-1.4,1.4-1.4h11.2
				C709,144,709.6,144.6,709.6,145.3L709.6,145.3z"/>
		</g>
	</g>
</g>
<g>
	<g>
		<rect x="746.4" y="140.7" class="st1" width="3" height="2.3"/>
	</g>
</g>
<g>
	<g>
		<rect x="746.4" y="145" class="st1" width="3" height="2.3"/>
	</g>
</g>
<g>
	<path class="st3" d="M723.7,54.9v6.4v1.2v21.2v30.5h3.1V83.6V62.5v-1.2v-6.4c0-1.9,1.5-3.4,3.4-3.4h44.1v-3.1h-44.1
		C726.6,48.4,723.7,51.3,723.7,54.9z"/>
</g>
<g>
	<path class="st3" d="M805.8,48.4h-6.4h-1.2H777h-40.9v3.1H777h21.2h1.2h6.4c1.9,0,3.4,1.5,3.4,3.4V99h3.1V54.9
		C812.2,51.3,809.3,48.4,805.8,48.4z"/>
</g>
<g>
	<rect x="736.1" y="47.9" class="st1" width="5.6" height="4.7"/>
</g>
<g>
	<rect x="802.1" y="70.6" class="st0" width="1.2" height="16.7"/>
</g>
<g>
	<rect x="805.7" y="89.8" class="st0" width="33.9" height="1.2"/>
</g>
<g>
	<rect x="842.1" y="93.4" class="st0" width="1.2" height="9.2"/>
</g>
<g>
	<path class="st0" d="M843.2,93.4h-1.2c0-1.4-1.1-2.5-2.5-2.5v-1.2C841.6,89.8,843.2,91.4,843.2,93.4z"/>
</g>
<g>
	<path class="st0" d="M805.7,90.9c-2,0-3.6-1.6-3.6-3.6h1.2c0,1.4,1.1,2.5,2.5,2.5V90.9z"/>
</g>
<g>
	<rect x="841.5" y="99.7" class="st0" width="2.3" height="2.9"/>
</g>
<g>
	<polygon class="st1" points="889,151.8 875.6,146.8 875.6,132.8 889,127.1 	"/>
</g>
<g>
	<circle class="st4" cx="858.7" cy="154.6" r="1.7"/>
	<circle class="st0" cx="849" cy="154.6" r="1.7"/>
	<circle class="st4" cx="839.4" cy="154.6" r="1.7"/>
	<circle class="st4" cx="829.8" cy="154.6" r="1.7"/>
	<circle class="st4" cx="820.1" cy="154.6" r="1.7"/>
	<circle class="st4" cx="810.5" cy="154.6" r="1.7"/>
</g>
<g>
	<rect x="723.6" y="173.8" class="st0" width="27.1" height="1.2"/>
</g>
<g>
	<rect x="730.1" y="175.9" class="st1" width="12.8" height="11.5"/>
</g>
<g>
	<rect x="735.1" y="171.7" class="st1" width="2.7" height="5.8"/>
</g>
<g>
	<circle class="st1" cx="736.5" cy="167.8" r="5.2"/>
</g>
<g>
	<g>
		<circle class="st2" cx="736.5" cy="167.8" r="3.5"/>
	</g>
	<g>
		<g>
			<rect x="736.1" y="165.9" class="st0" width="0.7" height="1.9"/>
		</g>
	</g>
	<g>
		<g>
			<rect x="736.2" y="167.4" class="st0" width="1.9" height="0.7"/>
		</g>
	</g>
</g>
<g>
	<path class="st1" d="M730.3,184.3h-15.2c-4.2,0-7.6-3.4-7.6-7.6v-15.8h5.4v15.8c0,1.2,1,2.2,2.2,2.2h15.2V184.3z"/>
</g>
<g>
	<rect x="705.5" y="163.2" class="st4" width="9.4" height="3.6"/>
</g>
<g>
	<path class="st1" d="M770.6,184.3h-28.9V179h28.9c1.2,0,2.2-1,2.2-2.2v-13.5h5.4v13.5C778.3,180.9,774.8,184.3,770.6,184.3z"/>
</g>
<g>
	<rect x="770.9" y="163.2" class="st0" width="9.4" height="3.6"/>
</g>
<g>
	<rect x="750.7" y="173.8" class="st0" width="11.8" height="1.2"/>
</g>
<g>
	<rect x="765.3" y="163.3" class="st0" width="1.2" height="7.9"/>
</g>
<g>
	<g>
		<path class="st0" d="M762.5,175v-1.2c1.5,0,2.7-1.2,2.7-2.7h1.2C766.4,173.2,764.7,175,762.5,175z"/>
	</g>
</g>
<g>
	<rect x="764.7" y="163.2" class="st0" width="2.3" height="3"/>
</g>
<path class="st0" d="M703.3,173.8c-1.5,0-2.7-1.2-2.7-2.7v-7.8h-1.2v7.9h0c0.1,2.1,1.8,3.7,3.9,3.7h20.3v-1.2H703.3z"/>
<g>
	<rect x="698.8" y="163.2" class="st0" width="2.3" height="3"/>
</g>
<g>
	<g>
		<g>
			<circle class="st4" cx="777" cy="90.7" r="5"/>
		</g>
		<g>
			<polygon class="st4" points="782,65.3 782,74.5 775.7,74.5 782,80.8 782,90.2 772.1,90.2 772.1,65.3 			"/>
		</g>
		<g>
			<rect x="772.1" y="86.4" class="st1" width="9.9" height="0.8"/>
		</g>
		<g>
			<polygon class="st1" points="768.1,69.2 785.9,69.2 777,58.6 			"/>
		</g>
	</g>
</g>
<g>
	<rect x="808.4" y="97" class="st1" width="4.7" height="7.2"/>
</g>
<rect x="610.2" y="50.5" class="st1" width="17.8" height="5.4"/>
<g>
	<path class="st2" d="M634,110.8c-10.3,0-19.5-6.5-22.9-16.2c-3,1.3-6.2,1.9-9.4,1.9c-0.9,0-1.9-0.1-2.9-0.2l0.1-0.9
		c1,0.1,1.9,0.2,2.7,0.2c3.3,0,6.5-0.7,9.5-2l0.5-0.2l0.2,0.5c3.2,9.6,12.1,16,22.2,16V110.8z"/>
</g>
<g>
	<rect x="696.6" y="81" class="st1" width="5.4" height="24.9"/>
</g>
<g>
	<path class="st1" d="M702,82.1h-5.4v-7.6c0-4.2,3.4-7.6,7.6-7.6h31.2v5.4h-31.2c-1.2,0-2.2,1-2.2,2.2V82.1z"/>
</g>
<g>
	<g>
		<rect x="732.5" y="65.8" class="st1" width="12.8" height="7.7"/>
	</g>
	<g>
		<rect x="737.6" y="73.4" class="st1" width="2.7" height="5.8"/>
	</g>
	<g>
		<circle class="st1" cx="738.9" cy="83.1" r="5.2"/>
	</g>
	<g>
		<g>
			<circle class="st2" cx="738.9" cy="83.1" r="3.5"/>
		</g>
		<g>
			<g>
				<rect x="738.6" y="83.1" class="st0" width="0.7" height="1.9"/>
			</g>
		</g>
		<g>
			<g>
				<rect x="737.3" y="82.8" class="st0" width="1.9" height="0.7"/>
			</g>
		</g>
	</g>
</g>
<g>
	<rect x="706.2" y="63.7" class="st0" width="1.2" height="42.2"/>
</g>
<g>
	<g>
		<rect x="745.1" y="39.7" class="st0" width="1.2" height="17.9"/>
	</g>
	<g>
		<path class="st0" d="M746.3,39.7h-1.2c0-2,1.6-3.6,3.6-3.6v1.2C747.4,37.2,746.3,38.3,746.3,39.7z"/>
	</g>
	<g>
		<rect x="720.4" y="60" class="st0" width="22.2" height="1.2"/>
	</g>
	<g>
		<path class="st0" d="M742.6,61.2V60c1.4,0,2.5-1.1,2.5-2.5h1.2C746.3,59.6,744.6,61.2,742.6,61.2z"/>
	</g>
	<g>
		<rect x="729.5" y="59.5" class="st0" width="5.6" height="2.3"/>
	</g>
	<g>
		<rect x="709.8" y="60.1" class="st0" width="31" height="1.2"/>
	</g>
</g>
<g>
	<path class="st0" d="M709.8,60.1v1.2c-1.4,0-2.5,1.1-2.5,2.5h-1.2C706.2,61.7,707.8,60.1,709.8,60.1z"/>
</g>
<g>
	<g>
		<rect x="696.2" y="102.9" class="st4" width="6.1" height="3"/>
	</g>
</g>
<g>
	<g>
		<rect x="705.6" y="102.9" class="st4" width="2.3" height="3"/>
	</g>
</g>
<g>
	<g>
		<path class="st1" d="M807.5,77.1c0,1.9-1.5,3.4-3.4,3.4h-2.8c-1.9,0-3.4-1.5-3.4-3.4V65.7c0-1.9,1.5-3.4,3.4-3.4h2.8
			c1.9,0,3.4,1.5,3.4,3.4V77.1z"/>
	</g>
	<g>
		<g>
			<g>
				<path class="st2" d="M802.6,68c-1.8,0-3.3,1.4-3.4,3.2h6.7C805.9,69.5,804.5,68,802.6,68z"/>
			</g>
			<g>
				<path class="st0" d="M802.6,74.7c1.9,0,3.4-1.5,3.4-3.4c0,0,0-0.1,0-0.1h-6.7c0,0,0,0.1,0,0.1C799.3,73.2,800.8,74.7,802.6,74.7
					z"/>
			</g>
		</g>
		<g>
			<g>
				<path class="st4" d="M806,71.2l-1.5,0.1c0-1-0.8-1.8-1.8-1.8c-1,0-1.8,0.8-1.8,1.8l-1.5-0.1c0.1-1.8,1.5-3.2,3.4-3.2
					C804.5,68,805.9,69.4,806,71.2z"/>
			</g>
		</g>
		<g>
			<circle class="st1" cx="802.6" cy="71.7" r="1"/>
		</g>
		<g>
			<polygon class="st1" points="802.5,68.6 803.5,71.6 801.8,71.6 			"/>
		</g>
		<g>
			<circle class="st2" cx="802.6" cy="71.7" r="0.5"/>
		</g>
	</g>
</g>
<g>
	<path class="st3" d="M723.7,110.2v6.4c0,1.9-1.5,3.4-3.4,3.4h-6.7v3.1h6.7c3.6,0,6.5-2.9,6.5-6.5v-6.4"/>
</g>
<g>
	<path class="st1" d="M672,142.4V99.8h5.4v42.6c0,1.2,1,2.2,2.2,2.2h10.8v5.4h-10.8C675.5,150,672,146.6,672,142.4z"/>
</g>
<g>
	<rect x="687.3" y="142.7" class="st0" width="3.6" height="9.4"/>
</g>
<g>
	<rect x="795.6" y="156.7" class="st4" width="3.5" height="74.6"/>
</g>
<g>
	<rect x="865.6" y="156.7" class="st1" width="3.5" height="74.6"/>
</g>
<g>
	<rect x="749.3" y="156.7" class="st4" width="3.5" height="74.6"/>
</g>
<path class="st3" d="M979.1,182.7h-2.1v2.6v1.8v5.3c0,0.5,0.4,0.9,0.9,0.9s0.9-0.4,0.9-0.9v-5.3h0c0-0.1,0.1-0.2,0.2-0.2
	c0.1,0,0.2,0.1,0.2,0.2c0,0,0,0,0,0.1v2.8h0v3.1v2.3v1.1c0,0.5,0.4,0.9,0.9,0.9c0.5,0,0.9-0.4,0.9-0.9v-1.1v-2.3V190l0,0l0,0
	c0-0.1,0.1-0.2,0.2-0.2c0.1,0,0.2,0.1,0.2,0.2l0,0h0v8.7c0,0.5,0.4,0.9,0.9,0.9c0.5,0,0.9-0.4,0.9-0.9V190l0,0l0,0
	c0-0.1,0.1-0.2,0.2-0.2s0.2,0.1,0.2,0.2l0,0h0v6.6c0,0.5,0.4,0.9,0.9,0.9c0.5,0,0.9-0.4,0.9-0.9V190l0,0l0,0c0-0.1,0.1-0.2,0.2-0.2
	c0.1,0,0.2,0.1,0.2,0.2c0,0,0,0,0,0v4.1c0,0.5,0.4,0.9,0.9,0.9s0.9-0.4,0.9-0.9V190v-1.6v-5.7H979.1z"/>
<g>
	<path class="st10" d="M925.7,126.9c0,0.1,0.1,0.2,0.2,0.2c0.1,0,0.2-0.1,0.2-0.2h0v-0.9L925.7,126.9L925.7,126.9
		C925.7,126.9,925.7,126.9,925.7,126.9z"/>
	<path class="st3" d="M927,120.7c-0.5,0-0.9,0.4-0.9,0.9v4.5l0.1-0.2l-0.1,0.2v0.9h0c0,0.1-0.1,0.2-0.2,0.2c-0.1,0-2.6,4.2-2.6,4.2
		h2.3h2.1v-2.6v-1.8v-5.3C927.8,121.1,927.5,120.7,927,120.7z"/>
</g>
<g>
	<rect x="723.7" y="55.8" class="st3" width="3.1" height="8.5"/>
</g>
<polygon class="st1" points="133.1,128.2 126.8,128.2 126.8,124.4 125.9,124.4 125.9,129.2 133.1,129.2 "/>
</svg>
