<?xml version="1.0" encoding="utf-8"?>
<!-- Generator: Adobe Illustrator 20.1.0, SVG Export Plug-In . SVG Version: 6.00 Build 0)  -->
<svg version="1.1" id="Layer_1" xmlns="http://www.w3.org/2000/svg" xmlns:xlink="http://www.w3.org/1999/xlink" x="0px" y="0px" viewBox="0 0 350 300" style="enable-background:new 0 0 350 300;" xml:space="preserve">
<style type="text/css">
	.wm_color1{fill:#F99B1F;}
	.wm_color2{fill:#0F303F;}
	.wm_color3{fill:#FFFFFF;}	
	.wm_color4{fill:#A7DAE9;}
	.wm_color5{fill:#90C4D6;}
	.wm_color6{fill:#7FADBE;}
	.wm_color7{fill:#D1EBFA;}
	.wm_color8{fill:#F26328;}
	.wm_color9{fill:#DC4226;}
	.wm_color10{fill:#2999CE;}
	.wm_color11{fill:#2D5972;}
	.wm_color12{fill:#103154;}
	.wm_color13{fill:#74CDD9;}
	.wm_color14{fill:#1F688C;}
	.wm_color15{fill:#237DA9;}
</style>

  
  
<!-- gear 1-->
<g id="gear1">
		<path class="wm_color14" d="M309,263l-4.8-8.7c2.7-2.3,5.2-4.8,7.5-7.4l8.2,5c2,1.2,4.5,0.6,5.7-1.4l8.6-14.2c1.2-2,0.6-4.5-1.4-5.7
			l-8.5-5.2c1.2-3.3,2.2-6.7,2.8-10.1l9.6,0.2c2.3,0,4.2-1.8,4.3-4.1l0.4-16.6c0-2.3-1.8-4.2-4.1-4.2l-9.9-0.2
			c-0.6-3.4-1.5-6.9-2.6-10.2l8.4-4.6c2-1.1,2.8-3.6,1.7-5.6l-8-14.6c-1.1-2-3.6-2.8-5.7-1.7l-8.7,4.8c-2.3-2.7-4.7-5.2-7.4-7.5
			l5-8.2c1.2-2,0.6-4.5-1.4-5.7l-14.2-8.6c-1.9-1.2-4.5-0.6-5.7,1.4l-5.2,8.5c-3.3-1.2-6.7-2.2-10.1-2.8l0.2-9.6
			c0-2.3-1.8-4.2-4.1-4.3l-16.6-0.4c-2.3-0.1-4.2,1.8-4.2,4.1l-0.2,9.9c-3.4,0.6-6.8,1.5-10.2,2.6l-4.6-8.4c-1.1-2-3.6-2.8-5.7-1.7
			l-14.6,8c-2,1.1-2.8,3.6-1.7,5.7l4.8,8.7c-2.7,2.3-5.3,4.8-7.5,7.4l-8.2-5c-2-1.2-4.5-0.6-5.7,1.4l-8.7,14.2
			c-1.2,2-0.6,4.5,1.4,5.7l8.5,5.2c-1.2,3.3-2.2,6.7-2.8,10.2l-9.6-0.2c-2.3-0.1-4.2,1.8-4.3,4.1l-0.4,16.6c-0.1,2.3,1.8,4.2,4,4.2
			l9.9,0.2c0.6,3.4,1.5,6.8,2.6,10.2l-8.4,4.6c-2,1.1-2.7,3.6-1.7,5.6l8,14.6c1.1,2,3.6,2.8,5.6,1.7l8.7-4.8
			c2.3,2.7,4.7,5.2,7.4,7.5l-5,8.2c-1.2,2-0.6,4.5,1.4,5.7l14.2,8.7c1.9,1.2,4.5,0.6,5.7-1.4l5.2-8.5c3.3,1.2,6.7,2.2,10.2,2.8
			l-0.2,9.6c0,2.3,1.8,4.2,4.1,4.3l16.6,0.4c2.3,0.1,4.2-1.8,4.2-4.1l0.2-9.9c3.4-0.6,6.8-1.5,10.2-2.6l4.6,8.4
			c1.1,2,3.6,2.7,5.7,1.6l14.6-8C309.4,267.5,310.1,265,309,263z M234.8,216.1c-7.8-14.2-2.5-32,11.6-39.7
			c14.2-7.8,32-2.5,39.7,11.6c7.8,14.2,2.5,32-11.6,39.7C260.3,235.5,242.5,230.3,234.8,216.1z"/>
		<path class="wm_color15" d="M222,221.5c-10.4-20.7-2.7-46.1,17.8-57.3c20.5-11.2,46-4,57.8,15.9l33.1-18.1l-3.7-6.8
			c-1.1-2-3.6-2.8-5.7-1.7l-8.7,4.8c-2.3-2.7-4.7-5.2-7.4-7.5l5-8.2c1.2-2,0.6-4.5-1.4-5.7l-14.2-8.6c-1.9-1.2-4.5-0.6-5.7,1.4
			l-5.2,8.5c-3.3-1.2-6.7-2.2-10.1-2.8l0.2-9.6c0-2.3-1.8-4.2-4.1-4.3l-16.6-0.4c-2.3-0.1-4.2,1.8-4.2,4.1l-0.2,9.9
			c-3.4,0.6-6.8,1.5-10.2,2.6l-4.6-8.4c-1.1-2-3.6-2.8-5.7-1.7l-14.6,8c-2,1.1-2.8,3.6-1.7,5.7l4.8,8.7c-2.7,2.3-5.3,4.8-7.5,7.4
			l-8.2-5c-2-1.2-4.5-0.6-5.7,1.4l-8.7,14.2c-1.2,2-0.6,4.5,1.4,5.7l8.5,5.2c-1.2,3.3-2.2,6.7-2.8,10.2l-9.6-0.2
			c-2.3-0.1-4.2,1.8-4.3,4.1l-0.4,16.6c-0.1,2.3,1.8,4.2,4,4.2l9.9,0.2c0.6,3.4,1.5,6.8,2.6,10.2l-8.4,4.6c-2,1.1-2.7,3.6-1.7,5.6
			l2.9,5.2L222,221.5z"/>
		<g>
			<path class="wm_color14" d="M260.5,256.1c-19.8,0-38-10.8-47.5-28.1c-6.9-12.7-8.5-27.3-4.4-41.1c4.1-13.9,13.3-25.3,25.9-32.2
				c7.9-4.3,16.9-6.6,25.9-6.6c19.8,0,38,10.8,47.5,28.1c14.3,26.1,4.6,59-21.5,73.3C278.5,253.8,269.5,256.1,260.5,256.1
				L260.5,256.1z M260.4,150c-8.7,0-17.3,2.2-24.9,6.4c-12.2,6.7-21.1,17.7-25,31c-3.9,13.3-2.4,27.4,4.3,39.6
				c9.1,16.7,26.7,27.1,45.7,27.1c8.7,0,17.3-2.2,24.9-6.4c25.2-13.8,34.5-45.5,20.7-70.6C297,160.4,279.5,150,260.4,150L260.4,150z
				"/>
		</g>
		<g>
			<path class="wm_color15" d="M260.6,256.1c-5.1,0-10.2-0.7-15.3-2.2c-13.9-4.1-25.3-13.3-32.2-25.9l1.7-1c6.7,12.2,17.7,21.1,31,25
				c13.3,3.9,27.4,2.4,39.6-4.3c25.2-13.8,34.5-45.5,20.7-70.6l1.7-1c14.3,26.1,4.6,59-21.5,73.3
				C278.3,253.9,269.5,256.1,260.6,256.1L260.6,256.1z"/>
		</g>
		<path class="wm_color15" d="M297.5,181.9l-11.3,6.2c7.8,14.2,2.5,32-11.6,39.7c-14.2,7.7-32,2.5-39.7-11.6l-11.3,6.2
			c11.2,20.4,36.8,27.9,57.2,16.8C301.1,227.9,308.6,202.3,297.5,181.9z"/>

        <animateTransform id="gear11" attributeName="transform" attributeType="xml" type="rotate"
                  from="0 260.5 202.1"
                  to="90 260.5 202.1"
                  begin="3s; gear12.end+3"
                  dur="2s"
                  repeatCount="1"
                  fill="freeze"
                  /> 
       <animateTransform id="gear12" attributeName="transform" attributeType="xml" type="rotate"
                  from="90 260.5 202.1"
                  to="0 260.5 202.1"
                  begin="gear11.end+3"
                  dur="2s"
                  repeatCount="1"
                  fill="freeze"
                  /> 
  </g>
  
<!-- /gear 1 -->
  
<!-- gear 2-->
<g id="gear2">
		<path class="wm_color14" d="M134.5,155.9h-7.7c-0.6-2.7-1.3-5.4-2.2-7.9l6.5-3.7c1.5-0.9,2.1-2.9,1.2-4.4l-6.5-11.2
			c-0.9-1.6-2.9-2.1-4.4-1.2l-6.7,3.9c-1.8-2.1-3.8-4-5.9-5.7l3.7-6.5c0.9-1.6,0.4-3.5-1.2-4.4l-11.2-6.5c-1.5-0.9-3.5-0.4-4.4,1.2
			l-3.9,6.7c-2.6-0.9-5.3-1.6-8-2v-7.5c0-1.8-1.4-3.2-3.2-3.2h-13c-1.8,0-3.3,1.5-3.3,3.2v7.8c-2.7,0.5-5.4,1.3-7.9,2.2l-3.7-6.5
			c-0.9-1.6-2.9-2.1-4.5-1.2l-11.2,6.5c-1.5,0.9-2.1,2.9-1.2,4.4l3.9,6.7c-2.1,1.8-4,3.8-5.7,5.9l-6.5-3.7c-1.6-0.9-3.5-0.4-4.4,1.2
			l-6.5,11.2c-0.9,1.6-0.4,3.5,1.2,4.4l6.7,3.9c-0.9,2.6-1.5,5.2-2,8h-7.5c-1.8,0-3.3,1.5-3.3,3.2l0,13c0,1.8,1.5,3.2,3.3,3.2h7.8
			c0.5,2.7,1.3,5.4,2.2,7.9l-6.5,3.7c-1.6,0.9-2.1,2.9-1.2,4.4l6.5,11.2c0.9,1.5,2.9,2.1,4.4,1.2l6.7-3.9c1.8,2.1,3.8,4,5.9,5.7
			l-3.7,6.5c-0.9,1.6-0.4,3.5,1.2,4.4l11.3,6.5c1.6,0.9,3.5,0.4,4.4-1.2l3.9-6.7c2.6,0.9,5.2,1.5,8,2l0,7.5c0,1.8,1.5,3.2,3.2,3.2
			l13,0c1.8,0,3.2-1.5,3.2-3.2v-7.8c2.7-0.5,5.4-1.3,7.9-2.2l3.7,6.5c0.9,1.6,2.9,2.1,4.4,1.2l11.3-6.5c1.5-0.9,2.1-2.9,1.2-4.4
			l-3.9-6.7c2.1-1.8,4-3.8,5.8-5.9l6.5,3.8c1.6,0.9,3.5,0.4,4.4-1.2l6.5-11.3c0.9-1.5,0.4-3.5-1.2-4.4l-6.7-3.9c0.9-2.6,1.5-5.2,2-8
			h7.5c1.8,0,3.2-1.5,3.2-3.3v-13C137.7,157.4,136.3,155.9,134.5,155.9z M74.6,200.1c-18.6,0-33.7-15.1-33.7-33.7
			c0-18.6,15.1-33.7,33.7-33.7c18.6,0,33.7,15.1,33.7,33.7C108.3,185,93.2,200.1,74.6,200.1z"/>
		<path class="wm_color15" d="M73.5,200c-18.1-0.6-32.5-15.4-32.5-33.6c0-18.2,14.5-33.1,32.5-33.6l0-29.5h-6.1c-1.8,0-3.3,1.5-3.3,3.2v7.8
			c-2.7,0.5-5.4,1.3-7.9,2.2l-3.7-6.5c-0.9-1.6-2.9-2.1-4.5-1.2l-11.2,6.5c-1.5,0.9-2.1,2.9-1.2,4.4l3.9,6.7c-2.1,1.8-4,3.8-5.7,5.9
			l-6.5-3.7c-1.6-0.9-3.5-0.4-4.4,1.2l-6.5,11.2c-0.9,1.6-0.4,3.5,1.2,4.4l6.7,3.9c-0.9,2.6-1.5,5.2-2,8h-7.5
			c-1.8,0-3.3,1.5-3.3,3.2l0,13c0,1.8,1.5,3.2,3.3,3.2h7.8c0.5,2.7,1.3,5.4,2.2,7.9l-6.5,3.7c-1.6,0.9-2.1,2.9-1.2,4.4l6.5,11.2
			c0.9,1.5,2.9,2.1,4.4,1.2l6.7-3.9c1.8,2.1,3.8,4,5.9,5.7l-3.7,6.5c-0.9,1.6-0.4,3.5,1.2,4.4l11.3,6.5c1.6,0.9,3.5,0.4,4.4-1.2
			l3.9-6.7c2.6,0.9,5.2,1.5,8,2l0,7.5c0,1.8,1.5,3.2,3.2,3.2l4.6,0L73.5,200z"/>
		<path class="wm_color14" d="M74.6,125.4c-22.7,0-41,18.4-41,41c0,22.6,18.4,41,41,41c22.7,0,41-18.4,41-41
			C115.6,143.7,97.3,125.4,74.6,125.4z M74.6,200.1c-18.6,0-33.7-15.1-33.7-33.7c0-18.6,15.1-33.7,33.7-33.7
			c18.6,0,33.7,15.1,33.7,33.7C108.3,185,93.2,200.1,74.6,200.1z"/>
		<path class="wm_color15" d="M74.6,125.4c-0.4,0-0.8,0-1.1,0v7.3c0.4,0,0.7,0,1.1,0c18.6,0,33.7,15.1,33.7,33.7
			c0,18.6-15.1,33.7-33.7,33.7c-0.4,0-0.8,0-1.1,0v7.3c0.4,0,0.7,0,1.1,0c22.7,0,41-18.4,41-41C115.6,143.7,97.3,125.4,74.6,125.4z"
			/>
  
  <animateTransform id="gear21" attributeName="transform" attributeType="xml" type="rotate"
                  from="0 74.6 166.4"
                  to="90 74.6 166.4"
                  begin="3s; gear22.end+2"
                  dur="2s"
                  repeatCount="1"
                  fill="freeze"
                  /> 
       <animateTransform id="gear22" attributeName="transform" attributeType="xml" type="rotate"
                  from="90 74.6 166.4"
                  to="0 74.6 166.4"
                  begin="gear21.end+2"
                  dur="2s"
                  repeatCount="1"
                  fill="freeze"
                  /> 
	</g>

<!-- /gear2 -->


<!-- gear 3-->
<g id="gear3">
		<path class="wm_color14" d="M41.1,232.1l-2.8-0.8c-0.6-0.2-1.2-0.9-1.2-1.6l-0.2-1.4c-0.1-0.7,0.3-1.5,0.8-1.8l2.6-1.4
			c0.6-0.3,0.8-1.1,0.5-1.7l-2.2-3.9c-0.3-0.6-1.1-0.8-1.7-0.5l-2.5,1.4c-0.6,0.3-1.5,0.2-2-0.2l-1.1-0.9c-0.6-0.4-0.9-1.2-0.7-1.9
			l0.8-2.8c0.2-0.6-0.2-1.3-0.8-1.5l-4.3-1.2c-0.7-0.2-1.3,0.2-1.5,0.8l-0.8,2.8c-0.2,0.6-0.9,1.2-1.6,1.2l-1.4,0.2
			c-0.7,0.1-1.5-0.3-1.8-0.9l-1.4-2.5c-0.3-0.6-1.1-0.8-1.7-0.5l-3.9,2.2c-0.6,0.3-0.8,1.1-0.5,1.7l1.4,2.6c0.3,0.6,0.2,1.5-0.2,2
			l-0.9,1.1c-0.4,0.6-1.2,0.9-1.9,0.7l-2.8-0.8c-0.6-0.2-1.3,0.2-1.5,0.8l-1.2,4.3c-0.2,0.6,0.2,1.3,0.8,1.5l2.8,0.8
			c0.7,0.2,1.2,0.9,1.2,1.6l0.2,1.4c0.1,0.7-0.3,1.5-0.9,1.8l-2.6,1.4c-0.6,0.3-0.8,1.1-0.5,1.7l2.2,3.9c0.3,0.6,1.1,0.8,1.7,0.5
			l2.5-1.4c0.6-0.3,1.5-0.2,2,0.2l1.1,0.9c0.6,0.4,0.9,1.2,0.7,1.9l-0.8,2.8c-0.2,0.7,0.2,1.3,0.8,1.5l4.3,1.2
			c0.6,0.2,1.3-0.2,1.5-0.8l0.8-2.8c0.2-0.7,0.9-1.2,1.6-1.2l1.4-0.2c0.7-0.1,1.5,0.3,1.8,0.9l1.4,2.6c0.3,0.6,1.1,0.8,1.7,0.5
			l3.9-2.2c0.6-0.3,0.8-1.1,0.5-1.7l-1.4-2.6c-0.3-0.6-0.2-1.5,0.2-2l0.9-1.1c0.4-0.6,1.2-0.9,1.9-0.7l2.8,0.8
			c0.6,0.2,1.3-0.2,1.5-0.8l1.2-4.3C42.1,233,41.7,232.3,41.1,232.1z M21.5,236.3c-3.2-0.9-5-4.2-4.1-7.3c0.9-3.2,4.2-5,7.3-4.1
			c3.2,0.9,5,4.2,4.1,7.4C28,235.4,24.7,237.2,21.5,236.3z"/>
  
  <animateTransform id="gear31" attributeName="transform" attributeType="xml" type="rotate"
                  from="180 23.2 230.6"
                  to="0 23.2 230.6"
                  begin="3s; gear32.end+2"
                  dur="2s"
                  repeatCount="1"
                  fill="freeze"
                  /> 
       <animateTransform id="gear32" attributeName="transform" attributeType="xml" type="rotate"
                  from="0 23.2 230.6"
                  to="180 23.2 230.6"
                  begin="gear31.end+2"
                  dur="2s"
                  repeatCount="1"
                  fill="freeze"
                  /> 
	</g>

<!-- /gear3 -->

<!-- arrows -->
<g id="arrows">
  <path class="wm_color3" d="M249.6,29.4c0-0.3-0.3-0.6-0.6-0.6l-7.2,0c-0.3,0-0.6,0.3-0.6,0.6c0,0.3,0.3,0.6,0.6,0.6l5.8,0l-30.4,30.4
	c-0.2,0.2-0.2,0.6,0,0.9c0.1,0.1,0.3,0.2,0.4,0.2c0.2,0,0.3-0.1,0.4-0.2l30.4-30.4l0,5.8c0,0.3,0.3,0.6,0.6,0.6
	c0.3,0,0.6-0.3,0.6-0.6L249.6,29.4z">
    <animate 
               attributeName="d"
               dur="3s"
               repeatCount="indefinite"
               keyTimes="0; 0.5; 1"
               
               values="M249.6,29.4c0-0.3-0.3-0.6-0.6-0.6l-7.2,0c-0.3,0-0.6,0.3-0.6,0.6c0,0.3,0.3,0.6,0.6,0.6l5.8,0l-30.4,30.4
	c-0.2,0.2-0.2,0.6,0,0.9c0.1,0.1,0.3,0.2,0.4,0.2c0.2,0,0.3-0.1,0.4-0.2l30.4-30.4l0,5.8c0,0.3,0.3,0.6,0.6,0.6
	c0.3,0,0.6-0.3,0.6-0.6L249.6,29.4z;
                       M261.2,17.8c0-0.3-0.3-0.6-0.6-0.6l-7.2,0c-0.3,0-0.6,0.3-0.6,0.6c0,0.3,0.3,0.6,0.6,0.6l5.8,0l-30.4,30.4
	c-0.2,0.2-0.2,0.6,0,0.9c0.1,0.1,0.3,0.2,0.4,0.2c0.2,0,0.3-0.1,0.4-0.2L260,19.3l0,5.8c0,0.3,0.3,0.6,0.6,0.6
	c0.3,0,0.6-0.3,0.6-0.6L261.2,17.8z;
                       M249.6,29.4c0-0.3-0.3-0.6-0.6-0.6l-7.2,0c-0.3,0-0.6,0.3-0.6,0.6c0,0.3,0.3,0.6,0.6,0.6l5.8,0l-30.4,30.4
	c-0.2,0.2-0.2,0.6,0,0.9c0.1,0.1,0.3,0.2,0.4,0.2c0.2,0,0.3-0.1,0.4-0.2l30.4-30.4l0,5.8c0,0.3,0.3,0.6,0.6,0.6
	c0.3,0,0.6-0.3,0.6-0.6L249.6,29.4z;"/>
  </path>
  
<path class="wm_color3" d="M261.2,45.9c0-0.3-0.3-0.6-0.6-0.6l-7.2,0c-0.3,0-0.6,0.3-0.6,0.6c0,0.3,0.3,0.6,0.6,0.6l5.8,0L235.6,70
	c-0.2,0.2-0.2,0.6,0,0.9c0.1,0.1,0.3,0.2,0.4,0.2c0.2,0,0.3-0.1,0.4-0.2L260,47.4l0,5.8c0,0.3,0.3,0.6,0.6,0.6s0.6-0.3,0.6-0.6
	L261.2,45.9z">
    <animate 
               attributeName="d"
               dur="4s"
               repeatCount="indefinite"
               keyTimes="0; 0.5; 1"
               
               values="M261.2,45.9c0-0.3-0.3-0.6-0.6-0.6l-7.2,0c-0.3,0-0.6,0.3-0.6,0.6c0,0.3,0.3,0.6,0.6,0.6l5.8,0L235.6,70
	c-0.2,0.2-0.2,0.6,0,0.9c0.1,0.1,0.3,0.2,0.4,0.2c0.2,0,0.3-0.1,0.4-0.2L260,47.4l0,5.8c0,0.3,0.3,0.6,0.6,0.6s0.6-0.3,0.6-0.6
	L261.2,45.9z;
                       M266.9,40.5c0-0.3-0.3-0.6-0.6-0.6l-7.2,0c-0.3,0-0.6,0.3-0.6,0.6c0,0.3,0.3,0.6,0.6,0.6l5.8,0l-23.5,23.5
	c-0.2,0.2-0.2,0.6,0,0.9c0.1,0.1,0.3,0.2,0.4,0.2c0.2,0,0.3-0.1,0.4-0.2L265.6,42l0,5.8c0,0.3,0.3,0.6,0.6,0.6s0.6-0.3,0.6-0.6
	L266.9,40.5z;
                       M261.2,45.9c0-0.3-0.3-0.6-0.6-0.6l-7.2,0c-0.3,0-0.6,0.3-0.6,0.6c0,0.3,0.3,0.6,0.6,0.6l5.8,0L235.6,70
	c-0.2,0.2-0.2,0.6,0,0.9c0.1,0.1,0.3,0.2,0.4,0.2c0.2,0,0.3-0.1,0.4-0.2L260,47.4l0,5.8c0,0.3,0.3,0.6,0.6,0.6s0.6-0.3,0.6-0.6
	L261.2,45.9z;"/>
  </path>
  
  
  
<path class="wm_color3" d="M296.7,12.3c0-0.3-0.3-0.6-0.6-0.6l-7.2,0c-0.3,0-0.6,0.3-0.6,0.6c0,0.3,0.3,0.6,0.6,0.6l5.8,0l-23.8,23.8
	c-0.2,0.2-0.2,0.6,0,0.9c0.1,0.1,0.3,0.2,0.4,0.2c0.2,0,0.3-0.1,0.4-0.2l23.8-23.8l0,5.8c0,0.3,0.3,0.6,0.6,0.6
	c0.3,0,0.6-0.3,0.6-0.6L296.7,12.3z">
    <animate 
               attributeName="d"
               dur="3s"
             begin="1s"
               repeatCount="indefinite"
               keyTimes="0; 0.5; 1"
               
               values="M296.7,12.3c0-0.3-0.3-0.6-0.6-0.6l-7.2,0c-0.3,0-0.6,0.3-0.6,0.6c0,0.3,0.3,0.6,0.6,0.6l5.8,0l-23.8,23.8
	c-0.2,0.2-0.2,0.6,0,0.9c0.1,0.1,0.3,0.2,0.4,0.2c0.2,0,0.3-0.1,0.4-0.2l23.8-23.8l0,5.8c0,0.3,0.3,0.6,0.6,0.6
	c0.3,0,0.6-0.3,0.6-0.6L296.7,12.3z;
                       M301.9,7.1c0-0.3-0.3-0.6-0.6-0.6l-7.2,0c-0.3,0-0.6,0.3-0.6,0.6c0,0.3,0.3,0.6,0.6,0.6l5.8,0L276,31.5
		c-0.2,0.2-0.2,0.6,0,0.9c0.1,0.1,0.3,0.2,0.4,0.2c0.2,0,0.3-0.1,0.4-0.2l23.8-23.8l0,5.8c0,0.3,0.3,0.6,0.6,0.6
		c0.3,0,0.6-0.3,0.6-0.6L301.9,7.1z;
                       M296.7,12.3c0-0.3-0.3-0.6-0.6-0.6l-7.2,0c-0.3,0-0.6,0.3-0.6,0.6c0,0.3,0.3,0.6,0.6,0.6l5.8,0l-23.8,23.8
	c-0.2,0.2-0.2,0.6,0,0.9c0.1,0.1,0.3,0.2,0.4,0.2c0.2,0,0.3-0.1,0.4-0.2l23.8-23.8l0,5.8c0,0.3,0.3,0.6,0.6,0.6
	c0.3,0,0.6-0.3,0.6-0.6L296.7,12.3z;"/>
  </path>
  
  
  
<path class="wm_color3" d="M294.8,51.2c0-0.3-0.3-0.6-0.6-0.6l-7.2,0c-0.3,0-0.6,0.3-0.6,0.6c0,0.3,0.3,0.6,0.6,0.6l5.8,0l-10.4,10.4
	c-0.2,0.2-0.2,0.6,0,0.9c0.1,0.1,0.3,0.2,0.4,0.2c0.2,0,0.3-0.1,0.4-0.2l10.4-10.4l0,5.8c0,0.3,0.3,0.6,0.6,0.6
	c0.3,0,0.6-0.3,0.6-0.6L294.8,51.2z">
    <animate 
               attributeName="d"
               dur="4s"
               repeatCount="indefinite"
               keyTimes="0; 0.5; 1"
               
               values="M294.8,51.2c0-0.3-0.3-0.6-0.6-0.6l-7.2,0c-0.3,0-0.6,0.3-0.6,0.6c0,0.3,0.3,0.6,0.6,0.6l5.8,0l-10.4,10.4
	c-0.2,0.2-0.2,0.6,0,0.9c0.1,0.1,0.3,0.2,0.4,0.2c0.2,0,0.3-0.1,0.4-0.2l10.4-10.4l0,5.8c0,0.3,0.3,0.6,0.6,0.6
	c0.3,0,0.6-0.3,0.6-0.6L294.8,51.2z;
                       M289.3,56.9c0-0.3-0.3-0.6-0.6-0.6l-7.2,0c-0.3,0-0.6,0.3-0.6,0.6c0,0.3,0.3,0.6,0.6,0.6l5.8,0L276.8,68
		c-0.2,0.2-0.2,0.6,0,0.9c0.1,0.1,0.3,0.2,0.4,0.2c0.2,0,0.3-0.1,0.4-0.2l10.4-10.4l0,5.8c0,0.3,0.3,0.6,0.6,0.6
		c0.3,0,0.6-0.3,0.6-0.6L289.3,56.9z;
                       M294.8,51.2c0-0.3-0.3-0.6-0.6-0.6l-7.2,0c-0.3,0-0.6,0.3-0.6,0.6c0,0.3,0.3,0.6,0.6,0.6l5.8,0l-10.4,10.4
	c-0.2,0.2-0.2,0.6,0,0.9c0.1,0.1,0.3,0.2,0.4,0.2c0.2,0,0.3-0.1,0.4-0.2l10.4-10.4l0,5.8c0,0.3,0.3,0.6,0.6,0.6
	c0.3,0,0.6-0.3,0.6-0.6L294.8,51.2z;"/>
  </path>
  
  
<path class="wm_color3" d="M217.8,76.5c0-0.3-0.3-0.6-0.6-0.6l-7.2,0c-0.3,0-0.6,0.3-0.6,0.6c0,0.3,0.3,0.6,0.6,0.6l5.8,0l-10.4,10.4
	c-0.2,0.2-0.2,0.6,0,0.9c0.1,0.1,0.3,0.2,0.4,0.2c0.2,0,0.3-0.1,0.4-0.2l10.4-10.4l0,5.8c0,0.3,0.3,0.6,0.6,0.6
	c0.3,0,0.6-0.3,0.6-0.6L217.8,76.5z"/>
  
  
<path class="wm_color3" d="M250.2,78.9c0-0.3-0.3-0.6-0.6-0.6l-7.2,0c-0.3,0-0.6,0.3-0.6,0.6c0,0.3,0.3,0.6,0.6,0.6l5.8,0l-47.6,47.6
	c-0.2,0.2-0.2,0.6,0,0.9c0.1,0.1,0.3,0.2,0.4,0.2s0.3-0.1,0.4-0.2L249,80.4l0,5.8c0,0.3,0.3,0.6,0.6,0.6c0.3,0,0.6-0.3,0.6-0.6
	L250.2,78.9z">
    <animate 
               attributeName="d"
               dur="6s"
               repeatCount="indefinite"
               keyTimes="0; 0.5; 1"
               
               values="M250.2,78.9c0-0.3-0.3-0.6-0.6-0.6l-7.2,0c-0.3,0-0.6,0.3-0.6,0.6c0,0.3,0.3,0.6,0.6,0.6l5.8,0l-47.6,47.6
	c-0.2,0.2-0.2,0.6,0,0.9c0.1,0.1,0.3,0.2,0.4,0.2s0.3-0.1,0.4-0.2L249,80.4l0,5.8c0,0.3,0.3,0.6,0.6,0.6c0.3,0,0.6-0.3,0.6-0.6
	L250.2,78.9z;
                       M269.4,59.7c0-0.3-0.3-0.6-0.6-0.6l-7.2,0c-0.3,0-0.6,0.3-0.6,0.6c0,0.3,0.3,0.6,0.6,0.6l5.8,0l-47.6,47.6
	c-0.2,0.2-0.2,0.6,0,0.9c0.1,0.1,0.3,0.2,0.4,0.2s0.3-0.1,0.4-0.2l47.6-47.6l0,5.8c0,0.3,0.3,0.6,0.6,0.6c0.3,0,0.6-0.3,0.6-0.6
	L269.4,59.7z;
                       M250.2,78.9c0-0.3-0.3-0.6-0.6-0.6l-7.2,0c-0.3,0-0.6,0.3-0.6,0.6c0,0.3,0.3,0.6,0.6,0.6l5.8,0l-47.6,47.6
	c-0.2,0.2-0.2,0.6,0,0.9c0.1,0.1,0.3,0.2,0.4,0.2s0.3-0.1,0.4-0.2L249,80.4l0,5.8c0,0.3,0.3,0.6,0.6,0.6c0.3,0,0.6-0.3,0.6-0.6
	L250.2,78.9z;"/>
  </path>
  
<path class="wm_color3" d="M214.1,31.8c0-0.3-0.3-0.6-0.6-0.6l-7.2,0c-0.3,0-0.6,0.3-0.6,0.6s0.3,0.6,0.6,0.6l5.8,0l-10.4,10.4
	c-0.2,0.2-0.2,0.6,0,0.9c0.1,0.1,0.3,0.2,0.4,0.2c0.2,0,0.3-0.1,0.4-0.2l10.4-10.4l0,5.8c0,0.3,0.3,0.6,0.6,0.6
	c0.3,0,0.6-0.3,0.6-0.6L214.1,31.8z"/>
</g>
  

  

<!-- /arrows -->
  
  
  
<!-- cloud -->
<path id="moutionpath1" fill="none" stroke="none" d="M64.7-1.3c0,0-81.9,10.3-83.9-26.9s109.3-14,109.3-14"/>
<path id="moutionpath2" fill="none" stroke="none" d="M90.1-42.2c0,0-111.3-23.2-109.3,14S64.7-1.3,64.7-1.3"/>
  
<g id="cloud">
	<path class="wm_color4" d="M161.5,88c0-11.5-9.3-20.8-20.8-20.8c-2.5,0-4.8,0.5-7,1.3c-2.5-10.7-12.1-18.7-23.6-18.7
		c-13.2,0-24,10.6-24.3,23.8c-1.2-0.2-2.4-0.4-3.6-0.4c-9.8,0-17.8,8-17.8,17.8c0,8.1,5.4,14.9,12.7,17.1c1.5,0.5,3,0.8,4.7,0.8h60
		c1.8,0,3.6-0.4,5.2-1C155.4,105.2,161.5,97.3,161.5,88z"/>
	<path class="wm_color5" d="M140.7,67.2c-2.5,0-4.8,0.5-7,1.3c-2.5-10.7-12.1-18.7-23.6-18.7c-0.4,0-0.9,0-1.3,0.1v59h33
		c1.8,0,3.6-0.4,5.2-1c8.4-2.6,14.5-10.5,14.5-19.8C161.5,76.5,152.2,67.2,140.7,67.2z"/>
	<path class="wm_color6" d="M147,107.9c8.4-2.6,14.5-10.5,14.5-19.8c0-11.5-9.3-20.8-20.8-20.8c-2.5,0-4.8,0.5-7,1.3
		c-0.5-2.3-1.4-4.4-2.5-6.4c-0.7,1.8-1.2,3.7-1.2,5.7c-0.8-0.2-1.6-0.2-2.4-0.2c-6.5,0-11.7,5.3-11.7,11.7c0,3.4,1.4,6.4,3.7,8.5
		l0,0l20.9,20.9h1.3C143.6,108.8,145.4,108.5,147,107.9z"/>
	<path class="wm_color3" d="M179.9,77.4c0-7.6-6.1-13.7-13.7-13.7c-1.6,0-3.2,0.3-4.6,0.8c-1.7-7.1-8-12.3-15.6-12.3
		c-8.7,0-15.8,7-16,15.7c-0.8-0.2-1.6-0.2-2.4-0.2c-6.5,0-11.7,5.3-11.7,11.7c0,5.3,3.5,9.8,8.4,11.2c1,0.3,2,0.5,3.1,0.5h39.5
		c1.2,0,2.4-0.2,3.4-0.6C175.8,88.7,179.9,83.5,179.9,77.4z"/>
	<path class="wm_color7" d="M166.2,63.7c-1.6,0-3.2,0.3-4.6,0.8c-1.5-6.6-7.1-11.6-14-12.3v38.8h19.3c1.2,0,2.4-0.2,3.4-0.6
		c5.6-1.7,9.6-6.9,9.6-13.1C179.9,69.8,173.7,63.7,166.2,63.7z"/>
</g>
  
  <animateMotion id="cloud1" 
           xlink:href="#cloud"
           dur="5s"
           begin="1s; cloud2.end+4s"
           fill="freeze"
           repeatCount="1">
    <mpath xlink:href="#moutionpath1" />
  </animateMotion>
  
  <animateMotion id="cloud2"
           xlink:href="#cloud"
           dur="5s"
           begin="cloud1.end+1s"
           fill="freeze"
           repeatCount="1">
    <mpath xlink:href="#moutionpath2" />
  </animateMotion>
  
  
  
<!-- /cloud -->
  
<!-- Statik -->
  
<g id="arrows">
</g>
<g id="Statik_statik">
	<g>
		<path class="wm_color4" d="M146.6,250c-2.4,9.8-4.8,19.5-7.2,29.3c22.3,0,44.6,0,66.9,0c-2.4-9.8-4.8-19.5-7.2-29.3
			C181.7,250,164.2,250,146.6,250z"/>
		<path class="wm_color3" d="M210.5,278.8h-75.1c-1.9,0-3.5,1.8-3.5,4.1v1.5h82v-1.5C213.9,280.6,212.4,278.8,210.5,278.8z"/>
		<path class="wm_color3" d="M60,238.6v16.1c0,3.1,2.5,5.6,5.6,5.6h214.7c3.1,0,5.6-2.5,5.6-5.6v-16.1H60z"/>
		<path class="wm_color2" d="M285.9,238.6V102c0-3.1-2.5-5.6-5.6-5.6H65.6c-3.1,0-5.6,2.5-5.6,5.6v136.7H285.9z"/>
		<rect x="69.2" y="105.1" class="wm_color8" width="207.4" height="124.2"/>
		<polygon class="wm_color9" points="69.2,229.3 276.6,105.1 276.6,229.3 		"/>
	</g>
</g>  
<!-- /Statik -->
  
  
<!-- gear4 -->
<g id="gear4">
	<g>
		<path class="wm_color5" d="M147.2,213.8l-2.5-5.3c1.7-1.3,3.3-2.6,4.7-4.1l4.7,3.3c1.1,0.8,2.7,0.5,3.4-0.6l5.7-8.1
			c0.8-1.1,0.5-2.7-0.6-3.4l-4.9-3.4c0.8-1.9,1.5-3.9,2-5.9l5.7,0.5c1.4,0.1,2.6-0.9,2.7-2.3l0.8-9.9c0.1-1.4-0.9-2.6-2.3-2.7
			l-5.9-0.5c-0.2-2.1-0.6-4.1-1.2-6.2l5.2-2.4c1.2-0.6,1.8-2.1,1.2-3.3l-4.2-9c-0.6-1.2-2.1-1.8-3.3-1.2l-5.4,2.5
			c-1.3-1.7-2.6-3.3-4.1-4.7l3.3-4.7c0.8-1.1,0.5-2.7-0.6-3.5l-8.1-5.6c-1.1-0.8-2.7-0.5-3.4,0.6l-3.4,4.9c-1.9-0.8-3.9-1.5-5.9-2.1
			l0.5-5.7c0.1-1.4-0.9-2.6-2.3-2.7l-9.9-0.8c-1.4-0.1-2.6,0.9-2.7,2.3l-0.5,5.9c-2.1,0.2-4.1,0.6-6.2,1.2l-2.4-5.2
			c-0.6-1.2-2.1-1.8-3.3-1.2l-9,4.2c-1.2,0.6-1.8,2.1-1.2,3.3l2.5,5.3c-1.7,1.3-3.3,2.6-4.7,4.1l-4.7-3.3c-1.1-0.8-2.7-0.5-3.4,0.6
			l-5.7,8.1c-0.8,1.1-0.5,2.7,0.6,3.5l4.9,3.4c-0.8,1.9-1.5,3.9-2.1,5.9l-5.7-0.5c-1.4-0.1-2.6,0.9-2.7,2.3l-0.8,9.9
			c-0.1,1.4,0.9,2.6,2.2,2.7l5.9,0.5c0.2,2.1,0.6,4.1,1.2,6.2l-5.2,2.4c-1.2,0.6-1.8,2.1-1.2,3.3l4.2,9c0.6,1.2,2.1,1.8,3.3,1.2
			L88,200c1.3,1.7,2.6,3.3,4.1,4.7l-3.3,4.7c-0.8,1.1-0.5,2.7,0.6,3.4l8.1,5.7c1.1,0.8,2.7,0.5,3.5-0.6l3.4-4.9
			c1.9,0.8,3.9,1.5,5.9,2.1l-0.5,5.7c-0.1,1.4,0.9,2.6,2.3,2.7l9.9,0.8c1.4,0.1,2.6-0.9,2.7-2.3l0.5-5.9c2.1-0.2,4.1-0.6,6.2-1.2
			l2.4,5.2c0.6,1.2,2.1,1.8,3.3,1.2l9-4.2C147.3,216.5,147.8,215,147.2,213.8z M104.8,183.3c-4.1-8.7-0.4-19.1,8.4-23.2
			c8.7-4.1,19.1-0.4,23.2,8.4c4.1,8.7,0.4,19.1-8.4,23.2C119.3,195.7,108.9,192,104.8,183.3z"/>
		<path class="wm_color4" d="M97,186c-5.5-12.7,0.1-27.5,12.7-33.4c12.6-5.9,27.5-0.7,33.8,11.5l20.3-9.6l-2-4.2c-0.6-1.2-2.1-1.8-3.3-1.2
			l-5.4,2.5c-1.3-1.7-2.6-3.3-4.1-4.7l3.3-4.7c0.8-1.1,0.5-2.7-0.6-3.5l-8.1-5.6c-1.1-0.8-2.7-0.5-3.4,0.6l-3.4,4.9
			c-1.9-0.8-3.9-1.5-5.9-2.1l0.5-5.7c0.1-1.4-0.9-2.6-2.3-2.7l-9.9-0.8c-1.4-0.1-2.6,0.9-2.7,2.3l-0.5,5.9c-2.1,0.2-4.1,0.6-6.2,1.2
			l-2.4-5.2c-0.6-1.2-2.1-1.8-3.3-1.2l-9,4.2c-1.2,0.6-1.8,2.1-1.2,3.3l2.5,5.3c-1.7,1.3-3.3,2.6-4.7,4.1l-4.7-3.3
			c-1.1-0.8-2.7-0.5-3.4,0.6l-5.7,8.1c-0.8,1.1-0.5,2.7,0.6,3.5l4.9,3.4c-0.8,1.9-1.5,3.9-2.1,5.9l-5.7-0.5
			c-1.4-0.1-2.6,0.9-2.7,2.3l-0.8,9.9c-0.1,1.4,0.9,2.6,2.2,2.7l5.9,0.5c0.2,2.1,0.6,4.1,1.2,6.2l-5.2,2.4c-1.2,0.6-1.8,2.1-1.2,3.3
			l1.5,3.2L97,186z"/>
		<g>
			<path class="wm_color5" d="M120.6,208c-12.4,0-23.9-7.3-29.1-18.5c-3.7-7.8-4.1-16.5-1.2-24.6c2.9-8.1,8.8-14.6,16.6-18.2
				c4.3-2,8.9-3.1,13.7-3.1c12.4,0,23.9,7.3,29.1,18.5c3.7,7.8,4.1,16.5,1.2,24.6c-2.9,8.1-8.8,14.6-16.6,18.2
				C129.9,207,125.3,208,120.6,208L120.6,208z M120.6,144.8c-4.6,0-9,1-13.2,3c-7.5,3.5-13.2,9.8-16,17.5
				c-2.8,7.8-2.4,16.2,1.1,23.7c5.1,10.8,16.1,17.8,28.1,17.8c4.6,0,9-1,13.2-3c7.5-3.5,13.2-9.8,16-17.5c2.8-7.8,2.4-16.2-1.1-23.7
				C143.5,151.8,132.5,144.8,120.6,144.8L120.6,144.8z"/>
		</g>
		<g>
			<path class="wm_color4" d="M120.6,208c-12.1,0-23.7-6.8-29.2-18.5l1.1-0.5c7.3,15.5,25.8,22.1,41.2,14.9c7.5-3.5,13.2-9.8,16-17.5
				c2.8-7.8,2.4-16.2-1.1-23.7l1.1-0.5c3.7,7.8,4.1,16.5,1.2,24.6c-2.9,8.1-8.8,14.6-16.6,18.2C129.9,207,125.2,208,120.6,208
				L120.6,208z"/>
		</g>
		<path class="wm_color4" d="M143.3,165.2l-6.9,3.3c4.1,8.7,0.4,19.1-8.4,23.2c-8.7,4.1-19.1,0.4-23.2-8.4l-6.9,3.3
			c5.9,12.5,20.9,17.9,33.4,12C143.8,192.7,149.2,177.7,143.3,165.2z"/>
	</g>
  
  <animateTransform id="gear41" attributeName="transform" attributeType="xml" type="rotate"
                  from="0 120.6 175.8"
                  to="172 120.6 175.8"
                  begin="1s; gear42.end+3"
                  dur="2s"
                  repeatCount="1"
                  fill="freeze"
                  /> 
       <animateTransform id="gear42" attributeName="transform" attributeType="xml" type="rotate"
                  from="172 120.6 175.8"
                  to="0 120.6 175.8"
                  begin="gear41.end+3"
                  dur="2s"
                  repeatCount="1"
                  fill="freeze"
                  /> 
</g>

<!-- /gear4 --> 
  
  
<!-- gear5 --> 
  
 <g id="gear5">
	<g>
		<path class="wm_color2" d="M202.8,90.3c-21.4-11.8-48.3-4.1-60.1,17.3c-11.8,21.4-4.1,48.3,17.3,60.1c21.4,11.8,48.3,4.1,60.1-17.3
			C231.9,129,224.2,102.1,202.8,90.3z M176,138.6c-5.3-2.9-7.2-9.6-4.3-14.9c2.9-5.3,9.6-7.2,14.9-4.3c5.3,2.9,7.2,9.6,4.3,14.9
			C188,139.6,181.4,141.5,176,138.6z"/>
		<g>
			<path class="wm_color2" d="M211.1,97c-0.2,0.2-0.5,0.3-0.8,0.1l-3.5-2.8c-0.2-0.2-0.3-0.5-0.1-0.8l2.7-3.3c0.2-0.2,0.5-0.3,0.8-0.1
				l3.5,2.8c0.2,0.2,0.3,0.5,0.1,0.8L211.1,97z"/>
			<path class="wm_color2" d="M198.4,88.7c-0.1,0.3-0.4,0.5-0.7,0.4l-4.3-1.4c-0.3-0.1-0.5-0.4-0.4-0.7l1.4-4c0.1-0.3,0.4-0.5,0.7-0.4
				l4.2,1.4c0.3,0.1,0.5,0.4,0.4,0.7L198.4,88.7z"/>
			<path class="wm_color2" d="M183.6,85.3c0,0.3-0.2,0.6-0.5,0.6l-4.5,0.1c-0.3,0-0.6-0.2-0.6-0.5l-0.1-4.3c0-0.3,0.2-0.6,0.5-0.6l4.5-0.1
				c0.3,0,0.6,0.2,0.6,0.5L183.6,85.3z"/>
			<path class="wm_color2" d="M168.6,87.2c0.1,0.3,0,0.6-0.3,0.7l-4.2,1.6c-0.3,0.1-0.6,0-0.7-0.3l-1.6-4c-0.1-0.3,0-0.6,0.3-0.7l4.2-1.6
				c0.3-0.1,0.6,0,0.7,0.3L168.6,87.2z"/>
			<path class="wm_color2" d="M155.1,94.1c0.2,0.2,0.2,0.6,0,0.8l-3.4,3c-0.2,0.2-0.6,0.2-0.8,0l-2.8-3.2c-0.2-0.2-0.2-0.6,0-0.8l3.4-3
				c0.2-0.2,0.6-0.2,0.8,0L155.1,94.1z"/>
			<path class="wm_color2" d="M144.7,105.2c0.3,0.1,0.4,0.5,0.2,0.8l-2.1,3.9c-0.1,0.3-0.5,0.4-0.8,0.2l-3.7-2c-0.3-0.1-0.4-0.5-0.2-0.8
				l2.1-3.9c0.1-0.3,0.5-0.4,0.8-0.2L144.7,105.2z"/>
			<path class="wm_color2" d="M138.8,119.2c0.3,0,0.5,0.3,0.5,0.6l-0.7,4.4c0,0.3-0.3,0.5-0.6,0.5l-4.2-0.6c-0.3,0-0.5-0.3-0.5-0.6
				l0.7-4.4c0-0.3,0.3-0.5,0.6-0.5L138.8,119.2z"/>
			<path class="wm_color2" d="M138,134.3c0.3-0.1,0.6,0.1,0.7,0.4l0.9,4.4c0.1,0.3-0.1,0.6-0.4,0.7l-4.2,0.8c-0.3,0.1-0.6-0.1-0.7-0.4
				l-0.9-4.4c-0.1-0.3,0.1-0.6,0.4-0.7L138,134.3z"/>
			<path class="wm_color2" d="M142.5,148.8c0.3-0.2,0.6-0.1,0.8,0.2l2.3,3.8c0.2,0.3,0.1,0.6-0.2,0.8l-3.6,2.2c-0.3,0.2-0.6,0.1-0.8-0.2
				l-2.3-3.8c-0.2-0.3-0.1-0.6,0.2-0.8L142.5,148.8z"/>
			<path class="wm_color2" d="M151.6,160.9c0.2-0.2,0.5-0.3,0.8-0.1l3.5,2.8c0.2,0.2,0.3,0.5,0.1,0.8l-2.7,3.3c-0.2,0.2-0.5,0.3-0.8,0.1
				l-3.5-2.8c-0.2-0.2-0.3-0.5-0.1-0.8L151.6,160.9z"/>
			<path class="wm_color2" d="M164.3,169.2c0.1-0.3,0.4-0.5,0.7-0.4l4.3,1.4c0.3,0.1,0.5,0.4,0.4,0.7l-1.4,4c-0.1,0.3-0.4,0.5-0.7,0.4
				l-4.3-1.4c-0.3-0.1-0.5-0.4-0.4-0.7L164.3,169.2z"/>
			<path class="wm_color2" d="M179.1,172.6c0-0.3,0.2-0.6,0.5-0.6l4.5-0.1c0.3,0,0.6,0.2,0.6,0.5l0.1,4.3c0,0.3-0.2,0.6-0.5,0.6l-4.5,0.1
				c-0.3,0-0.6-0.2-0.6-0.5L179.1,172.6z"/>
			<path class="wm_color2" d="M194.2,170.7c-0.1-0.3,0-0.6,0.3-0.7l4.2-1.6c0.3-0.1,0.6,0,0.7,0.3l1.6,4c0.1,0.3,0,0.6-0.3,0.7l-4.2,1.6
				c-0.3,0.1-0.6,0-0.7-0.3L194.2,170.7z"/>
			<path class="wm_color2" d="M207.7,163.8c-0.2-0.2-0.2-0.6,0-0.8l3.4-3c0.2-0.2,0.6-0.2,0.8,0l2.8,3.2c0.2,0.2,0.2,0.6,0,0.8l-3.4,3
				c-0.2,0.2-0.6,0.2-0.8-0.1L207.7,163.8z"/>
			<path class="wm_color2" d="M218,152.7c-0.3-0.1-0.4-0.5-0.2-0.8l2.1-3.9c0.1-0.3,0.5-0.4,0.8-0.2l3.7,2c0.3,0.1,0.4,0.5,0.2,0.8
				l-2.1,3.9c-0.1,0.3-0.5,0.4-0.8,0.2L218,152.7z"/>
			<path class="wm_color2" d="M223.9,138.8c-0.3,0-0.5-0.3-0.5-0.6l0.7-4.4c0-0.3,0.3-0.5,0.6-0.5l4.2,0.6c0.3,0,0.5,0.3,0.5,0.6l-0.7,4.4
				c0,0.3-0.3,0.5-0.6,0.5L223.9,138.8z"/>
			<path class="wm_color2" d="M224.7,123.6c-0.3,0.1-0.6-0.1-0.7-0.4l-0.9-4.4c-0.1-0.3,0.1-0.6,0.4-0.7l4.2-0.8c0.3-0.1,0.6,0.1,0.7,0.4
				l0.9,4.4c0.1,0.3-0.1,0.6-0.4,0.7L224.7,123.6z"/>
			<path class="wm_color2" d="M220.3,109.1c-0.3,0.2-0.6,0.1-0.8-0.2l-2.3-3.8c-0.2-0.3-0.1-0.6,0.2-0.8l3.6-2.2c0.3-0.2,0.6-0.1,0.8,0.2
				l2.3,3.8c0.2,0.3,0.1,0.6-0.2,0.8L220.3,109.1z"/>
		</g>
		<g>
			<path class="wm_color11" d="M181.4,165.3c-3.4,0-6.7-0.5-10-1.4c-9.3-2.7-17-8.8-21.7-17.3c-4.7-8.5-5.8-18.3-3.1-27.6
				c4.4-15.5,18.8-26.3,34.9-26.3c3.4,0,6.7,0.5,10,1.4c9.3,2.7,17,8.8,21.7,17.3c4.7,8.5,5.8,18.3,3.1,27.6
				C211.8,154.5,197.5,165.3,181.4,165.3L181.4,165.3z M181.4,96.2c-14.5,0-27.4,9.8-31.5,23.7c-2.4,8.4-1.4,17.2,2.8,24.9
				c4.2,7.7,11.2,13.2,19.6,15.6c3,0.8,6,1.3,9,1.3c14.5,0,27.4-9.8,31.5-23.7c2.4-8.4,1.4-17.3-2.8-24.9
				c-4.2-7.6-11.2-13.2-19.6-15.6C187.4,96.6,184.4,96.2,181.4,96.2L181.4,96.2z"/>
		</g>
		<g>
			<path class="wm_color11" d="M181.4,149.1c-1.9,0-3.7-0.3-5.6-0.8c-10.7-3.1-16.9-14.2-13.8-24.9c2.5-8.6,10.4-14.6,19.4-14.6
				c1.9,0,3.7,0.3,5.6,0.8c5.2,1.5,9.5,4.9,12.1,9.6c2.6,4.7,3.2,10.2,1.7,15.3C198.3,143.1,190.3,149.1,181.4,149.1L181.4,149.1z
				 M181.4,110c-8.4,0-15.9,5.7-18.2,13.7c-2.9,10.1,3,20.6,13,23.5c1.7,0.5,3.5,0.7,5.2,0.7c8.4,0,15.9-5.7,18.2-13.8
				c1.4-4.9,0.8-10-1.6-14.4c-2.5-4.4-6.5-7.6-11.4-9C184.9,110.2,183.1,110,181.4,110L181.4,110z"/>
		</g>
		<g>
			<path class="wm_color11" d="M181.4,153.1c-2.2,0-4.5-0.3-6.7-0.9c-6.2-1.8-11.3-5.8-14.4-11.5c-3.1-5.6-3.9-12.1-2.1-18.3
				c2.9-10.3,12.5-17.5,23.1-17.5c2.2,0,4.5,0.3,6.7,0.9c6.2,1.8,11.3,5.9,14.4,11.5c3.1,5.6,3.9,12.1,2.1,18.3
				C201.6,145.9,192.1,153.1,181.4,153.1L181.4,153.1z M181.4,106.1c-10.2,0-19.2,6.8-22,16.6c-1.7,5.9-1,12.1,2,17.4
				c3,5.4,7.8,9.2,13.7,10.9c2.1,0.6,4.2,0.9,6.3,0.9c10.2,0,19.2-6.8,22-16.6c1.7-5.9,1-12.1-2-17.4c-3-5.4-7.8-9.2-13.7-10.9
				C185.6,106.4,183.5,106.1,181.4,106.1L181.4,106.1z"/>
		</g>
		<ellipse transform="matrix(0.2757 -0.9612 0.9612 0.2757 7.3929 267.7503)" class="wm_color12" cx="181.4" cy="129" rx="6.2" ry="6.2"/>
	</g>
   
   <animateTransform id="gear51" attributeName="transform" attributeType="xml" type="rotate"
                  from="0 181.4 129"
                  to="192 181.4 129"
                  begin="1s; gear52.end+3"
                  dur="2s"
                  repeatCount="1"
                  fill="freeze"
                  /> 
       <animateTransform id="gear52" attributeName="transform" attributeType="xml" type="rotate"
                  from="192 181.4 129"
                  to="0 181.4 129"
                  begin="gear51.end+3"
                  dur="2s"
                  repeatCount="1"
                  fill="freeze"
                  /> 
</g> 
  
  
<!-- /gear5 --> 

<!--  gear6 --> 
<g id="gear6">
	<g>
		<path class="wm_color11" d="M296,124.1l-2.5-0.7c0.1-0.9,0.1-1.9,0-2.8l2.4-0.6c0.6-0.1,0.9-0.7,0.8-1.3l-1.1-4.2
			c-0.1-0.6-0.7-0.9-1.3-0.8l-2.5,0.6c-0.4-0.8-0.9-1.6-1.4-2.4l1.8-1.8c0.4-0.4,0.4-1.1,0-1.6l-3-3.1c-0.4-0.4-1.1-0.4-1.5,0
			l-1.9,1.8c-0.8-0.5-1.6-1-2.4-1.4l0.7-2.4c0.2-0.6-0.2-1.2-0.7-1.4l-4.2-1.2c-0.6-0.2-1.2,0.2-1.4,0.7l-0.7,2.5
			c-0.9-0.1-1.9-0.1-2.8,0l-0.6-2.4c-0.1-0.6-0.7-0.9-1.3-0.8l-4.2,1.1c-0.6,0.1-0.9,0.7-0.8,1.3l0.6,2.5c-0.8,0.4-1.6,0.9-2.4,1.4
			l-1.8-1.8c-0.4-0.4-1.1-0.4-1.6,0l-3.2,3c-0.4,0.4-0.4,1.1,0,1.5l1.8,1.9c-0.5,0.8-1,1.6-1.4,2.4l-2.4-0.7
			c-0.6-0.2-1.2,0.2-1.4,0.8l-1.2,4.2c-0.2,0.6,0.2,1.2,0.8,1.4l2.5,0.7c-0.1,0.9-0.1,1.9,0,2.8l-2.4,0.6c-0.6,0.1-0.9,0.7-0.8,1.3
			l1.1,4.3c0.1,0.6,0.7,0.9,1.3,0.8l2.5-0.6c0.4,0.8,0.9,1.6,1.4,2.4l-1.8,1.8c-0.4,0.4-0.5,1.1,0,1.5l3,3.2c0.4,0.4,1.1,0.4,1.5,0
			l1.9-1.8c0.8,0.5,1.6,1,2.4,1.4l-0.7,2.4c-0.2,0.6,0.2,1.2,0.7,1.4l4.2,1.2c0.6,0.2,1.2-0.2,1.4-0.8l0.7-2.5
			c0.9,0.1,1.9,0.1,2.8,0l0.6,2.4c0.1,0.6,0.7,0.9,1.3,0.8l4.3-1.1c0.6-0.1,0.9-0.7,0.8-1.3l-0.6-2.5c0.8-0.4,1.6-0.9,2.4-1.4
			l1.8,1.8c0.4,0.4,1.1,0.4,1.5,0l3.2-3c0.4-0.4,0.4-1.1,0-1.5l-1.8-1.9c0.5-0.8,1-1.6,1.4-2.4l2.4,0.7c0.6,0.2,1.2-0.2,1.4-0.8
			l1.2-4.2C296.9,124.8,296.6,124.2,296,124.1z M273.5,129.3c-4.1-1.2-6.5-5.4-5.3-9.5c1.2-4.1,5.4-6.5,9.5-5.3
			c4.1,1.2,6.5,5.4,5.3,9.5C281.8,128.1,277.6,130.5,273.5,129.3z"/>
	</g>
  
  <animateTransform id="gear51" attributeName="transform" attributeType="xml" type="rotate"
                  from="0 275.6 121.9"
                  to="250 275.6 121.9"
                  begin="1s; gear52.end+3"
                  dur="2s"
                  repeatCount="1"
                  fill="freeze"
                  /> 
       <animateTransform id="gear52" attributeName="transform" attributeType="xml" type="rotate"
                  from="250 275.6 121.9"
                  to="0 275.6 121.9"
                  begin="gear51.end+3"
                  dur="2s"
                  repeatCount="1"
                  fill="freeze"
                  /> 
  
</g>
  
<!-- /gear6 --> 
  
  
<!-- gearLines -->
<g id="gearLines">
	<g>
		<g>
			<path class="wm_color3" d="M107.2,155.2c-0.2,0-0.4-0.1-0.5-0.3c-0.2-0.3-0.1-0.6,0.2-0.8l64.8-36.5c0.3-0.2,0.6-0.1,0.8,0.2
				c0.2,0.3,0.1,0.6-0.2,0.8l-64.8,36.5C107.4,155.2,107.3,155.2,107.2,155.2L107.2,155.2z"/>
		</g>
		<g>
			<path class="wm_color3" d="M138.1,194.3c-0.1,0-0.3-0.1-0.4-0.2c-0.2-0.2-0.2-0.6,0-0.8l50.1-51.8c0.2-0.2,0.6-0.2,0.8,0
				c0.2,0.2,0.2,0.6,0,0.8l-50.1,51.8C138.4,194.3,138.2,194.3,138.1,194.3L138.1,194.3z"/>
		</g>
		<g>
			<path class="wm_color13" d="M180.7,115c-0.3,0-0.6-0.3-0.6-0.6c0-0.3,0.2-0.6,0.6-0.6l94-3.1c0.3,0,0.6,0.2,0.6,0.6
				c0,0.3-0.2,0.6-0.6,0.6L180.7,115C180.8,115,180.8,115,180.7,115L180.7,115z"/>
		</g>
		<g>
			<path class="wm_color13" d="M181.4,144c-0.3,0-0.6-0.2-0.6-0.5c0-0.3,0.2-0.6,0.5-0.7l95.9-11c0.3,0,0.6,0.2,0.7,0.5
				c0,0.3-0.2,0.6-0.5,0.7L181.4,144C181.5,144,181.4,144,181.4,144L181.4,144z"/>
		</g>
		<g>
			<path class="wm_color13" d="M275.6,133.1c-1,0-2.1-0.1-3.1-0.4c-2.9-0.8-5.3-2.7-6.7-5.3c-1.5-2.6-1.8-5.6-1-8.5
				c1.4-4.8,5.8-8.1,10.8-8.1c1,0,2.1,0.1,3.1,0.4c5.9,1.7,9.4,7.9,7.7,13.9C285,129.8,280.6,133.1,275.6,133.1L275.6,133.1z
				 M275.6,111.9c-4.4,0-8.4,3-9.6,7.3c-0.7,2.6-0.4,5.3,0.9,7.6c1.3,2.3,3.4,4,6,4.8c0.9,0.3,1.8,0.4,2.8,0.4c4.4,0,8.4-3,9.6-7.3
				c1.5-5.3-1.6-10.9-6.9-12.4C277.5,112,276.5,111.9,275.6,111.9L275.6,111.9z"/>
		</g>
		<g>
			<path class="wm_color3" d="M120.6,201.5c-9.9,0-19-5.8-23.3-14.8c-2.9-6.2-3.2-13.2-0.9-19.6c2.3-6.5,7-11.6,13.2-14.5
				c3.5-1.6,7.1-2.4,10.9-2.4c9.9,0,19,5.8,23.3,14.8c6,12.8,0.5,28.2-12.3,34.2C128.1,200.7,124.4,201.5,120.6,201.5L120.6,201.5z
				 M120.6,151.3c-3.6,0-7.1,0.8-10.4,2.3c-5.9,2.8-10.4,7.7-12.6,13.9c-2.2,6.2-1.9,12.8,0.9,18.7c4,8.6,12.7,14.1,22.2,14.1
				c3.6,0,7.1-0.8,10.4-2.3c12.2-5.8,17.5-20.4,11.8-32.6C138.7,156.9,130,151.3,120.6,151.3L120.6,151.3z"/>
		</g>
		<g>
			<path class="wm_color3" d="M181.4,144.2c-1.4,0-2.8-0.2-4.2-0.6c-3.9-1.1-7.1-3.7-9.1-7.2c-2-3.6-2.4-7.7-1.3-11.6
				c1.9-6.5,7.9-11,14.6-11c1.4,0,2.8,0.2,4.2,0.6c3.9,1.1,7.1,3.7,9.1,7.2c2,3.6,2.4,7.7,1.3,11.6
				C194.1,139.6,188.1,144.2,181.4,144.2L181.4,144.2z M181.4,115.3c-6.1,0-11.5,4.1-13.2,9.9c-1,3.5-0.6,7.2,1.2,10.4
				c1.8,3.2,4.7,5.5,8.2,6.5c1.2,0.4,2.5,0.5,3.8,0.5c6.1,0,11.5-4.1,13.2-9.9c1-3.5,0.6-7.2-1.2-10.4c-1.8-3.2-4.7-5.5-8.2-6.5
				C183.9,115.4,182.6,115.3,181.4,115.3L181.4,115.3z"/>
		</g>
	</g>
</g>
<!-- /gearLines -->
  
  
<!-- Clock -->
<g id="clock">
	<g>
		<path class="wm_color2" d="M239.3,165.4c0,0.5-0.4,0.8-0.8,0.8h-5.6c-0.5,0-0.8-0.4-0.8-0.8v-12.1c0-0.5,0.4-0.8,0.8-0.8h5.6
			c0.5,0,0.8,0.4,0.8,0.8V165.4z"/>
		<path class="wm_color2" d="M228.6,166.6c0.3,0.4,0.2,0.9-0.2,1.1l-4.5,3.3c-0.4,0.3-0.9,0.2-1.1-0.2l-7.1-9.8c-0.3-0.4-0.2-0.9,0.2-1.1
			l4.5-3.3c0.4-0.3,0.9-0.2,1.1,0.2L228.6,166.6z"/>
		<path class="wm_color2" d="M220.7,173.8c0.4,0.1,0.7,0.6,0.5,1l-1.7,5.3c-0.1,0.4-0.6,0.7-1,0.5l-11.5-3.8c-0.4-0.1-0.7-0.6-0.5-1
			l1.7-5.3c0.1-0.4,0.6-0.7,1-0.5L220.7,173.8z"/>
		<path class="wm_color2" d="M218.5,184.3c0.4-0.1,0.9,0.1,1,0.5l1.7,5.3c0.1,0.4-0.1,0.9-0.5,1l-11.5,3.8c-0.4,0.1-0.9-0.1-1-0.5
			l-1.7-5.3c-0.1-0.4,0.1-0.9,0.5-1L218.5,184.3z"/>
		<path class="wm_color2" d="M223,194.1c0.3-0.4,0.8-0.4,1.1-0.2l4.5,3.3c0.4,0.3,0.4,0.8,0.2,1.1l-7.1,9.8c-0.3,0.4-0.8,0.4-1.1,0.2
			L216,205c-0.4-0.3-0.4-0.8-0.2-1.1L223,194.1z"/>
		<path class="wm_color2" d="M232.3,199.4c0-0.5,0.4-0.8,0.8-0.8h5.6c0.5,0,0.8,0.4,0.8,0.8v12.1c0,0.5-0.4,0.8-0.8,0.8l-5.6,0
			c-0.5,0-0.8-0.4-0.8-0.8V199.4z"/>
		<path class="wm_color2" d="M242.9,198.2c-0.3-0.4-0.2-0.9,0.2-1.1l4.5-3.3c0.4-0.3,0.9-0.2,1.1,0.2l7.1,9.8c0.3,0.4,0.2,0.9-0.2,1.1
			l-4.5,3.3c-0.4,0.3-0.9,0.2-1.1-0.2L242.9,198.2z"/>
		<path class="wm_color2" d="M250.8,191c-0.4-0.1-0.7-0.6-0.5-1l1.7-5.3c0.1-0.4,0.6-0.7,1-0.5l11.5,3.7c0.4,0.1,0.7,0.6,0.5,1l-1.7,5.3
			c-0.1,0.4-0.6,0.7-1,0.5L250.8,191z"/>
		<path class="wm_color2" d="M253,180.5c-0.4,0.1-0.9-0.1-1-0.5l-1.7-5.3c-0.1-0.4,0.1-0.9,0.5-1l11.5-3.7c0.4-0.1,0.9,0.1,1,0.5l1.7,5.3
			c0.1,0.4-0.1,0.9-0.5,1L253,180.5z"/>
		<path class="wm_color2" d="M248.6,170.7c-0.3,0.4-0.8,0.5-1.1,0.2l-4.5-3.3c-0.4-0.3-0.4-0.8-0.2-1.1l7.1-9.8c0.3-0.4,0.8-0.5,1.1-0.2
			l4.5,3.3c0.4,0.3,0.4,0.8,0.2,1.1L248.6,170.7z"/>
    
    <animateTransform id="clock11" attributeName="transform" attributeType="xml" type="rotate"
                  from="242 235.8 182.4"
                  to="0 235.8 182.4"
                  begin="1s; clock21.end+3"
                  dur="2s"
                  repeatCount="1"
                  fill="freeze"
                  /> 
       <animateTransform id="clock21" attributeName="transform" attributeType="xml" type="rotate"
                  from="0 235.8 182.4"
                  to="242 235.8 182.4"
                  begin="clock11.end+3"
                  dur="2s"
                  repeatCount="1"
                  fill="freeze"
                  /> 
	</g>
  
  
<g id="StatikClock">
	<g>
		<ellipse class="wm_color2" cx="235.8" cy="182.4" rx="25.8" ry="25.8"/>
		<circle class="wm_color2" cx="235.8" cy="182.4" r="24.2"/>
		<path class="wm_color11" d="M235.8,158.2c13.4,0,24.2,10.8,24.2,24.2c0,13.3-10.8,24.2-24.2,24.2"/>
		<circle class="wm_color3" cx="235.8" cy="182.4" r="18.8"/>
		<path class="wm_color4" d="M219,183.8c0-10.4,8.4-18.8,18.8-18.8c3.4,0,6.6,0.9,9.4,2.5c-3.2-2.4-7.1-3.9-11.4-3.9
			c-10.4,0-18.8,8.4-18.8,18.8c0,7,3.8,13,9.4,16.3C221.9,195.3,219,189.8,219,183.8z"/>
		<g>
			<g>
				<path class="wm_color12" d="M243.8,169c-0.1,0-0.2,0-0.2-0.1c-0.2-0.1-0.3-0.4-0.2-0.6l0.5-0.9c0.1-0.2,0.4-0.3,0.6-0.2
					c0.2,0.1,0.3,0.4,0.2,0.6l-0.5,0.9C244.1,168.9,243.9,169,243.8,169L243.8,169z"/>
			</g>
			<g>
				<path class="wm_color12" d="M227.2,197.6c-0.1,0-0.2,0-0.2-0.1c-0.2-0.1-0.3-0.4-0.2-0.6l0.5-0.9c0.1-0.2,0.4-0.3,0.6-0.2
					c0.2,0.1,0.3,0.4,0.2,0.6l-0.5,0.9C227.6,197.5,227.4,197.6,227.2,197.6L227.2,197.6z"/>
			</g>
			<g>
				<path class="wm_color12" d="M250.5,191.4c-0.1,0-0.2,0-0.2-0.1l-0.9-0.5c-0.2-0.1-0.3-0.4-0.2-0.6c0.1-0.2,0.4-0.3,0.6-0.2l0.9,0.5
					c0.2,0.1,0.3,0.4,0.2,0.6C250.8,191.3,250.7,191.4,250.5,191.4L250.5,191.4z"/>
			</g>
			<g>
				<path class="wm_color12" d="M221.9,174.9c-0.1,0-0.2,0-0.2-0.1l-0.9-0.5c-0.2-0.1-0.3-0.4-0.2-0.6c0.1-0.2,0.4-0.3,0.6-0.2l0.9,0.5
					c0.2,0.1,0.3,0.4,0.2,0.6C222.2,174.8,222.1,174.9,221.9,174.9L221.9,174.9z"/>
			</g>
		</g>
		<g>
			<g>
				<path class="wm_color12" d="M227.8,169c-0.2,0-0.3-0.1-0.4-0.2l-0.5-0.9c-0.1-0.2,0-0.5,0.2-0.6c0.2-0.1,0.5,0,0.6,0.2l0.5,0.9
					c0.1,0.2,0,0.5-0.2,0.6C227.9,169,227.8,169,227.8,169L227.8,169z"/>
			</g>
			<g>
				<path class="wm_color12" d="M244.3,197.6c-0.2,0-0.3-0.1-0.4-0.2l-0.5-0.9c-0.1-0.2-0.1-0.5,0.2-0.6c0.2-0.1,0.5,0,0.6,0.2l0.5,0.9
					c0.1,0.2,0,0.5-0.2,0.6C244.4,197.6,244.4,197.6,244.3,197.6L244.3,197.6z"/>
			</g>
			<g>
				<path class="wm_color12" d="M221,191.4c-0.2,0-0.3-0.1-0.4-0.2c-0.1-0.2,0-0.5,0.2-0.6l0.9-0.5c0.2-0.1,0.5,0,0.6,0.2
					c0.1,0.2,0,0.5-0.2,0.6l-0.9,0.5C221.2,191.4,221.1,191.4,221,191.4L221,191.4z"/>
			</g>
			<g>
				<path class="wm_color12" d="M249.6,174.9c-0.2,0-0.3-0.1-0.4-0.2c-0.1-0.2-0.1-0.5,0.2-0.6l0.9-0.5c0.2-0.1,0.5-0.1,0.6,0.2
					c0.1,0.2,0.1,0.5-0.2,0.6l-0.9,0.5C249.8,174.8,249.7,174.9,249.6,174.9L249.6,174.9z"/>
			</g>
		</g>
		<g>
			<g>
				<path class="wm_color12" d="M219.8,182.9L219.8,182.9l-1,0c-0.2,0-0.4-0.2-0.4-0.4c0-0.2,0.2-0.4,0.4-0.4c0,0,0,0,0,0l1,0
					c0.2,0,0.4,0.2,0.4,0.4C220.2,182.7,220,182.9,219.8,182.9L219.8,182.9z"/>
			</g>
			<g>
				<path class="wm_color12" d="M251.8,182.9c-0.2,0-0.4-0.2-0.4-0.4c0-0.2,0.2-0.4,0.4-0.4l1,0c0,0,0,0,0,0c0.2,0,0.4,0.2,0.4,0.4
					c0,0.2-0.2,0.4-0.4,0.4L251.8,182.9L251.8,182.9L251.8,182.9z"/>
			</g>
			<g>
				<path class="wm_color12" d="M235.8,199.9C235.8,199.9,235.8,199.9,235.8,199.9c-0.3,0-0.4-0.2-0.4-0.5l0-1c0-0.2,0.2-0.4,0.4-0.4
					c0,0,0,0,0,0c0.2,0,0.4,0.2,0.4,0.5l0,1C236.2,199.7,236,199.9,235.8,199.9L235.8,199.9z"/>
			</g>
			<g>
				<path class="wm_color12" d="M235.8,166.9c-0.2,0-0.4-0.2-0.4-0.4v-1c0-0.2,0.2-0.4,0.4-0.4c0.2,0,0.4,0.2,0.4,0.4v1
					C236.2,166.7,236,166.9,235.8,166.9L235.8,166.9z"/>
			</g>
		</g>
	</g>
</g>
  
<!-- clock arrows -->
<circle class="wm_color12" cx="235.8" cy="182.4" r="3.4"/>
	<g>
		<path class="wm_color12" d="M235.8,183.3c-0.5,0-0.9-0.4-0.9-0.9v-13.3c0-0.5,0.4-0.9,0.9-0.9s0.9,0.4,0.9,0.9v13.3
			C236.7,182.9,236.3,183.3,235.8,183.3L235.8,183.3z"/>
	</g>
	<g>
		<path class="wm_color12" d="M229.9,189.1c-0.2,0-0.5-0.1-0.6-0.3c-0.4-0.3-0.4-0.9,0-1.3l5.6-5.6c0.3-0.3,0.9-0.4,1.3,0
			c0.4,0.4,0.4,0.9,0,1.3l-5.6,5.6C230.4,189.1,230.2,189.1,229.9,189.1L229.9,189.1z"/>
	</g>
	<circle class="wm_color3" cx="235.8" cy="182.4" r="2.1"/>


  
<!--Seconds-->
<path class="wm_color1" d="M235.8,182.9c-0.2,0-0.4-0.1-0.4-0.3c-0.1-0.2,0.1-0.5,0.3-0.6l11.6-3.5c0.2-0.1,0.5,0.1,0.6,0.3
		c0.1,0.2-0.1,0.5-0.3,0.6l-11.6,3.5C235.9,182.9,235.8,182.9,235.8,182.9L235.8,182.9z">
      
      <animateTransform id="clocksec1" attributeName="transform" attributeType="xml" type="rotate"
                  from="0 235.8 182.4"
                  to="360 235.8 182.4"
                  dur="1s"
                  begin="0; clocksec2.end+2s"
                  repeatCount="1"
                  />
  <animateTransform id="clocksec2" attributeName="transform" attributeType="xml" type="rotate"
                  from="360 235.8 182.4"
                  to="0 235.8 182.4"
                  dur="1s"
                  begin="clocksec1.end+2s"
                  repeatCount="1"
                  />
  
  </path>
  <circle class="wm_color1" cx="235.8" cy="182.4" r="1"/>
<!-- /Seconds-->
  
<!-- /clock arrows -->
  
  
</g>
 
<!-- /Clock -->

  
</svg>